<?xml version="1.0" encoding="UTF-8" standalone="no"?>
<!-- Created with Inkscape (http://www.inkscape.org/) -->

<svg
   width="210mm"
   height="297mm"
   viewBox="0 0 210 297"
   version="1.1"
   id="svg1"
   xml:space="preserve"
   inkscape:version="1.3.1 (91b66b0783, 2023-11-16)"
   sodipodi:docname="Pictograma Lavar dientes.svg"
   xmlns:inkscape="http://www.inkscape.org/namespaces/inkscape"
   xmlns:sodipodi="http://sodipodi.sourceforge.net/DTD/sodipodi-0.dtd"
   xmlns="http://www.w3.org/2000/svg"
   xmlns:svg="http://www.w3.org/2000/svg"><sodipodi:namedview
     id="namedview1"
     pagecolor="#ffffff"
     bordercolor="#000000"
     borderopacity="0.25"
     inkscape:showpageshadow="2"
     inkscape:pageopacity="0.0"
     inkscape:pagecheckerboard="0"
     inkscape:deskcolor="#d1d1d1"
     inkscape:document-units="mm"
     inkscape:zoom="0.53362093"
     inkscape:cx="372.9239"
     inkscape:cy="563.13383"
     inkscape:window-width="1440"
     inkscape:window-height="837"
     inkscape:window-x="-8"
     inkscape:window-y="-8"
     inkscape:window-maximized="1"
     inkscape:current-layer="layer1" /><defs
     id="defs1" /><g
     inkscape:label="Capa 1"
     inkscape:groupmode="layer"
     id="layer1"><path
       style="fill:#000000"
       d="m 110.14441,198.91876 c -11.69984,-1.29734 -21.917692,-6.21373 -30.110532,-14.48789 -1.499388,-1.51427 -2.763768,-2.71 -2.809732,-2.65716 -0.04596,0.0528 -0.585035,0.9295 -1.197936,1.94814 -2.391878,3.97532 -4.453202,6.05528 -7.367207,7.43383 -1.975625,0.93462 -4.952847,1.13533 -7.920674,0.53397 -3.131064,-0.63444 -11.308176,-3.20193 -12.184075,-3.82563 -1.000896,-0.7127 -2.707273,-2.58848 -3.442897,-3.78469 -0.71664,-1.16534 -1.641945,-3.7758 -1.641945,-4.63223 0,-0.58144 -0.09884,-0.62004 -1.5875,-0.62004 h -1.5875 v -1.83888 -1.83888 l 1.509953,-0.0793 1.509953,-0.0794 0.429859,-1.20471 c 1.174836,-3.29255 3.925428,-6.82305 6.146676,-7.88951 1.102568,-0.52936 5.38281,-1.09009 14.478212,-1.89671 1.817673,-0.1612 3.336415,-0.32465 3.374981,-0.36322 0.03857,-0.0386 -0.163936,-1.012 -0.450006,-2.16319 -1.402048,-5.64205 -1.690242,-13.85899 -0.685876,-19.55558 2.884088,-16.35804 13.529976,-30.04077 28.560128,-36.70717 9.973478,-4.42359 21.571578,-5.351288 32.304418,-2.58395 13.80629,3.55981 25.50727,13.23455 31.75297,26.25438 7.46496,15.5615 6.22646,33.75471 -3.28288,48.22474 -1.79126,2.7257 -3.43812,4.71625 -6.31762,7.63606 -7.15916,7.2594 -16.13968,11.9057 -26.43404,13.67631 -3.62868,0.62413 -9.79836,0.86091 -13.04673,0.50071 z m 13.36146,-6.59619 c 17.19484,-3.62759 30.03113,-16.49978 33.77393,-33.86843 0.81131,-3.76487 0.88579,-12.57836 0.13752,-16.27187 -4.42661,-21.85007 -23.54469,-36.55928 -45.52805,-35.02872 -19.965138,1.39005 -36.345896,16.48214 -39.454978,36.35108 -0.675927,4.31959 -0.431816,11.86 0.513951,15.87556 0.940441,3.99294 1.400211,5.31521 2.441605,7.02187 0.491872,0.80609 1.431909,2.70412 2.088972,4.21785 0.657063,1.51373 1.495116,3.14615 1.862341,3.62761 l 0.667682,0.87537 h 7.820051 c 6.678625,0 7.798823,-0.0553 7.674612,-0.37901 -0.07999,-0.20845 -0.224724,-1.07979 -0.321628,-1.9363 -0.667756,-5.90219 4.308284,-12.17715 12.086252,-15.2412 6.5597,-2.58413 13.09324,-1.85555 19.41274,2.16478 2.66582,1.69594 3.94497,2.80987 5.33408,4.6451 4.04429,5.34318 3.81696,11.11918 -0.63107,16.03442 -3.84747,4.25159 -10.84244,7.41221 -16.40442,7.41221 -5.17299,0 -12.03613,-3.13683 -15.899768,-7.26707 l -1.617167,-1.72876 h -7.152806 c -3.934043,0 -7.152806,0.0989 -7.152806,0.21986 0,0.12093 0.625079,0.81101 1.389063,1.53351 7.294985,6.89891 15.613584,10.96937 25.069274,12.26691 2.97241,0.40789 10.8871,0.10888 13.89062,-0.52477 z M 88.494701,145.40636 c -0.782343,-0.83276 -0.770693,-2.28682 0.02431,-3.03368 0.496152,-0.46611 1.682289,-0.73453 6.875319,-1.55586 l 6.27572,-0.99258 0.71721,0.53548 c 0.39446,0.29451 0.79781,0.83686 0.89632,1.20522 0.25621,0.95799 -0.34896,2.19441 -1.24329,2.54016 -0.88331,0.34148 -10.829065,1.91363 -12.10608,1.91363 -0.56126,0 -1.06589,-0.21467 -1.439506,-0.61237 z m 41.768129,-0.84046 c -5.59307,-0.82179 -5.97869,-0.91466 -6.54844,-1.57703 -0.706,-0.82078 -0.77102,-1.64302 -0.19495,-2.46548 0.84755,-1.21004 1.09501,-1.21973 7.74208,-0.30294 5.51481,0.76063 6.32088,0.93305 6.85387,1.46603 1.15134,1.15135 0.39854,3.34428 -1.24806,3.6356 -0.3638,0.0644 -3.33583,-0.27591 -6.6045,-0.75618 z m -62.797144,43.67025 c 2.437903,-1.13506 4.451043,-3.4135 6.924848,-7.8374 l 0.822581,-1.47102 -1.343998,-2.10086 c -1.359253,-2.1247 -4.130838,-7.49259 -4.67583,-9.05596 -0.283199,-0.81238 -0.358587,-0.85022 -1.699173,-0.85274 -0.771554,-0.001 -4.498451,0.30629 -8.281993,0.68387 -7.908377,0.78922 -8.54991,0.98409 -10.227839,3.10683 -1.713325,2.16752 -2.40637,3.77129 -2.545374,5.89024 -0.209543,3.19425 1.252965,6.76586 3.434012,8.38622 0.822126,0.61079 6.026563,2.35141 10.132951,3.38898 2.801932,0.70796 5.760183,0.65317 7.459815,-0.13816 z m 49.359454,-3.49349 c 0.94357,-0.15597 0.99219,-0.21324 0.99219,-1.16882 0,-1.36227 -0.57122,-1.88462 -1.95075,-1.78384 -1.08598,0.0793 -1.09241,0.0861 -1.1748,1.23452 -0.13886,1.93573 0.0239,2.06681 2.13336,1.71814 z m -4.71707,-1.50404 c 0.25325,-1.6888 0.0349,-2.03031 -1.29811,-2.03031 -1.30312,0 -1.7588,0.40557 -1.81637,1.61661 -0.0347,0.7302 0.0788,0.88103 0.88624,1.17779 1.70935,0.62823 2.03626,0.51613 2.22824,-0.76409 z m 9.55422,0.23215 c 0.79701,-0.33301 0.91754,-0.50395 0.91754,-1.30128 0,-1.49294 -0.18505,-1.7408 -1.10309,-1.47751 -1.20419,0.34536 -1.54274,0.74641 -1.54274,1.82755 0,1.45629 0.22419,1.57969 1.72829,0.95124 z m -14.82834,-1.45871 c 0.24817,-0.78192 -0.27861,-1.51848 -1.33544,-1.86726 -1.05215,-0.34724 -1.04043,-0.35123 -1.28219,0.43671 -0.14169,0.46178 0.0319,0.68735 0.95932,1.24644 1.37605,0.82957 1.45081,0.83787 1.65831,0.18411 z m 19.15983,-0.8156 c 0.90601,-0.65631 1.07947,-0.91373 0.93601,-1.38906 -0.29383,-0.97353 -0.55814,-1.09036 -1.69563,-0.74956 -0.7423,0.2224 -1.06683,0.46731 -1.06683,0.8051 0,0.82606 0.32075,2.13912 0.52254,2.13912 0.1055,0 0.69226,-0.36252 1.30391,-0.8056 z m -5.00145,-1.83743 1.45521,-0.49486 -8.06979,-0.008 c -7.21022,-0.007 -7.99423,0.0331 -7.36036,0.37725 0.39019,0.21187 0.78546,0.62474 0.87838,0.91751 0.15514,0.48882 0.21546,0.49971 0.7385,0.13336 0.37042,-0.25946 1.19127,-0.39894 2.34776,-0.39894 1.53442,0 1.83434,0.0801 2.18764,0.58454 0.32018,0.45713 0.47916,0.5148 0.72937,0.26458 0.44102,-0.44101 3.42723,-0.4116 4.0446,0.0398 0.43226,0.31607 0.55896,0.28201 1.04276,-0.28034 0.3029,-0.35206 1.20557,-0.86281 2.00593,-1.13498 z m -17.74568,-0.33353 c 0.0102,-0.10914 -0.35935,-0.19844 -0.82127,-0.19844 h -0.83987 l 0.63346,0.6743 c 0.57846,0.61574 0.64978,0.63297 0.82128,0.19843 0.10329,-0.26172 0.19617,-0.56515 0.2064,-0.67429 z m 26.13128,-0.80799 c 2.01958,-2.30018 2.96218,-5.11241 2.47499,-7.3841 -0.37834,-1.76415 -1.07682,-3.3086 -1.97908,-4.37604 l -0.72718,-0.86032 -0.67326,0.52959 c -0.3703,0.29127 -1.01836,0.52959 -1.44013,0.52959 -0.87877,0 -3.39511,-1.19312 -3.39511,-1.60979 0,-0.15288 -0.2241,-0.20683 -0.49801,-0.11989 -0.58436,0.18547 -3.27995,-0.76434 -3.739,-1.31746 -0.21117,-0.25445 -0.46129,-0.30458 -0.75171,-0.15066 -0.23938,0.12687 -1.92838,0.29877 -3.75334,0.38201 -2.64036,0.12042 -3.47252,0.0712 -4.07408,-0.24087 -0.69438,-0.36025 -0.85514,-0.34419 -1.97343,0.19717 -0.6696,0.32414 -1.65817,0.59412 -2.19682,0.59994 -0.76274,0.008 -1.00978,0.13104 -1.11691,0.55516 -0.0965,0.38197 -0.56155,0.67822 -1.55757,0.99218 -1.71152,0.53951 -2.27483,0.54966 -2.93114,0.0528 -0.44666,-0.33816 -0.55088,-0.31245 -0.98847,0.24386 -1.258528,1.59996 -1.923378,3.42198 -1.937731,5.31036 -0.0077,1.01865 0.149196,2.23904 0.348752,2.71198 l 0.362828,0.85989 h 3.275191 3.27519 v -2.40602 c 0,-2.20556 0.0453,-2.41787 0.54413,-2.54831 0.37826,-0.0989 0.48948,-0.27284 0.36484,-0.57054 -0.0986,-0.23554 -0.23714,-0.96865 -0.30784,-1.62914 -0.17713,-1.65475 0.30802,-2.06224 1.9367,-1.62663 1.90398,0.50923 3.56819,0.39285 5.0241,-0.35135 3.58283,-1.83141 6.60601,-1.87619 8.35837,-0.12383 0.86239,0.86239 0.99817,2.18462 0.35255,3.43311 -0.24972,0.4829 -0.29857,0.82576 -0.13229,0.92852 0.14498,0.0896 0.26361,1.22746 0.26361,2.52856 v 2.36563 h 1.32292 1.32291 v 1.30629 1.30628 l 0.91168,-0.14795 c 1.29094,-0.20949 2.10989,0.0616 2.52409,0.83554 0.46118,0.86173 0.58837,0.84442 1.51025,-0.20554 z m -9.17935,-4.81441 v -1.71979 h -6.61458 -6.61459 v 1.71979 1.71979 h 6.61459 6.61458 z m -6.31288,-4.23333 c 2.50145,-1.19879 3.44202,-1.20399 4.62045,-0.0256 l 0.90048,0.90048 0.53402,-0.67889 c 0.93145,-1.18414 0.96489,-1.9225 0.12001,-2.64924 -0.67181,-0.57787 -0.93617,-0.63208 -2.61975,-0.53722 -1.45149,0.0818 -2.28518,0.30754 -3.7077,1.00404 -1.9233,0.9417 -3.79876,1.17888 -5.62604,0.71151 l -0.84662,-0.21654 0.24019,0.8375 c 0.40362,1.40735 0.69364,1.57996 2.65451,1.57996 1.51055,0 2.10716,-0.1481 3.73045,-0.92604 z m 3.28835,0.68872 c -0.47805,-0.18723 -1.73797,-0.0887 -1.73797,0.13587 0,0.0558 0.50602,0.0931 1.12448,0.0828 0.79552,-0.0131 0.97499,-0.0771 0.61349,-0.21872 z m 10.37995,-4.84268 c 0.53462,-0.53463 0.36531,-0.88137 -0.86005,-1.76136 -1.13241,-0.81323 -1.18819,-0.82576 -1.45521,-0.32683 -0.49099,0.91744 -0.3177,1.49601 0.58224,1.94389 1.05812,0.52661 1.32822,0.5491 1.73302,0.1443 z m -23.80817,-0.51171 c 0.46706,-0.1748 0.59296,-0.39761 0.52917,-0.93645 -0.046,-0.38889 -0.20278,-0.74125 -0.3483,-0.78302 -0.44118,-0.12664 -2.34288,1.65348 -2.1316,1.99534 0.1854,0.29998 0.54987,0.24844 1.95073,-0.27587 z m 19.1978,-1.8497 c 0.31232,-1.56158 0.22396,-1.75286 -1.03116,-2.2322 -0.65809,-0.25132 -1.25923,-0.39424 -1.33588,-0.3176 -0.0766,0.0767 -0.16328,0.65896 -0.19254,1.29402 -0.0495,1.07575 0.0101,1.18634 0.87286,1.61822 1.27413,0.63781 1.49622,0.59009 1.68672,-0.36244 z m -15.00464,0.0165 c 0.92341,-0.35107 1.13792,-0.68313 1.14304,-1.76938 0.005,-1.00948 -0.0317,-1.01532 -1.58345,-0.25368 -0.89615,0.43987 -1.17116,0.71529 -1.11191,1.11358 0.19299,1.29739 0.32643,1.37557 1.55232,0.90948 z m 6.13093,-0.8744 c 0.0517,-0.27175 0.0139,-1.02804 -0.0839,-1.68065 l -0.17793,-1.18657 -1.20419,0.18058 c -1.79353,0.26896 -1.93029,0.36633 -1.93029,1.37434 0,1.61445 0.37072,1.97627 1.93215,1.88579 1.09135,-0.0632 1.38932,-0.17996 1.46419,-0.57349 z m 4.37436,0.0863 c 0.31593,-0.28983 0.67285,-2.35335 0.43271,-2.50176 -0.10685,-0.066 -0.86524,-0.19893 -1.6853,-0.29532 l -1.49103,-0.17524 v 1.72372 1.72372 l 1.25677,-0.13203 c 0.69123,-0.0726 1.36031,-0.22701 1.48685,-0.34309 z"
       id="path2" /></g></svg>
