<?xml version="1.0" encoding="UTF-8" standalone="no"?>
<!-- Created with Inkscape (http://www.inkscape.org/) -->

<svg
   width="210mm"
   height="297mm"
   viewBox="0 0 210 297"
   version="1.1"
   id="svg5"
   inkscape:version="1.3.2 (091e20e, 2023-11-25, custom)"
   sodipodi:docname="pictograma_jugar.svg"
   xmlns:inkscape="http://www.inkscape.org/namespaces/inkscape"
   xmlns:sodipodi="http://sodipodi.sourceforge.net/DTD/sodipodi-0.dtd"
   xmlns="http://www.w3.org/2000/svg"
   xmlns:svg="http://www.w3.org/2000/svg"
   xmlns:rdf="http://www.w3.org/1999/02/22-rdf-syntax-ns#"
   xmlns:cc="http://creativecommons.org/ns#"
   xmlns:dc="http://purl.org/dc/elements/1.1/">
  <title
     id="title133">plantilla pictogramas</title>
  <sodipodi:namedview
     id="namedview7"
     pagecolor="#505050"
     bordercolor="#ffffff"
     borderopacity="1"
     inkscape:pageshadow="0"
     inkscape:pageopacity="0"
     inkscape:pagecheckerboard="1"
     inkscape:document-units="mm"
     showgrid="false"
     inkscape:zoom="2.5620932"
     inkscape:cx="420.55457"
     inkscape:cy="405.72295"
     inkscape:window-width="1920"
     inkscape:window-height="1001"
     inkscape:window-x="-9"
     inkscape:window-y="-9"
     inkscape:window-maximized="1"
     inkscape:current-layer="layer1"
     inkscape:showpageshadow="0"
     inkscape:deskcolor="#505050" />
  <defs
     id="defs2" />
  <g
     inkscape:label="Capa 1"
     inkscape:groupmode="layer"
     id="layer1">
    <path
       style="fill:#000000;stroke-width:0.277565"
       d="m 96.27827,125.43267 c -0.254265,-0.0716 -1.008603,-0.65873 -1.476457,-1.14932 -0.80316,-0.84221 -3.924836,-6.61111 -4.421721,-8.17141 -0.123674,-0.38835 -0.181393,-0.47433 -0.318448,-0.47433 -0.09207,0 -0.167397,-0.0251 -0.167397,-0.0558 0,-0.15877 -0.356333,-3.55451 -0.391374,-3.72968 -0.02255,-0.11278 -0.182102,-0.4332 -0.354535,-0.71202 -0.363124,-0.58719 -0.614292,-1.22958 -0.750092,-1.91844 -0.211919,-1.07498 0.49626,-2.34963 1.821452,-3.27843 0.576863,-0.4043 1.331175,-0.77924 1.92103,-0.95485 0.218431,-0.065 0.397149,-0.14465 0.397149,-0.17692 0,-0.0323 0.139347,-0.18548 0.309658,-0.34045 l 0.309655,-0.28175 -0.433981,-0.36219 c -0.238692,-0.1992 -0.506012,-0.44688 -0.594048,-0.55039 -0.107534,-0.12643 -0.204104,-0.17553 -0.294248,-0.14959 -0.0738,0.0213 -0.192374,0.0424 -0.26349,0.0471 -0.217206,0.0143 -0.672917,-0.534 -0.891528,-1.07263 -0.17954,-0.44235 -0.20694,-0.64438 -0.206151,-1.52001 6.65e-4,-0.835181 0.03447,-1.103093 0.19491,-1.548874 0.773349,-2.14866 2.484314,-3.115404 5.350002,-3.022909 1.80452,0.05825 3.613042,0.550672 4.639184,1.263168 0.50177,0.348395 0.61186,0.465602 0.7688,0.818533 0.30391,0.683364 0.39614,1.628513 0.28185,2.887902 -0.15982,1.76084 -0.30194,2.20756 -0.93432,2.93695 l -0.31129,0.35904 0.43369,0.28731 c 0.38154,0.25275 0.49542,0.29265 0.9471,0.33184 0.28237,0.0245 0.76048,0.0976 1.06244,0.16233 1.2429,0.26663 2.41885,1.37686 3.07777,2.9058 0.27882,0.64695 0.29616,1.00872 0.17647,3.68139 l -0.0802,1.7902 h -0.51494 -0.51494 l 2.21294,1.51478 c 2.20811,1.51147 2.21413,1.51497 2.75608,1.60788 1.02291,0.17534 1.6452,0.52273 2.06057,1.1503 0.2099,0.31714 0.21379,0.35038 0.15436,1.31587 -0.0486,0.78978 -0.0331,1.08211 0.0767,1.44244 0.16039,0.52645 0.0915,0.85615 -0.2682,1.28325 -0.3153,0.3744 -0.80557,0.51892 -1.65879,0.489 -0.56111,-0.0197 -0.69618,-0.0497 -1.13439,-0.25174 l -0.49745,-0.22939 v 0.40893 c 0,0.40177 -0.007,0.41335 -0.37788,0.66041 -0.74146,0.49343 -2.13523,0.73435 -4.24848,0.73435 -1.87096,0 -3.19379,-0.19377 -4.02325,-0.58932 l -0.234048,-0.11161 -0.0631,0.3188 c -0.08249,0.41653 -0.355264,0.99468 -0.618151,1.31013 -0.569392,0.68328 -2.086289,1.17569 -2.90894,0.94428 z m 1.419828,-0.43268 c 0.620466,-0.20862 0.954631,-0.44216 1.21976,-0.8525 0.231378,-0.35808 0.488846,-1.05616 0.491927,-1.3338 0.0016,-0.11347 -0.04667,-0.1377 -0.272139,-0.1377 -0.404488,0 -1.282513,0.17099 -1.783595,0.34734 -0.597,0.21011 -1.311438,0.69275 -1.608198,1.08642 l -0.245026,0.32503 0.287151,0.25182 c 0.473256,0.41501 0.706222,0.51479 1.125939,0.48223 0.201595,-0.0156 0.554479,-0.0916 0.784181,-0.16884 z m -1.385751,-1.72327 c 0.603042,-0.38778 1.530877,-0.69115 2.308221,-0.75475 0.683786,-0.056 0.725463,-0.0692 0.625476,-0.19897 -0.1531,-0.19869 -0.577472,-0.45817 -0.93624,-0.57247 -0.728829,-0.23221 -2.294931,-0.0903 -2.825766,0.25607 -0.365778,0.23867 -0.692033,0.84154 -0.69573,1.28564 -0.0027,0.34157 0.03436,0.44165 0.247354,0.6654 l 0.250697,0.26337 0.248277,-0.30194 c 0.136553,-0.16605 0.486521,-0.45512 0.777711,-0.64235 z m 10.205113,-0.10666 c 0.80429,-0.13371 1.64492,-0.42297 1.82759,-0.62885 0.15989,-0.18018 0.0127,-0.17684 -0.48683,0.0111 -0.26584,0.10001 -0.83769,0.24395 -1.27075,0.3199 -0.6801,0.11925 -1.01553,0.13806 -2.46168,0.13806 -1.44615,0 -1.7816,-0.0188 -2.46169,-0.13806 -0.43307,-0.0759 -1.00489,-0.21989 -1.27075,-0.3199 -0.532302,-0.20024 -0.632837,-0.1965 -0.43229,0.0161 0.27278,0.28913 1.3188,0.57762 2.60621,0.71878 0.88671,0.0972 3.04622,0.0332 3.95019,-0.11707 z m -11.956826,-0.68349 c 0.36389,-0.69315 1.013776,-1.02313 2.284756,-1.16009 0.668121,-0.072 1.284581,-0.0193 1.756228,0.15008 l 0.238943,0.0858 -0.133194,-0.48421 c -0.09025,-0.32808 -0.167824,-0.47502 -0.240583,-0.45571 -0.05906,0.0156 -0.494671,-0.0964 -0.968017,-0.24892 -0.47335,-0.15259 -1.237943,-0.33962 -1.699098,-0.41562 -0.937063,-0.15442 -1.129059,-0.21421 -2.22061,-0.69152 -0.535377,-0.23411 -0.750378,-0.36165 -0.715627,-0.42455 0.06208,-0.11235 0.169043,-0.0838 0.79974,0.21331 0.794012,0.37409 1.507261,0.59823 2.223304,0.69871 0.3635,0.0511 1.097106,0.23002 1.630239,0.39781 0.533133,0.16778 0.977943,0.30037 0.988463,0.29464 0.04633,-0.0252 -0.167603,-1.97589 -0.296729,-2.7056 -0.07825,-0.44224 -0.11643,-0.89977 -0.08483,-1.01676 0.19202,-0.71089 1.463916,-0.55906 2.981961,0.35598 l 0.64094,0.38635 0.044,-0.9537 0.0441,-0.95369 0.92527,-0.22076 0.92527,-0.22074 0.0246,-0.77998 0.0246,-0.77997 -0.69938,0.33074 c -1.92351,0.90969 -4.27318,1.39956 -7.060529,1.47204 -0.848163,0.022 -2.315376,0.0793 -3.260476,0.12728 -0.945099,0.048 -1.78851,0.0876 -1.874251,0.088 -0.124057,7.2e-4 -0.145026,0.0352 -0.102684,0.16916 0.310504,0.98222 0.869592,2.20469 1.784435,3.90171 0.682369,1.26579 1.783691,3.21317 1.817173,3.21317 0.01432,0 0.114135,-0.16786 0.221842,-0.37303 z m 11.935966,0.16377 c 2.32774,-0.38021 2.53742,-1.15223 0.43063,-1.58555 l -0.45903,-0.0944 -0.0257,0.46572 -0.0257,0.46573 -1.13525,0.32992 c -1.29366,0.37597 -1.03173,0.38748 -2.58786,-0.11371 l -0.90324,-0.29092 v -0.42912 -0.42912 l -0.46264,0.0952 c -2.124077,0.43689 -1.901307,1.20373 0.46264,1.59256 1.2173,0.20023 3.46013,0.19724 4.70601,-0.007 z m -2.50299,-1.04853 v -0.64576 l -0.33045,-0.0975 c -0.18175,-0.0537 -0.44943,-0.0976 -0.59482,-0.0978 -0.16809,-1.7e-4 -0.37669,-0.0682 -0.57279,-0.18681 l -0.30842,-0.18656 -0.0265,0.31581 c -0.0145,0.17369 -0.0145,0.47186 0,0.66262 l 0.0265,0.34682 0.83715,0.26251 c 0.46043,0.14439 0.86689,0.26475 0.90324,0.26745 0.0364,0.003 0.0661,-0.28566 0.0661,-0.64082 z m 1.23926,0.39336 0.87564,-0.25239 -0.006,-0.65036 c -0.004,-0.42545 -0.0317,-0.60539 -0.0812,-0.52034 -0.0616,0.10592 -0.1707,0.13556 -0.58923,0.16006 -0.28249,0.0165 -0.66234,0.0754 -0.84409,0.13093 l -0.33045,0.10087 v 0.64181 c 0,0.353 0.0223,0.64181 0.0496,0.64181 0.0273,0 0.44367,-0.11358 0.92527,-0.25239 z m 6.16693,-0.20917 c 0.46702,-0.29354 0.63838,-0.74535 0.46775,-1.23336 -0.0892,-0.25499 -0.11733,-0.66663 -0.0998,-1.45704 0.0278,-1.24821 -0.0217,-1.38404 -0.66015,-1.81441 -1.06348,-0.71681 -3.01455,-0.42669 -3.46501,0.51524 -0.24132,0.50463 -0.14617,0.89087 0.42657,1.73139 0.27382,0.40185 0.61727,0.94211 0.76322,1.20058 0.49446,0.87566 0.61225,1.01247 0.96163,1.11673 0.45137,0.13472 1.34998,0.10163 1.60574,-0.0591 z m -11.2997,-0.59478 c 0.19989,-0.0919 0.65211,-0.23442 1.00493,-0.31676 l 0.64149,-0.14971 0.0268,-0.27868 c 0.0194,-0.20094 0.0746,-0.29646 0.19827,-0.34241 0.15123,-0.0563 0.17143,-0.13175 0.17143,-0.64085 0,-0.51447 -0.0191,-0.58422 -0.17623,-0.64263 -0.15028,-0.0559 -0.17712,-0.13056 -0.18214,-0.50708 l -0.006,-0.44156 -0.81751,-0.47231 c -1.101731,-0.6365 -1.938803,-0.92791 -2.254948,-0.78505 -0.156737,0.0708 -0.16032,0.49465 -0.01026,1.21256 0.0544,0.26026 0.137046,0.92765 0.183644,1.48308 0.07806,0.93061 0.228794,1.68761 0.455979,2.2902 l 0.09045,0.2399 0.15524,-0.24083 c 0.09326,-0.14468 0.300363,-0.30753 0.518695,-0.40787 z m 8.51625,-0.26542 c -0.12442,-0.23239 -0.46267,-0.77116 -0.75168,-1.19728 -0.60507,-0.8921 -0.76223,-1.34166 -0.61297,-1.75337 0.12781,-0.35251 0.31556,-0.60936 0.60726,-0.83069 0.19475,-0.14776 0.20257,-0.16559 0.0485,-0.11031 -0.10111,0.0363 -0.32537,0.17473 -0.49837,0.30772 -0.44887,0.34509 -0.57736,0.77639 -0.41857,1.40506 0.0655,0.2591 0.10992,0.63422 0.0988,0.83363 -0.0226,0.40848 0.0754,0.61992 0.46688,1.00628 0.24087,0.23773 1.19256,0.82665 1.26008,0.77976 0.0145,-0.0101 -0.0754,-0.20841 -0.1999,-0.4408 z m -1.92862,-0.24023 c -0.18109,-0.0952 -0.28229,-0.08 -0.1863,0.0279 0.032,0.0358 0.12514,0.0643 0.2071,0.0633 0.13083,-0.002 0.12829,-0.0129 -0.0208,-0.0911 z m -2.01118,-0.20434 0.99135,-0.008 v -0.70384 c 0,-0.38711 -0.0163,-0.70383 -0.0363,-0.70383 -0.0199,0 -0.36476,0.0977 -0.76628,0.217 l -0.73002,0.21702 -0.51729,-0.1558 c -0.28451,-0.0857 -0.53449,-0.15582 -0.55553,-0.15582 -0.021,0 -0.0383,0.29899 -0.0383,0.66442 v 0.66444 l 0.33045,-0.0133 c 0.18175,-0.008 0.77658,-0.017 1.32183,-0.0218 z m 2.04009,-0.29927 c -0.0508,-0.0926 -0.0828,-0.31979 -0.071,-0.50493 0.0118,-0.18514 -0.009,-0.46461 -0.0462,-0.62104 l -0.0677,-0.28443 -0.25517,0.10082 c -0.24655,0.0974 -0.25517,0.11662 -0.25571,0.57007 l -5.5e-4,0.46924 0.37452,0.21809 c 0.20598,0.11995 0.38345,0.21864 0.39437,0.21929 0.0109,7.4e-4 -0.0217,-0.0745 -0.0727,-0.16711 z m -4.04485,-0.53553 c 0,-0.53042 -0.023,-0.64264 -0.13218,-0.64264 -0.10802,0 -0.13218,0.10405 -0.13218,0.5692 0,0.49464 0.0736,0.71607 0.23793,0.71607 0.0145,0 0.0265,-0.28918 0.0265,-0.64263 z m 1.32182,-1.86822 c 0,-1.40461 -5.5e-4,-1.40936 -0.19828,-1.46307 -0.10905,-0.0296 -0.52615,-0.15206 -0.92688,-0.27206 l -0.72862,-0.21817 0.0236,1.40837 0.0236,1.40838 0.83716,0.26741 c 0.46042,0.14709 0.86689,0.26988 0.90323,0.27288 0.0364,0.004 0.0661,-0.62868 0.0661,-1.40374 z m 1.29978,1.13058 0.81512,-0.23203 v -1.39627 -1.39627 l -0.46263,0.12737 c -0.25446,0.0701 -0.67083,0.18181 -0.92528,0.24832 l -0.46263,0.12094 v 1.40982 c 0,1.10298 0.024,1.40334 0.11015,1.37999 0.0606,-0.0164 0.47695,-0.13426 0.92527,-0.26187 z m 1.59519,-1.63465 c 0.30866,-0.34688 1.01508,-0.67424 1.65379,-0.76642 l 0.32468,-0.0468 -2.08312,-1.40592 c -1.14571,-0.77325 -2.12327,-1.41521 -2.17235,-1.42658 -0.0571,-0.0132 -0.0892,0.25445 -0.0892,0.74221 v 0.76287 l 0.9473,0.2454 0.9473,0.2454 0.027,1.15424 c 0.024,1.02635 0.0395,1.12972 0.13983,0.93284 0.062,-0.12178 0.19925,-0.31852 0.30486,-0.43718 z m -1.85575,-1.34436 0.74847,-0.19746 -0.43122,-0.1307 c -0.77144,-0.23381 -0.81171,-0.23588 -0.84354,-0.0433 -0.0257,0.1555 -0.0603,0.17106 -0.38075,0.17106 -0.31903,0 -0.35513,-0.016 -0.38037,-0.16831 -0.0153,-0.0926 -0.0572,-0.16831 -0.0931,-0.16831 -0.11694,0 -1.16751,0.25778 -1.13697,0.279 0.0882,0.0612 1.45955,0.44757 1.60155,0.45118 0.0921,0.003 0.50422,-0.0846 0.91588,-0.19321 z m -0.77925,-1.42948 c -0.009,-0.82094 -0.0338,-1.0048 -0.13553,-1.0048 -0.1021,0 -0.12444,0.1795 -0.12444,0.99966 0,0.5498 0.0253,1.01726 0.0563,1.03879 0.16629,0.1155 0.21365,-0.12491 0.20362,-1.03365 z m -11.793175,0.68164 c 0.987707,-0.0486 2.350994,-0.10522 3.029525,-0.12572 1.752936,-0.053 1.630308,-0.0149 1.629886,-0.50613 -1.94e-4,-0.22658 -0.06847,-0.6736 -0.151728,-0.99339 -0.127217,-0.48865 -0.149928,-0.95738 -0.142331,-2.93775 0.005,-1.29598 0.05311,-2.86259 0.106975,-3.48136 l 0.09793,-1.12505 -0.312885,-0.35774 c -0.367048,-0.41965 -0.354019,-0.41261 -0.846021,-0.4576 -0.541912,-0.0496 -0.680544,0.0443 -0.778079,0.5266 -0.08485,0.41962 -0.349152,0.67213 -0.703507,0.67213 -0.09543,0 -0.505768,-0.25612 -0.97598,-0.60918 l -0.811318,-0.60918 -0.36295,0.12817 c -1.971138,0.69606 -3.423018,2.17457 -3.41547,3.47813 0.0039,0.68589 0.472696,1.9301 1.002604,2.66133 0.286538,0.39539 1.069136,1.20079 1.472316,1.51519 l 0.373343,0.29115 0.392695,-0.30337 c 0.471671,-0.36436 1.151318,-0.61004 1.728194,-0.62472 0.230214,-0.006 0.41913,-0.0269 0.419813,-0.0467 6.66e-4,-0.0198 -0.364676,-0.63857 -0.811903,-1.37506 -0.874954,-1.44087 -1.220013,-1.80928 -1.930311,-2.06096 -0.229819,-0.0815 -0.321343,-0.1488 -0.286885,-0.21117 0.02785,-0.0503 0.06815,-0.0916 0.08961,-0.0916 0.124273,0 0.619227,0.22173 0.929402,0.41635 l 0.35989,0.22583 -0.04325,-0.9358 c -0.03855,-0.8341 -0.02795,-0.93378 0.09748,-0.91713 0.120429,0.016 0.147167,0.1731 0.185362,1.08905 l 0.04463,1.07035 0.919014,1.49039 c 0.899174,1.45824 0.93102,1.49862 1.475454,1.87121 0.435723,0.2982 0.556446,0.42034 0.556446,0.56297 0,0.1002 -0.04652,0.21447 -0.103358,0.25395 -0.07905,0.0549 -0.07844,0.10976 0.0027,0.23331 0.13955,0.21271 -0.01329,0.35166 -0.349186,0.31741 -0.210345,-0.0215 -0.237908,-0.005 -0.225315,0.1325 0.01236,0.13529 -0.02578,0.1596 -0.276584,0.17634 -0.210338,0.014 -0.286863,0.048 -0.276246,0.1224 0.04147,0.29091 -0.13632,0.35764 -0.596856,0.22399 -0.174364,-0.0506 -0.320853,-0.0847 -0.325525,-0.0759 -0.0561,0.10628 -0.217588,0.25831 -0.292906,0.27575 -0.194165,0.045 -0.720886,-0.36686 -1.076599,-0.84173 -0.201452,-0.26894 -0.397129,-0.48898 -0.434838,-0.48898 -0.122168,0 -1.153768,-0.75589 -1.482631,-1.08637 -0.175867,-0.17674 -0.326011,-0.31445 -0.333662,-0.30602 -0.0077,0.008 0.05615,0.64877 0.141792,1.42299 0.08563,0.77423 0.157968,1.42833 0.160749,1.45358 0.0067,0.0609 0.04958,0.0599 2.130608,-0.0425 z m 6.468316,-0.40154 c 1.258489,-0.22537 2.473919,-0.56718 3.401169,-0.9565 0.55216,-0.23184 0.66555,-0.30249 0.53798,-0.33529 -0.0889,-0.0229 -0.28837,-0.14176 -0.44322,-0.26426 l -0.28158,-0.22274 v -0.87781 c 0,-0.70563 -0.0259,-0.89277 -0.13219,-0.95402 -0.19268,-0.11107 -0.16183,-0.28478 0.0724,-0.40747 0.18333,-0.0961 0.19291,-0.1234 0.0922,-0.26355 -0.0618,-0.086 -0.15478,-0.58301 -0.20667,-1.10445 -0.087,-0.87434 -0.16507,-1.40191 -0.31913,-2.15684 -0.0485,-0.23733 -0.0347,-0.29071 0.0746,-0.29071 0.16978,0 0.21602,0.124 0.34689,0.93042 l 0.10629,0.655 0.299,-0.24262 c 0.35811,-0.29057 0.63052,-0.40746 0.71869,-0.30839 0.0334,0.0374 -0.12038,0.19801 -0.34333,0.35866 -0.38552,0.27781 -0.62063,0.62799 -0.62063,0.92444 0,0.19422 0.12453,0.1584 0.29068,-0.0836 0.14641,-0.21325 0.26969,-0.26601 0.36671,-0.15695 0.0526,0.0591 -0.2284,0.45016 -0.44603,0.62079 -0.1427,0.11189 -0.16179,0.46761 -0.0373,0.69503 0.076,0.13886 0.13552,0.157 0.51493,0.157 0.54907,0 1.30749,0.182 2.07068,0.4969 0.33134,0.13671 0.62178,0.23512 0.64545,0.21867 0.0237,-0.0165 0.0824,-0.49239 0.13055,-1.05768 0.12466,-1.46392 -0.066,-2.15063 -0.90949,-3.27726 -0.77256,-1.03179 -1.43309,-1.4392 -2.61288,-1.61156 -1.02407,-0.14962 -1.01507,-0.15174 -1.32854,0.31352 -0.15092,0.224 -0.29734,0.47074 -0.32538,0.54832 -0.19608,0.5426 -0.960719,0.17333 -1.183351,-0.57148 -0.129861,-0.43446 -0.254419,-0.5143 -0.678202,-0.43473 -0.422008,0.0792 -0.98865,0.32547 -1.20053,0.52167 -0.119597,0.11074 -0.176849,0.29686 -0.209842,0.68216 l -0.04537,0.52987 0.194205,-0.1683 c 0.428822,-0.37163 1.242104,-0.0192 0.957352,0.41483 -0.185735,0.28313 -0.851594,0.27717 -1.06789,-0.01 -0.107475,-0.14246 -0.126332,-0.0508 -0.178473,0.8674 -0.105991,1.86658 -0.06702,4.77818 0.07247,5.41377 0.07018,0.31978 0.154229,0.80864 0.186779,1.08636 0.07093,0.60513 -0.0049,0.58882 1.491008,0.32095 z m -1.399939,-2.78474 c -0.276261,-0.19188 -0.243434,-0.51257 0.06722,-0.65664 0.308089,-0.14287 0.75498,0.007 0.881168,0.29547 0.137127,0.3135 -0.608293,0.59738 -0.948385,0.36117 z m 0.596992,-0.23164 c 0.06943,-0.0764 0.05827,-0.12638 -0.04415,-0.19752 -0.181688,-0.12618 -0.432726,-0.0537 -0.432726,0.12496 0,0.22026 0.301122,0.26607 0.476876,0.0725 z m -0.613062,-2.09094 c -0.258026,-0.1792 -0.274189,-0.33739 -0.05379,-0.52643 0.194438,-0.16677 0.656816,-0.18819 0.869765,-0.0404 0.212946,0.1479 0.182102,0.46905 -0.05802,0.60409 -0.272183,0.15307 -0.499936,0.14185 -0.757959,-0.0373 z m 0.620853,-0.27819 c 0,-0.11217 -0.05303,-0.15824 -0.198668,-0.1726 -0.119164,-0.0117 -0.219913,0.0189 -0.25176,0.0765 -0.08774,0.15879 0.03524,0.29005 0.25176,0.26869 0.145641,-0.0143 0.198668,-0.0604 0.198668,-0.1726 z m -4.983904,5.2569 c -0.0722,-0.0937 -0.07291,-0.14736 -0.0027,-0.19621 0.07032,-0.0489 0.230685,-0.0202 0.586254,0.10489 0.2692,0.0947 0.506696,0.16016 0.527774,0.14551 0.02108,-0.0146 -0.07736,-0.13438 -0.218757,-0.26608 -0.359764,-0.33512 -0.223557,-0.43503 0.310448,-0.22774 0.218504,0.0849 0.422485,0.1367 0.453285,0.11531 0.03081,-0.0215 -0.111973,-0.15776 -0.317285,-0.30306 -0.321898,-0.2278 -0.355101,-0.27466 -0.241156,-0.34034 0.108496,-0.0626 0.199914,-0.0443 0.510971,0.10213 0.750165,0.3531 0.948852,0.29568 0.293485,-0.0847 -0.300276,-0.17433 -0.371194,-0.24751 -0.298685,-0.30819 0.07667,-0.0641 0.138186,-0.0561 0.317536,0.042 0.122345,0.0669 0.276579,0.12153 0.342745,0.12153 0.264606,0 0.09304,-0.24424 -0.401889,-0.57211 -0.501815,-0.33244 -0.540483,-0.34589 -0.99136,-0.34459 -0.754572,0.003 -1.503694,0.2894 -1.805396,0.69225 -0.12347,0.16486 -0.111684,0.19787 0.240333,0.67323 0.32065,0.433 0.65701,0.77528 0.761862,0.77528 0.01748,0 -0.01292,-0.058 -0.06759,-0.12897 z m 12.586149,-1.86013 0.0239,-0.42842 -0.22851,0.19892 c -0.26414,0.22992 -0.61265,0.2685 -0.69995,0.0775 -0.055,-0.12031 -0.0577,-0.12026 -0.3035,0.006 -0.34414,0.1767 -0.57122,0.13373 -0.60577,-0.11462 -0.0249,-0.17926 -0.0451,-0.19199 -0.20815,-0.13138 -0.0993,0.037 -0.27521,0.0545 -0.39096,0.0391 -0.20534,-0.0273 -0.21043,-0.0178 -0.21043,0.39363 v 0.42158 l 1.2998,-0.0169 1.29977,-0.017 z m -2.9759,-0.18169 c 0,-0.38117 -0.0219,-0.45124 -0.13218,-0.42187 -0.24304,0.0648 -0.14509,0.87898 0.10575,0.87898 0.0145,0 0.0265,-0.2057 0.0265,-0.45711 z m 1.85055,-0.30793 c 0.42473,-0.30435 0.71223,-0.27403 0.53153,0.0561 -0.14393,0.26294 0.0608,0.18489 0.34784,-0.13256 0.37442,-0.41412 0.35196,-0.58327 -0.10832,-0.81567 -0.20597,-0.10402 -0.70249,-0.29962 -1.10335,-0.43468 -0.68506,-0.23081 -0.76055,-0.243 -1.2568,-0.203 -0.32013,0.0258 -0.60559,0.0888 -0.72516,0.16004 -0.1968,0.11724 -0.19573,0.11743 0.53001,0.101 0.39996,-0.009 0.72712,-0.0102 0.72699,-0.003 -1e-4,0.008 -0.18169,0.13023 -0.40351,0.27224 -0.34782,0.22267 -0.65414,0.5171 -0.65414,0.62873 0,0.0959 0.27378,0.004 0.72874,-0.24367 0.58686,-0.31998 0.76341,-0.25752 0.37994,0.13443 -0.12511,0.12787 -0.22747,0.28189 -0.22747,0.34226 0,0.10018 0.0212,0.10211 0.24233,0.0222 0.13329,-0.0482 0.33847,-0.15903 0.45597,-0.24639 0.23655,-0.17586 0.25987,-0.18121 0.4416,-0.10134 0.0978,0.043 0.10321,0.0751 0.0239,0.14146 -0.15507,0.12976 -0.38319,0.5355 -0.30108,0.5355 0.0396,0 0.20653,-0.0964 0.37095,-0.21421 z m -1.98273,-0.94864 c 0.0299,-0.0337 0.0124,-0.0611 -0.0388,-0.0611 -0.0513,0 -0.0933,0.0276 -0.0933,0.0611 0,0.0337 0.0175,0.0611 0.0388,0.0611 0.0214,0 0.0633,-0.0276 0.0933,-0.0611 z m -4.467884,-4.3814 c 0.03683,-0.17901 -0.202042,-0.31072 -0.378768,-0.20885 -0.138777,0.08 -0.175913,0.25524 -0.06971,0.329 0.124369,0.0864 0.422421,0.007 0.448482,-0.12015 z m -3.444487,-1.00503 c 0.06109,-0.0838 0.11165,-0.2634 0.112366,-0.39896 6.66e-4,-0.13558 0.06223,-0.30693 0.136706,-0.38077 0.129569,-0.12848 0.121798,-0.13822 -0.180232,-0.22586 -0.173603,-0.0503 -0.552481,-0.20698 -0.841956,-0.34801 l -0.526315,-0.25642 -0.211637,0.13809 c -0.116399,0.0759 -0.26018,0.21948 -0.31951,0.31896 -0.100186,0.168 -0.08665,0.197 0.189925,0.40709 0.879334,0.66792 1.281975,0.93146 1.399148,0.91578 0.07174,-0.01 0.180419,-0.0861 0.241505,-0.1699 z m 5.577171,0.12057 c 0,-0.035 0.14352,-0.28165 0.31893,-0.54818 0.36937,-0.5612 0.35593,-0.70397 -0.0884,-0.93935 l -0.30053,-0.15921 -0.339514,0.18742 c -0.186734,0.10308 -0.398176,0.21024 -0.469867,0.23811 -0.113073,0.0439 -0.110555,0.0658 0.01905,0.16531 0.08214,0.063 0.191964,0.25263 0.244055,0.42131 0.101434,0.3285 0.380416,0.69817 0.526896,0.69817 0.0492,0 0.0894,-0.0286 0.0894,-0.0636 z m -2.877287,-0.64468 0.251015,-0.20979 h -0.449287 c -0.247108,0 -0.449286,0.0164 -0.449286,0.0364 0,0.0608 0.298957,0.39229 0.349455,0.38755 0.02591,-0.003 0.160048,-0.0988 0.298103,-0.21421 z m 0.691954,-0.5836 c 1.340718,-0.19462 2.298733,-0.83535 2.758893,-1.84518 0.30302,-0.66496 0.36004,-1.18867 0.17269,-1.58587 -0.27476,-0.58253 -0.63703,-1.0158 -0.98808,-1.1818 l -0.330957,-0.15649 -0.06106,0.23055 c -0.03359,0.1268 -0.06326,0.32591 -0.06612,0.44247 l -0.0049,0.21191 -0.421601,-0.28842 c -0.231876,-0.15863 -0.449221,-0.28842 -0.482976,-0.28842 -0.03376,0 -0.154282,0.12698 -0.267834,0.28215 l -0.206458,0.28216 -0.463756,-0.43448 c -0.39638,-0.37137 -0.487542,-0.42565 -0.627472,-0.37364 -0.09004,0.0335 -0.188636,0.0889 -0.219094,0.12309 -0.03047,0.0342 -0.270198,0.17246 -0.532759,0.30718 -0.262558,0.1347 -0.683164,0.42328 -0.934674,0.64127 -0.269226,0.23334 -0.525119,0.39634 -0.622218,0.39634 -0.219945,0 -0.397513,-0.30725 -0.47289,-0.81823 -0.03294,-0.22321 -0.08513,-0.40584 -0.116007,-0.40584 -0.03087,0 -0.308689,0.32362 -0.617355,0.71915 -0.30867,0.39551 -0.733956,0.91688 -0.945082,1.15857 -0.211128,0.24169 -0.383867,0.47042 -0.383867,0.50829 0,0.13776 0.747024,0.82801 1.306268,1.20698 0.617342,0.41836 1.532366,0.77687 2.218571,0.86925 0.577462,0.0777 1.769963,0.0772 2.30884,-8.2e-4 z m -1.074376,-0.8874 c -0.48848,-0.0912 -0.694312,-0.1748 -0.59681,-0.24253 0.02921,-0.0203 0.355255,0.01 0.72453,0.0669 0.74845,0.11565 1.272904,0.0677 1.729413,-0.15805 0.273708,-0.13536 0.46506,-0.15501 0.41176,-0.0423 -0.05362,0.11342 -0.573302,0.34189 -0.937481,0.41215 -0.422758,0.0816 -0.747854,0.0727 -1.331412,-0.0362 z m 0.417803,-1.16791 c -0.08482,-0.0153 -0.154212,-0.0683 -0.154212,-0.11746 0,-0.0695 0.03807,-0.0754 0.170452,-0.0261 0.221725,0.0824 0.674867,0.081 0.900343,-0.003 0.239447,-0.089 0.33881,-0.008 0.123889,0.10178 -0.161957,0.0822 -0.704842,0.10552 -1.040472,0.0446 z m -2.149513,-0.78879 c -0.319705,-0.33889 0.222784,-0.71567 0.710718,-0.49363 0.26396,0.12013 0.308995,0.40217 0.08865,0.5552 -0.220339,0.15304 -0.626421,0.12176 -0.799373,-0.0616 z m 3.991874,-0.0904 c -0.138567,-0.0757 -0.234149,-0.18857 -0.234149,-0.27649 0,-0.17997 0.286835,-0.39338 0.528724,-0.39338 0.09693,0 0.255547,0.0551 0.352486,0.12242 0.483934,0.3361 -0.111619,0.83997 -0.647061,0.54745 z m -6.568197,-0.37678 c 0.417835,-0.51464 1.001725,-1.25245 1.297535,-1.639557 0.29581,-0.387113 0.539231,-0.648757 0.540936,-0.581432 0.005,0.196235 0.264606,1.763889 0.29572,1.785499 0.01555,0.0108 0.302678,-0.16618 0.638042,-0.3933 0.335367,-0.22712 0.885665,-0.56878 1.222887,-0.759242 l 0.613131,-0.346294 0.393665,0.367931 0.393668,0.367945 0.171867,-0.23586 c 0.09453,-0.129717 0.187311,-0.24774 0.206188,-0.262269 0.01888,-0.01452 0.164493,0.06121 0.323588,0.168309 0.159099,0.1071 0.312002,0.19473 0.339776,0.19473 0.02779,0 0.07847,-0.19671 0.112533,-0.437129 l 0.06204,-0.437126 0.456069,0.304021 c 0.250827,0.16721 0.556917,0.347055 0.680187,0.399654 0.12327,0.0526 0.35022,0.25708 0.50434,0.45442 l 0.28022,0.3588 0.0162,-0.39782 c 0.0474,-1.16468 -0.12173,-2.120754 -0.45563,-2.575345 -0.53122,-0.723213 -2.771261,-1.467318 -4.716461,-1.566735 -2.928379,-0.149665 -4.697302,1.06283 -5.159074,3.536251 -0.170208,0.911709 0.0366,2.123789 0.460939,2.701479 l 0.187823,0.2557 0.187068,-0.16345 c 0.102888,-0.0899 0.528932,-0.58454 0.946765,-1.09918 z"
       id="path1" />
  </g>
  <metadata
     id="metadata131">
    <rdf:RDF>
      <cc:Work
         rdf:about="">
        <dc:title>plantilla pictogramas</dc:title>
      </cc:Work>
    </rdf:RDF>
  </metadata>
</svg>
