<?xml version="1.0" encoding="UTF-8" standalone="no"?>
<!-- Created with Inkscape (http://www.inkscape.org/) -->

<svg
   width="210mm"
   height="297mm"
   viewBox="0 0 210 297"
   version="1.1"
   id="svg5"
   inkscape:version="1.3.2 (091e20e, 2023-11-25, custom)"
   sodipodi:docname="pictograma_lavarseManos.svg"
   xmlns:inkscape="http://www.inkscape.org/namespaces/inkscape"
   xmlns:sodipodi="http://sodipodi.sourceforge.net/DTD/sodipodi-0.dtd"
   xmlns="http://www.w3.org/2000/svg"
   xmlns:svg="http://www.w3.org/2000/svg"
   xmlns:rdf="http://www.w3.org/1999/02/22-rdf-syntax-ns#"
   xmlns:cc="http://creativecommons.org/ns#"
   xmlns:dc="http://purl.org/dc/elements/1.1/">
  <title
     id="title133">plantilla pictogramas</title>
  <sodipodi:namedview
     id="namedview7"
     pagecolor="#505050"
     bordercolor="#ffffff"
     borderopacity="1"
     inkscape:pageshadow="0"
     inkscape:pageopacity="0"
     inkscape:pagecheckerboard="1"
     inkscape:document-units="mm"
     showgrid="false"
     inkscape:zoom="0.90583674"
     inkscape:cx="288.68337"
     inkscape:cy="468.62749"
     inkscape:window-width="1920"
     inkscape:window-height="1001"
     inkscape:window-x="-9"
     inkscape:window-y="-9"
     inkscape:window-maximized="1"
     inkscape:current-layer="layer1"
     inkscape:showpageshadow="0"
     inkscape:deskcolor="#505050" />
  <defs
     id="defs2" />
  <g
     inkscape:label="Capa 1"
     inkscape:groupmode="layer"
     id="layer1">
    <path
       style="fill:#000000;stroke-width:0.241545"
       d="m 115.47696,128.04813 c -1.06825,-0.47718 -1.72979,-0.67058 -2.94783,-0.86182 -0.58861,-0.0924 -0.78992,-0.0956 -1.79306,-0.0283 -2.01163,0.13497 -6.0966,-0.0907 -6.78984,-0.37501 -0.69984,-0.28706 -2.1457,-0.32992 -3.03833,-0.0901 -0.72061,0.19364 -1.065515,0.19749 -1.35728,0.0151 -0.291774,-0.18234 -0.457065,-0.45555 -0.505636,-0.83578 l -0.03949,-0.3094 -0.472456,0.0354 c -0.481671,0.0361 -0.643878,0.071 -1.630985,0.35102 -0.922852,0.2618 -1.61883,0.35295 -2.956217,0.38721 -1.339784,0.0343 -2.368873,-0.0459 -3.606703,-0.28141 -0.603367,-0.11476 -0.646301,-0.11491 -1.790899,-0.007 -1.699642,0.16077 -3.469318,0.26265 -3.532648,0.20335 -0.08868,-0.083 -0.190195,-0.79289 -0.236156,-1.65135 -0.07111,-1.32817 0.165997,-2.92677 0.588756,-3.96943 l 0.162194,-0.40002 1.619422,-0.0337 c 1.09376,-0.0227 1.711142,-0.0608 1.901984,-0.11757 0.499507,-0.14847 0.739674,-0.40642 1.328794,-1.42724 0.812563,-1.40798 1.100607,-1.69734 2.171552,-2.18144 0.768614,-0.34744 1.238253,-0.70637 1.923454,-1.47006 0.78142,-0.87093 0.897346,-0.96322 1.257108,-1.00084 0.288305,-0.0301 0.303728,-0.0415 0.304304,-0.22374 2.51e-4,-0.1056 0.07473,-1.39668 0.165308,-2.86907 0.09059,-1.47239 0.164973,-2.7505 0.16531,-2.84026 5.02e-4,-0.15318 -0.02305,-0.16574 -0.385325,-0.20473 -0.212262,-0.0229 -0.424348,-0.0635 -0.471302,-0.0905 -0.123469,-0.0707 -0.26876,-0.70638 -0.269964,-1.18105 -0.002,-0.7778 0.337393,-1.98001 0.797967,-2.82681 0.203088,-0.37339 0.791648,-0.92067 1.269239,-1.18021 0.967299,-0.52565 1.742537,-0.55583 3.672489,-0.143 2.81188,0.60153 5.62555,1.3313 6.22224,1.61385 0.44052,0.2086 0.77384,1.06876 0.65552,1.69165 -0.09,0.47373 -0.42327,1.04985 -0.83872,1.44985 l -0.33215,0.31979 -0.79608,-0.21394 c -2.57976,-0.69336 -4.20576,-1.07169 -4.36486,-1.01559 -0.35093,0.12371 -0.60903,0.6971 -0.56802,1.26185 0.018,0.2489 -0.0718,0.341 -0.33425,0.34258 -0.15699,6.4e-4 -0.15716,0.002 -0.11576,0.5702 0.12152,1.66868 0.44253,8.13366 0.408,8.2171 -0.0348,0.0842 -0.0523,0.0855 -0.12748,0.01 -0.0654,-0.066 -0.14001,-1.12307 -0.29936,-4.24192 -0.11673,-2.28473 -0.22739,-4.24545 -0.2459,-4.35715 -0.0279,-0.16828 -0.056,-0.19651 -0.16405,-0.16471 -0.0717,0.0211 -0.876445,0.0382 -1.788277,0.0379 -0.911837,-2.2e-4 -1.659612,0.005 -1.661726,0.0109 -0.002,0.007 -0.08797,1.38212 -0.190783,3.05759 l -0.18694,3.04631 0.160966,0.13842 c 0.239143,0.20566 0.353334,0.51731 0.353334,0.96432 0,0.57261 -0.102942,0.94144 -0.425245,1.52359 -0.275444,0.49751 -0.284876,0.53406 -0.326833,1.26617 -0.02376,0.41464 -0.02105,0.75383 0.006,0.75375 0.02707,-8e-5 0.318001,-0.10693 0.646517,-0.23746 0.328514,-0.1305 0.860207,-0.30353 1.181539,-0.38449 l 0.58424,-0.14718 -0.03568,-0.58464 c -0.01966,-0.32157 -0.05416,-1.55026 -0.0767,-2.73044 -0.03415,-1.78825 -0.02602,-2.1412 0.04873,-2.11818 0.0908,0.0279 0.157401,1.64202 0.180546,4.37544 l 0.0087,1.03459 0.315241,-0.0426 c 0.173376,-0.0234 0.395883,-0.0805 0.494449,-0.12685 0.09857,-0.0463 0.324411,-0.0843 0.501864,-0.0843 0.275388,0 0.342508,-0.0249 0.458218,-0.17004 0.0746,-0.0935 0.30937,-0.25158 0.5218,-0.35124 0.44313,-0.2079 0.49216,-0.20921 2.22137,-0.0593 1.37234,0.11893 2.99747,0.31231 3.57435,0.42534 0.63745,0.1249 1.74422,0.49457 2.41906,0.80797 0.91061,0.42292 1.53,0.84415 2.43957,1.65908 0.81883,0.73365 0.86373,0.76337 1.82782,1.20988 0.54361,0.25177 1.34202,0.59399 1.77425,0.7605 0.4664,0.17967 0.87109,0.37931 0.9955,0.49111 0.29685,0.26675 0.75305,1.15805 0.95213,1.86022 0.22713,0.80118 0.24273,1.98312 0.0371,2.8132 -0.15831,0.63909 -0.38163,1.22119 -0.50491,1.31605 -0.0633,0.0487 -0.34949,-0.0523 -1.10914,-0.39166 z m 1.07851,-0.33949 c 0.36362,-0.99197 0.41804,-2.4995 0.12421,-3.44101 -0.18766,-0.60132 -0.58018,-1.339 -0.83084,-1.56142 -0.11288,-0.10015 -0.59472,-0.33376 -1.09843,-0.53256 -0.49354,-0.19477 -1.27003,-0.53019 -1.72553,-0.74536 -0.76118,-0.35956 -0.89495,-0.45047 -1.65308,-1.12345 -0.45368,-0.40272 -1.03605,-0.87051 -1.29415,-1.03953 -0.92175,-0.6036 -2.44911,-1.21482 -3.56875,-1.42812 -0.71976,-0.13713 -2.41476,-0.32871 -3.96976,-0.44871 -1.33333,-0.10289 -1.38463,-0.10262 -1.65017,0.008 -0.15073,0.063 -0.30638,0.15073 -0.3459,0.19488 -0.0821,0.0918 -0.11108,0.0844 0.93537,0.23894 2.00922,0.29675 4.71205,1.07097 4.71205,1.34976 0,0.15845 -0.1241,0.1676 -0.44722,0.0331 -1.08805,-0.45315 -2.77748,-0.88704 -4.29801,-1.10384 -0.51102,-0.0728 -1.08477,-0.16264 -1.27499,-0.19947 -0.275297,-0.0533 -0.396822,-0.049 -0.59564,0.0211 -0.298029,0.10519 -0.604015,0.479 -0.661646,0.80831 -0.03772,0.21571 -0.02966,0.2298 0.131263,0.2298 0.227549,0 2.538283,0.39414 3.424413,0.58409 0.79026,0.16941 1.57472,0.38291 2.1555,0.58665 0.36858,0.1293 0.40221,0.13148 0.57436,0.0372 0.43589,-0.23876 0.54864,-0.0118 0.12368,0.24901 -0.24664,0.15135 -0.28986,0.15933 -0.48115,0.0888 -1.14867,-0.4233 -2.85109,-0.8178 -4.931254,-1.1427 -1.397221,-0.21822 -1.285128,-0.24255 -1.285128,0.27903 0,0.32129 -0.02187,0.42923 -0.08297,0.41047 -0.05441,-0.0167 -0.08963,-0.18808 -0.102346,-0.49746 -0.01068,-0.25961 -0.02932,-0.47201 -0.04144,-0.47201 -0.01212,0 -0.152307,0.0427 -0.311509,0.0947 -0.775065,0.25357 -0.876245,0.81037 -0.24723,1.3605 0.203304,0.17781 0.278176,0.19943 0.918203,0.26511 2.794274,0.28677 5.513734,0.74021 5.702184,0.95075 0.0365,0.0409 0.0751,0.19732 0.0857,0.3478 0.0168,0.23855 0.003,0.27362 -0.11348,0.27362 -0.10111,0 -0.14064,-0.0513 -0.16592,-0.21527 -0.0285,-0.1847 -0.0691,-0.22615 -0.28574,-0.29186 -0.60883,-0.18461 -2.93721,-0.53638 -5.112101,-0.77232 -0.785218,-0.0852 -0.785379,-0.0852 -0.881656,0.0511 -0.259446,0.36718 -0.22669,0.76971 0.08345,1.02548 0.200822,0.16562 0.842628,0.41711 1.229662,0.48183 0.194649,0.0326 1.130395,0.19693 2.079445,0.36529 0.94905,0.16835 1.99432,0.35073 2.32284,0.4053 0.74123,0.12309 0.83581,0.19084 0.6338,0.45391 -0.28006,0.36471 -0.37561,0.37908 -1.62926,0.24508 -1.04523,-0.11173 -1.14441,-0.11311 -1.48712,-0.0207 -1.09051,0.29397 -1.798078,0.9254 -1.798078,1.6046 0,0.17795 0.03568,0.39615 0.07933,0.48491 0.08579,0.1746 0.364457,0.33675 0.578728,0.33675 h 0.13367 l -0.13335,-0.28847 c -0.269357,-0.58268 -0.226829,-1.13286 0.0937,-1.2126 0.0792,-0.0197 0.38908,-0.0362 0.68875,-0.0367 l 0.54486,-6.5e-4 0.1354,0.4065 c 0.0745,0.22357 0.1354,0.50052 0.1354,0.61542 v 0.20891 h 0.68466 c 0.73843,0 1.39249,0.0857 1.60499,0.21038 0.19489,0.11432 0.40931,0.15334 1.41531,0.2576 1.19749,0.1241 5.20241,0.18993 5.7893,0.0952 0.3406,-0.0549 0.56462,-0.0505 1.09173,0.022 1.44112,0.19821 2.31734,0.44007 3.34327,0.92282 0.38754,0.18236 0.73223,0.32454 0.76597,0.31597 0.0337,-0.009 0.11596,-0.1646 0.1827,-0.34669 z m -15.60796,-1.36382 c 0.27376,-0.0733 0.5237,-0.15415 0.55543,-0.17985 0.0678,-0.0548 -0.065,-0.62287 -0.20577,-0.88062 l -0.0971,-0.17777 -0.50411,0.0395 c -0.28671,0.0225 -0.52678,0.0726 -0.55665,0.11622 -0.0943,0.13767 -0.0574,0.52665 0.083,0.87444 0.0756,0.18743 0.15776,0.34087 0.18251,0.34098 0.0247,10e-5 0.269,-0.0597 0.54276,-0.13293 z m -5.236799,-0.47706 c 0.423166,-0.0679 1.080198,-0.2193 1.460068,-0.33661 0.483473,-0.14932 0.876403,-0.22605 1.309769,-0.25578 l 0.619101,-0.0425 0.198301,-0.29886 c 0.217091,-0.32716 0.535002,-0.58484 1.06975,-0.86706 l 0.34752,-0.1834 -1.004039,0.0365 c -1.002542,0.0364 -1.00411,0.0363 -1.044375,-0.10308 -0.06246,-0.21607 -0.04941,-0.46661 0.02661,-0.51015 0.0378,-0.0217 0.373779,-0.0704 0.746626,-0.10826 0.5254,-0.0533 0.633118,-0.079 0.478804,-0.11385 -0.924918,-0.20898 -1.723777,-0.50759 -2.013897,-0.75277 -0.373921,-0.316 -0.443031,-0.76534 -0.182656,-1.18756 l 0.157868,-0.25601 -0.230849,-0.20556 c -0.680578,-0.60603 -0.628163,-1.26718 0.128167,-1.61667 0.188289,-0.087 0.41114,-0.15821 0.495231,-0.15821 0.141077,0 0.152891,-0.0262 0.152891,-0.33848 0,-0.29526 -0.01661,-0.33848 -0.130212,-0.33848 -0.191902,0 -1.039414,0.25945 -1.718279,0.52601 l -0.594379,0.23338 -0.05613,0.40012 c -0.07995,0.56989 -0.222047,0.57944 -0.222047,0.0149 0,-0.37385 -0.01653,-0.43603 -0.116143,-0.43666 -0.06388,-4.6e-4 -0.239679,-0.0663 -0.39067,-0.14632 l -0.27453,-0.14557 -0.07254,0.33493 c -0.08327,0.38448 -0.473544,1.10934 -0.706595,1.31237 -0.293927,0.25605 -0.50446,0.007 -0.223565,-0.26488 0.192497,-0.18605 0.589245,-0.95875 0.590271,-1.14959 5.01e-4,-0.0856 0.147569,-0.46022 0.326908,-0.83255 0.257172,-0.5339 0.372694,-0.70455 0.546693,-0.80751 0.431579,-0.25538 0.440406,-0.27897 0.515641,-1.37866 0.03816,-0.5577 0.06808,-1.15246 0.0665,-1.3217 l -0.0029,-0.30771 -0.197258,0.35438 c -0.219388,0.39415 -0.637509,0.7226 -0.919878,0.7226 -0.127276,0 -0.290637,0.10968 -0.603935,0.40551 -0.508398,0.48002 -0.952369,0.76666 -1.735836,1.1207 -0.741144,0.33491 -1.067357,0.66948 -1.672385,1.71521 -0.968656,1.67422 -1.138888,1.80134 -2.58817,1.93259 -0.405858,0.0369 -1.125762,0.0578 -1.599788,0.0466 l -0.861865,-0.0203 -0.149952,0.38909 c -0.360854,0.93634 -0.445295,1.53091 -0.447294,3.14955 -0.0011,0.82927 0.02222,1.58807 0.05166,1.6862 l 0.05353,0.17844 0.822632,-0.0408 c 0.452447,-0.0225 1.309379,-0.0862 1.904293,-0.14169 1.477707,-0.13785 1.888003,-0.13404 2.774014,0.0257 1.580736,0.28504 3.45683,0.31648 4.917323,0.0824 z m 8.156659,-2.0211 c -1.6e-4,-0.0254 -0.59,-0.14699 -1.31074,-0.27021 l -1.31047,-0.22404 -0.9955,0.10375 -0.995501,0.10376 1.194591,-0.002 c 0.86466,-0.002 1.2496,0.0209 1.39371,0.0811 0.35862,0.14971 2.02459,0.32067 2.02391,0.20771 z m -8.132321,-5.26182 c 0.01818,-0.0761 0.04115,-0.36328 0.05104,-0.63805 l 0.01799,-0.49957 -0.154891,0.0656 c -0.140496,0.0596 -0.383367,0.42364 -0.544146,0.81577 -0.0544,0.13267 -0.03543,0.16658 0.152545,0.27287 0.282693,0.15984 0.436623,0.15447 0.477459,-0.0167 z m 3.155035,-0.46157 c 1.27e-4,-0.0359 -0.173088,-0.009 -0.256043,0.0395 -0.06653,0.039 -0.07746,0.12282 -0.04178,0.3188 l 0.04839,0.26581 0.124652,-0.30435 c 0.06856,-0.1674 0.124678,-0.31129 0.124703,-0.31975 z m -2.546446,-1.96933 c 0.238469,-0.60498 0.264292,-1.3029 0.05878,-1.58864 l -0.129955,-0.18068 -0.04412,0.33848 c -0.06135,0.47068 -0.138464,1.90779 -0.102366,1.90779 0.0163,0 0.114266,-0.21463 0.217668,-0.47695 z m -1.119654,-1.16657 c 0.258491,-0.17724 0.538315,-0.63352 0.388527,-0.63352 -0.0521,0 -0.222656,0.14539 -0.379024,0.32309 -0.156368,0.1777 -0.3292,0.37275 -0.384069,0.43345 -0.09108,0.10074 -0.08854,0.10665 0.02925,0.0678 0.07095,-0.0234 0.22635,-0.10925 0.345318,-0.19084 z m 5.266666,-7.4316 c 0.0755,-0.0281 0.1179,-0.14863 0.1432,-0.40749 0.0674,-0.68897 0.50879,-1.22563 1.0081,-1.22563 0.17637,0 2.93399,0.67436 4.49549,1.09936 l 0.4447,0.12105 0.26459,-0.26618 c 0.61556,-0.61925 0.8281,-1.42378 0.54013,-2.04454 -0.0807,-0.174 -0.19628,-0.35715 -0.25679,-0.40697 -0.3187,-0.26248 -3.0722,-0.99288 -6.31529,-1.6752 -1.206513,-0.25384 -1.424383,-0.28285 -1.924637,-0.25629 -0.841371,0.0447 -1.502015,0.32903 -2.1409,0.92147 -0.665117,0.61676 -1.271732,2.56333 -1.116197,3.58177 0.03532,0.23122 0.0887,0.4431 0.118638,0.47086 0.114226,0.10593 1.376685,0.16912 2.972541,0.1488 0.912536,-0.0116 1.707435,-0.039 1.766425,-0.061 z m -0.632086,7.89045 c -0.0689,-0.51166 -0.389814,-7.12664 -0.347659,-7.16573 0.02365,-0.0219 0.065,-0.0193 0.09212,0.006 0.04653,0.0431 0.403515,6.11992 0.411575,7.00601 0.004,0.4601 -0.100867,0.56368 -0.156032,0.15385 z m -2.658201,-2.88524 c 0.104922,-3.71489 0.126423,-4.13477 0.213114,-4.16143 0.09929,-0.0305 0.099,0.1109 -0.007,3.45686 -0.06055,1.91064 -0.09406,2.4007 -0.165642,2.42273 -0.07476,0.023 -0.08151,-0.26372 -0.04043,-1.71816 z"
       id="path2" />
  </g>
  <metadata
     id="metadata131">
    <rdf:RDF>
      <cc:Work
         rdf:about="">
        <dc:title>plantilla pictogramas</dc:title>
      </cc:Work>
    </rdf:RDF>
  </metadata>
</svg>
