<?xml version="1.0" encoding="UTF-8" standalone="no"?>
<!-- Created with Inkscape (http://www.inkscape.org/) -->

<svg
   width="210mm"
   height="297mm"
   viewBox="0 0 210 297"
   version="1.1"
   id="svg5"
   inkscape:version="1.3.2 (091e20e, 2023-11-25, custom)"
   sodipodi:docname="pictograma_dormir.svg"
   xmlns:inkscape="http://www.inkscape.org/namespaces/inkscape"
   xmlns:sodipodi="http://sodipodi.sourceforge.net/DTD/sodipodi-0.dtd"
   xmlns="http://www.w3.org/2000/svg"
   xmlns:svg="http://www.w3.org/2000/svg"
   xmlns:rdf="http://www.w3.org/1999/02/22-rdf-syntax-ns#"
   xmlns:cc="http://creativecommons.org/ns#"
   xmlns:dc="http://purl.org/dc/elements/1.1/">
  <title
     id="title133">plantilla pictogramas</title>
  <sodipodi:namedview
     id="namedview7"
     pagecolor="#505050"
     bordercolor="#ffffff"
     borderopacity="1"
     inkscape:pageshadow="0"
     inkscape:pageopacity="0"
     inkscape:pagecheckerboard="1"
     inkscape:document-units="mm"
     showgrid="false"
     inkscape:zoom="0.90583674"
     inkscape:cx="367.06394"
     inkscape:cy="531.55274"
     inkscape:window-width="1920"
     inkscape:window-height="1001"
     inkscape:window-x="-9"
     inkscape:window-y="-9"
     inkscape:window-maximized="1"
     inkscape:current-layer="layer1"
     inkscape:showpageshadow="0"
     inkscape:deskcolor="#505050" />
  <defs
     id="defs2" />
  <g
     inkscape:label="Capa 1"
     inkscape:groupmode="layer"
     id="layer1">
    <path
       style="fill:#000000;stroke-width:0.264619"
       d="m 91.779597,120.53701 c -6.131818,-4.53664 -8.960028,-6.66905 -8.989658,-6.77805 -0.05154,-0.18955 0.07631,-0.36797 0.263654,-0.36797 0.07409,0 0.37061,0.17573 0.65895,0.3905 0.28834,0.21478 0.566449,0.40682 0.618019,0.42675 0.05157,0.02 0.519406,-0.10773 1.039633,-0.28369 1.801408,-0.6093 3.624166,-1.00906 4.954334,-1.08653 l 0.760437,-0.0442 -2.41708,-2.30546 c -1.329394,-1.268 -2.447127,-2.362 -2.483851,-2.43111 -0.13939,-0.26234 0.54542,-2.00313 1.334582,-3.39252 1.757593,-3.09441 4.268825,-5.714377 7.62644,-7.956655 1.44151,-0.962666 2.275465,-1.445706 2.495965,-1.445706 0.302972,0 1.186857,0.348086 1.862944,0.73366 1.407514,0.802702 2.815174,1.879584 6.558854,5.017631 2.91458,2.44308 3.8067,3.13691 4.49751,3.49787 1.47382,0.77008 2.4591,1.4572 3.34047,2.32954 0.92502,0.91555 1.51013,1.87562 1.51013,2.47784 0,0.64628 -1.99554,4.10548 -3.67801,6.37571 -1.03848,1.40126 -1.95232,2.4593 -3.26073,3.77526 -1.27532,1.28269 -2.13125,2.03038 -3.23171,2.82302 l -0.60779,0.43779 -0.65316,-0.0341 c -1.01841,-0.0532 -1.78328,-0.37416 -2.71637,-1.13967 -0.20748,-0.1702 -0.40214,-0.28271 -0.43259,-0.25001 -0.42004,0.45113 -2.650862,3.07611 -2.650862,3.11921 0,0.0323 0.659136,0.54266 1.464746,1.13437 0.948566,0.69669 1.479886,1.13188 1.507686,1.23486 0.0528,0.19581 -0.0792,0.36918 -0.2777,0.36441 -0.0832,-0.003 -4.07542,-2.90898 -9.094843,-6.6226 z m 12.324173,1.4089 c 0.0336,-0.0869 0.22522,-0.6324 0.42585,-1.2121 0.8043,-2.32395 1.877,-4.12674 3.60157,-6.05287 1.071,-1.19615 4.11248,-3.77882 6.18099,-5.24858 0.22063,-0.15676 0.40114,-0.33135 0.40114,-0.38798 0,-0.16197 -0.33346,-0.70343 -0.75889,-1.23226 -0.70984,-0.88237 -1.87711,-1.76407 -3.49684,-2.64136 -1.01787,-0.5513 -1.58556,-0.98241 -4.38502,-3.33008 -4.96719,-4.165577 -6.679466,-5.40923 -8.044075,-5.842488 l -0.377712,-0.119921 -0.799409,0.475249 c -1.093399,0.650036 -2.373271,1.542803 -3.415487,2.382463 -1.056014,0.850763 -2.760508,2.552837 -3.540672,3.535617 -1.223455,1.54121 -2.433189,3.62255 -2.91194,5.00998 l -0.183145,0.53076 0.68436,0.66899 c 0.376398,0.36794 1.26513,1.21802 1.974959,1.88907 0.709829,0.67103 1.502003,1.42622 1.760387,1.67818 l 0.469789,0.45809 -0.239456,-0.6748 c -0.347155,-0.97832 -0.479874,-1.76171 -0.479874,-2.83253 0,-2.28395 0.829207,-4.30125 2.426745,-5.90379 1.073808,-1.07717 2.327125,-1.80193 3.785493,-2.18907 0.902589,-0.2396 2.526114,-0.30432 3.474807,-0.13852 3.57294,0.62444 6.32059,3.53078 6.80832,7.20154 0.24418,1.83774 -0.27816,4.11175 -1.28219,5.58206 -0.0928,0.13583 -0.11223,0.22182 -0.0636,0.28106 0.27857,0.33959 0.0689,1.29064 -0.57575,2.61146 -0.71275,1.46034 -1.44928,2.19906 -2.55079,2.55841 -0.18081,0.059 -0.43264,0.3001 -0.97035,0.92905 l -0.72618,0.8494 0.20296,0.16784 c 0.76571,0.63314 1.4345,0.98022 2.08653,1.08281 0.19185,0.0302 0.37304,0.0589 0.40264,0.0637 0.0296,0.005 0.0813,-0.0623 0.11487,-0.14933 z m 1.78464,-0.94309 c 0.92466,-0.74749 2.59055,-2.37137 3.51975,-3.431 1.6686,-1.90279 3.09041,-3.92392 4.37464,-6.21856 0.60808,-1.0865 0.6645,-1.19452 0.62389,-1.19452 -0.0556,0 -2.20018,1.67892 -3.00707,2.35415 -1.09767,0.91855 -2.31502,2.05102 -2.85308,2.65418 -1.1062,1.23999 -2.23392,2.90883 -2.7646,4.09115 -0.25068,0.55849 -0.79887,2.00657 -0.87404,2.30879 -0.0451,0.18144 -0.0373,0.19382 0.0816,0.12847 0.0724,-0.0398 0.47685,-0.35149 0.89891,-0.69266 z m -8.611173,-1.3613 c 0.381253,-0.27227 0.691007,-0.51733 0.688344,-0.54457 -0.0026,-0.0272 -0.434317,-0.42086 -0.959228,-0.8747 -0.524913,-0.45384 -1.145711,-0.99794 -1.379547,-1.20912 l -0.425158,-0.38396 0.257381,0.64699 c 0.337163,0.84754 0.976628,2.6639 0.976628,2.77405 0,0.15927 0.144625,0.089 0.84158,-0.40869 z m 2.038598,-1.4373 c 0.547735,-0.38207 0.604544,-0.443 0.60615,-0.64996 l 0.0017,-0.22837 H 99.20348 c -0.786913,0 -1.805895,-0.15092 -2.393279,-0.35447 -0.206042,-0.0714 -0.37462,-0.11892 -0.37462,-0.1056 0,0.0284 1.446,1.31172 1.843225,1.63573 0.15047,0.12274 0.309358,0.20091 0.353082,0.17372 0.04367,-0.0273 0.351468,-0.23917 0.683877,-0.47105 z m 3.500065,-0.0127 c 0.68509,-0.24001 1.31252,-0.81613 1.75319,-1.60979 0.29618,-0.53347 0.81985,-1.78491 0.76853,-1.8366 -0.0209,-0.021 -0.23098,0.14186 -0.46696,0.36192 -0.64379,0.60034 -1.3232,1.05353 -2.2909,1.52809 -1.28822,0.63175 -1.49434,0.71537 -1.44515,0.58624 0.0478,-0.12535 0.0386,-0.12711 -0.19476,-0.0377 -0.14915,0.0572 -0.17858,0.1127 -0.17672,0.33376 0.002,0.14589 0.0404,0.31505 0.0872,0.37593 0.33779,0.43991 1.19141,0.56942 1.96558,0.29819 z m -2.32518,-2.24167 c 2.94304,-0.56232 5.16802,-2.8332 5.669,-5.78591 0.26111,-1.53886 0.0302,-3.0103 -0.69549,-4.43258 -0.97935,-1.91938 -2.81583,-3.28688 -4.9596,-3.69309 -0.836195,-0.15844 -2.271522,-0.10777 -3.057423,0.10794 -1.149669,0.31557 -2.164284,0.89855 -3.060865,1.75872 -1.239523,1.1892 -1.969453,2.70332 -2.128159,4.41451 -0.295608,3.18729 1.55507,6.172 4.523237,7.29495 1.148171,0.4344 2.535081,0.55981 3.7093,0.33546 z m -1.892435,-1.30094 c -0.830808,-0.16342 -1.667426,-0.81039 -2.179795,-1.68566 -0.301745,-0.51547 -0.38889,-0.85856 -0.258321,-1.01702 0.108035,-0.13111 0.41544,-0.10631 0.489028,0.0394 0.02926,0.058 0.142305,0.29439 0.251203,0.52539 0.272029,0.57703 0.870069,1.1692 1.393381,1.37973 0.5442,0.21892 1.58713,0.2238 2.236879,0.0104 0.38633,-0.12685 0.44819,-0.13094 0.57951,-0.0382 0.66247,0.46737 -1.18798,1.04634 -2.511885,0.78592 z m 4.659565,-2.47705 c -0.60204,-0.1699 -1.17385,-0.68437 -1.51186,-1.36033 -0.1726,-0.34516 -0.18918,-0.6011 -0.0467,-0.72024 0.18153,-0.15173 0.34256,-0.0446 0.57714,0.38409 0.31764,0.58047 0.76198,0.98163 1.20622,1.08897 0.19384,0.0469 0.41924,0.0676 0.50089,0.0461 0.32991,-0.087 0.55622,0.30188 0.30026,0.51584 -0.15453,0.12918 -0.65156,0.15128 -1.02601,0.0456 z m -4.751115,-2.68074 c -0.754852,-0.20901 -1.79203,-0.95087 -1.79203,-1.2818 0,-0.329 0.373255,-0.39736 0.63314,-0.11595 0.498112,0.53936 1.299899,0.87086 2.106307,0.87086 0.540333,0 0.678888,0.0645 0.678888,0.3162 0,0.0811 -0.0377,0.1855 -0.0838,0.23188 -0.111992,0.11281 -1.108044,0.0991 -1.542592,-0.0213 z"
       id="path1" />
  </g>
  <metadata
     id="metadata131">
    <rdf:RDF>
      <cc:Work
         rdf:about="">
        <dc:title>plantilla pictogramas</dc:title>
      </cc:Work>
    </rdf:RDF>
  </metadata>
</svg>
