<?xml version="1.0" encoding="UTF-8" standalone="no"?>
<!-- Created with Inkscape (http://www.inkscape.org/) -->

<svg
   width="210mm"
   height="297mm"
   viewBox="0 0 210 297"
   version="1.1"
   id="svg5"
   inkscape:version="1.3.2 (091e20e, 2023-11-25, custom)"
   sodipodi:docname="pictograma_amor.svg"
   xmlns:inkscape="http://www.inkscape.org/namespaces/inkscape"
   xmlns:sodipodi="http://sodipodi.sourceforge.net/DTD/sodipodi-0.dtd"
   xmlns="http://www.w3.org/2000/svg"
   xmlns:svg="http://www.w3.org/2000/svg"
   xmlns:rdf="http://www.w3.org/1999/02/22-rdf-syntax-ns#"
   xmlns:cc="http://creativecommons.org/ns#"
   xmlns:dc="http://purl.org/dc/elements/1.1/">
  <title
     id="title133">plantilla pictogramas</title>
  <sodipodi:namedview
     id="namedview7"
     pagecolor="#505050"
     bordercolor="#ffffff"
     borderopacity="1"
     inkscape:pageshadow="0"
     inkscape:pageopacity="0"
     inkscape:pagecheckerboard="1"
     inkscape:document-units="mm"
     showgrid="false"
     inkscape:zoom="0.90583674"
     inkscape:cx="402.39039"
     inkscape:cy="356.02442"
     inkscape:window-width="1920"
     inkscape:window-height="1001"
     inkscape:window-x="-9"
     inkscape:window-y="-9"
     inkscape:window-maximized="1"
     inkscape:current-layer="layer1"
     inkscape:showpageshadow="0"
     inkscape:deskcolor="#505050" />
  <defs
     id="defs2" />
  <g
     inkscape:label="Capa 1"
     inkscape:groupmode="layer"
     id="layer1">
    <path
       style="fill:#000000;stroke-width:0.212694"
       d="m 90.049548,121.8015 v -0.78914 l -0.416562,-0.0944 c -1.660449,-0.37631 -3.223685,-1.62668 -4.018531,-3.21426 -1.483761,-2.96358 -0.176806,-6.55231 2.907565,-7.98377 3.588972,-1.66565 7.832771,0.23724 8.835218,3.96166 0.09405,0.34945 0.124885,0.65729 0.139703,1.39502 0.01894,0.9429 0.01969,0.94763 0.191029,1.2068 0.359569,0.54391 0.465465,1.17477 0.254212,1.51443 -0.113677,0.18278 -0.177422,0.22389 -0.76798,0.4953 -0.485749,0.22324 -0.720089,0.39854 -0.940693,0.70371 -0.525947,0.72756 -1.142491,1.25637 -1.879009,1.61161 -0.558076,0.26917 -1.112941,0.41879 -1.875146,0.50564 l -0.591185,0.0674 v 0.70459 0.70459 h -0.91931 -0.919311 z m 2.35724,-1.63613 c 1.304507,-0.14785 2.303379,-0.70956 2.968474,-1.66928 0.291502,-0.42063 0.72725,-0.76592 1.324922,-1.04986 0.197509,-0.0938 0.359107,-0.19428 0.359107,-0.22322 0,-0.0715 -0.335513,-0.64313 -0.451998,-0.77013 -0.07931,-0.0864 -0.09448,-0.2615 -0.09792,-1.12993 -0.0047,-1.19393 -0.08419,-1.56928 -0.509223,-2.40557 -0.680663,-1.33923 -1.894979,-2.30111 -3.412815,-2.70332 -0.44694,-0.11844 -1.744664,-0.16846 -2.20455,-0.085 -2.096064,0.3805 -3.688251,1.79039 -4.221412,3.73808 -0.208872,0.76304 -0.210006,1.74287 -0.0029,2.49896 0.712015,2.59925 3.245316,4.1396 6.248299,3.79924 z m 1.38895,-4.25506 c -0.125793,-0.12067 -0.07182,-0.25278 0.195521,-0.47852 0.325988,-0.27526 0.788102,-0.44747 1.200815,-0.44747 0.253031,0 0.323433,0.0208 0.373336,0.11024 0.112178,0.20108 -0.01279,0.31152 -0.38963,0.34429 -0.374908,0.0326 -0.717038,0.17811 -0.92753,0.39444 -0.148584,0.15271 -0.339702,0.18523 -0.452512,0.077 z m 12.111912,5.97091 v -0.70942 l -0.47215,-0.0395 c -1.63415,-0.13674 -2.95543,-0.85438 -3.82486,-2.07742 -0.24065,-0.33853 -0.50806,-0.53445 -1.1312,-0.82879 -0.38004,-0.17951 -0.544225,-0.29051 -0.624334,-0.4221 -0.212213,-0.34857 -0.108149,-0.97466 0.252744,-1.52055 0.17151,-0.25945 0.17206,-0.26295 0.18973,-1.20682 0.0151,-0.80815 0.0394,-1.02416 0.16566,-1.47679 0.68169,-2.44308 2.81984,-4.18653 5.47007,-4.46025 1.874,-0.19355 3.83519,0.51521 5.15479,1.86295 2.67807,2.73513 2.13235,7.10027 -1.14374,9.14882 -0.57961,0.36244 -1.22074,0.63811 -1.78153,0.76601 l -0.41655,0.095 v 0.78913 0.78914 h -0.91932 -0.91931 z m 1.03423,-1.71745 c 1.95997,-0.19706 3.45694,-1.18464 4.33614,-2.86063 0.5195,-0.99034 0.65953,-2.32898 0.35857,-3.42786 -0.41535,-1.51653 -1.44548,-2.69432 -2.93545,-3.35622 -0.67706,-0.30077 -1.1079,-0.39411 -1.96241,-0.42515 -0.57258,-0.0207 -0.86353,-0.005 -1.23532,0.0678 -1.99453,0.38948 -3.539,1.78998 -4.09066,3.70933 -0.10245,0.35645 -0.12263,0.58366 -0.12617,1.42041 -0.004,0.97855 -0.007,0.9999 -0.15438,1.21382 -0.17366,0.25185 -0.39567,0.65856 -0.39567,0.72489 0,0.025 0.1616,0.12226 0.35911,0.21609 0.56937,0.27049 1.04669,0.6392 1.27953,0.98837 0.90529,1.3576 2.44891,1.94209 4.56671,1.72917 z m -3.39431,-4.33048 c -0.21049,-0.21633 -0.55262,-0.36183 -0.92753,-0.39444 -0.37683,-0.0327 -0.50181,-0.14321 -0.38963,-0.34429 0.0839,-0.15038 0.57586,-0.14947 0.99743,0.002 0.34837,0.12504 0.84119,0.50774 0.84119,0.65324 0,0.25054 -0.31061,0.30037 -0.52146,0.0837 z m -12.722353,-8.12071 c -1.060289,-0.36281 -1.909369,-1.0238 -2.295368,-1.78689 -0.510635,-1.00949 -0.379478,-1.92677 0.323553,-2.26284 0.476419,-0.22774 0.90161,-0.17848 1.435779,0.16636 0.166683,0.1076 0.311856,0.17033 0.322608,0.13938 0.01076,-0.0309 0.107475,-0.16672 0.214952,-0.30175 0.249679,-0.31368 0.691941,-0.53294 1.074999,-0.53294 0.666079,0 1.073551,0.44529 1.206159,1.31807 0.124641,0.82036 -0.183447,1.72961 -0.84789,2.50235 -0.350446,0.40757 -0.911619,0.86655 -1.052225,0.86061 -0.05241,-0.002 -0.224561,-0.0483 -0.382567,-0.10233 z m 16.638433,-0.78128 c -0.73798,-0.47276 -1.25114,-1.25732 -1.3099,-2.00274 -0.0714,-0.90589 0.30545,-1.46395 0.98866,-1.46395 0.33095,0 0.66445,0.1595 0.86751,0.41489 l 0.1554,0.19545 0.12164,-0.10963 c 0.2941,-0.26504 0.90668,-0.36315 1.23879,-0.19839 0.68109,0.33787 0.61136,1.61349 -0.133,2.43276 -0.26012,0.28629 -0.89441,0.70447 -1.28343,0.84611 l -0.29769,0.1084 z m -8.743908,-0.48296 c -0.448335,-0.3271 -1.166637,-1.02095 -1.519715,-1.46798 -0.319143,-0.40406 -0.848886,-1.42455 -0.972817,-1.87401 -0.05016,-0.18189 -0.106777,-0.60404 -0.125823,-0.9381 -0.05794,-1.01597 0.177756,-1.84968 0.66679,-2.358627 0.894579,-0.931003 2.512266,-0.529579 3.171079,0.786887 l 0.189494,0.37867 0.35658,-0.31999 c 1.11593,-1.001408 2.58937,-0.900207 3.18656,0.21886 0.10493,0.19659 0.13719,0.36236 0.15562,0.79922 0.0616,1.45905 -0.70029,2.85712 -2.11366,3.87877 -0.67351,0.48685 -2.140189,1.16455 -2.520317,1.16455 -0.05836,0 -0.271569,-0.12072 -0.473791,-0.26825 z"
       id="path1" />
  </g>
  <metadata
     id="metadata131">
    <rdf:RDF>
      <cc:Work
         rdf:about="">
        <dc:title>plantilla pictogramas</dc:title>
      </cc:Work>
    </rdf:RDF>
  </metadata>
</svg>
