<?xml version="1.0" encoding="UTF-8" standalone="no"?>
<!-- Created with Inkscape (http://www.inkscape.org/) -->

<svg
   width="210mm"
   height="297mm"
   viewBox="0 0 210 297"
   version="1.1"
   id="svg5"
   inkscape:version="1.3.2 (091e20e, 2023-11-25, custom)"
   sodipodi:docname="pictograma_cepillarse.svg"
   xmlns:inkscape="http://www.inkscape.org/namespaces/inkscape"
   xmlns:sodipodi="http://sodipodi.sourceforge.net/DTD/sodipodi-0.dtd"
   xmlns="http://www.w3.org/2000/svg"
   xmlns:svg="http://www.w3.org/2000/svg"
   xmlns:rdf="http://www.w3.org/1999/02/22-rdf-syntax-ns#"
   xmlns:cc="http://creativecommons.org/ns#"
   xmlns:dc="http://purl.org/dc/elements/1.1/">
  <title
     id="title133">plantilla pictogramas</title>
  <sodipodi:namedview
     id="namedview7"
     pagecolor="#505050"
     bordercolor="#ffffff"
     borderopacity="1"
     inkscape:pageshadow="0"
     inkscape:pageopacity="0"
     inkscape:pagecheckerboard="1"
     inkscape:document-units="mm"
     showgrid="false"
     inkscape:zoom="1.2810466"
     inkscape:cx="332.9309"
     inkscape:cy="445.33899"
     inkscape:window-width="1920"
     inkscape:window-height="1001"
     inkscape:window-x="-9"
     inkscape:window-y="-9"
     inkscape:window-maximized="1"
     inkscape:current-layer="layer1"
     inkscape:showpageshadow="0"
     inkscape:deskcolor="#505050" />
  <defs
     id="defs2" />
  <g
     inkscape:label="Capa 1"
     inkscape:groupmode="layer"
     id="layer1">
    <path
       style="fill:#000000;stroke-width:0.224547"
       d="m 98.843695,123.1216 c -2.601648,-0.29417 -4.873754,-1.40896 -6.695563,-3.28513 -0.333412,-0.34335 -0.614567,-0.61449 -0.624789,-0.6025 -0.01024,0.012 -0.130091,0.21076 -0.266379,0.44174 -0.531873,0.9014 -0.990243,1.37303 -1.638218,1.68562 -0.439313,0.21192 -1.101345,0.25743 -1.761289,0.12108 -0.696242,-0.14386 -2.514555,-0.72604 -2.709325,-0.86747 -0.222566,-0.16161 -0.602006,-0.58693 -0.765583,-0.85817 -0.159357,-0.26424 -0.365113,-0.85616 -0.365113,-1.05036 0,-0.13184 -0.02197,-0.1406 -0.353007,-0.1406 h -0.353006 v -0.41696 -0.41696 l 0.335762,-0.018 0.335763,-0.018 0.09558,-0.27317 c 0.261245,-0.74658 0.872883,-1.54712 1.366812,-1.78895 0.245174,-0.12003 1.196955,-0.24717 3.219464,-0.43007 0.404188,-0.0365 0.741907,-0.0736 0.750481,-0.0824 0.0086,-0.008 -0.03645,-0.22946 -0.10006,-0.49049 -0.311769,-1.27934 -0.375854,-3.14252 -0.152516,-4.43423 0.641323,-3.70918 3.008608,-6.81174 6.350804,-8.32334 2.217764,-1.00304 4.796787,-1.2134 7.183407,-0.58591 3.07005,0.80719 5.67196,3.00093 7.06078,5.95317 1.65995,3.52857 1.38456,7.65387 -0.73,10.93495 -0.39831,0.61805 -0.76452,1.06941 -1.40483,1.73147 -1.59195,1.64607 -3.58891,2.69962 -5.87802,3.1011 -0.8069,0.14152 -2.178828,0.19521 -2.901156,0.11354 z m 2.971135,-1.49568 c 3.82354,-0.82256 6.67791,-3.74132 7.51017,-7.67966 0.18042,-0.85368 0.19697,-2.85214 0.0306,-3.68964 -0.98432,-4.95449 -5.23554,-8.2898 -10.123889,-7.94275 -4.43957,0.3152 -8.082096,3.73732 -8.77345,8.2426 -0.150303,0.97946 -0.09603,2.68925 0.114285,3.59977 0.209122,0.9054 0.31136,1.20522 0.54293,1.59221 0.109377,0.18278 0.318407,0.61316 0.464517,0.9564 0.146108,0.34323 0.332462,0.71338 0.414122,0.82256 l 0.148469,0.19848 h 1.738914 c 1.485099,0 1.734193,-0.0125 1.706573,-0.086 -0.01779,-0.0472 -0.04996,-0.24484 -0.07152,-0.43905 -0.148485,-1.33832 0.958018,-2.76117 2.687575,-3.45594 1.458655,-0.58595 2.911484,-0.42075 4.316734,0.49086 0.59278,0.38455 0.87722,0.63715 1.18611,1.05328 0.89932,1.21156 0.84877,2.52127 -0.14032,3.6358 -0.85555,0.96405 -2.41099,1.68071 -3.647786,1.68071 -1.150297,0 -2.676427,-0.71127 -3.53557,-1.6478 L 96.02369,118.5658 h -1.59054 c -0.874799,0 -1.590542,0.0225 -1.590542,0.0499 0,0.0274 0.138996,0.18389 0.30888,0.34772 1.622158,1.56433 3.471932,2.4873 5.574558,2.78152 0.660963,0.0925 2.420914,0.0247 3.088804,-0.11899 z m -7.785296,-10.63823 c -0.173968,-0.18883 -0.171377,-0.51854 0.0054,-0.68789 0.110327,-0.1057 0.374084,-0.16656 1.528838,-0.35279 l 1.395507,-0.22507 0.159484,0.12142 c 0.08771,0.0668 0.177405,0.18976 0.199311,0.27328 0.05697,0.21723 -0.0776,0.49759 -0.276465,0.57599 -0.196419,0.0774 -2.408019,0.43391 -2.691983,0.43391 -0.124804,0 -0.237017,-0.0487 -0.320098,-0.13885 z m 9.287816,-0.19058 c -1.24371,-0.18635 -1.32946,-0.2074 -1.45615,-0.35759 -0.15699,-0.18611 -0.17145,-0.37255 -0.0434,-0.55905 0.18846,-0.27438 0.24349,-0.27657 1.72158,-0.0687 1.2263,0.17247 1.40554,0.21156 1.52406,0.33242 0.25602,0.26106 0.0886,0.75832 -0.27752,0.82437 -0.0809,0.0146 -0.74178,-0.0626 -1.46863,-0.17146 z m -13.963958,9.90222 c 0.542109,-0.25738 0.989764,-0.77401 1.539852,-1.77713 l 0.182915,-0.33356 -0.29886,-0.47636 c -0.302252,-0.48178 -0.918557,-1.69895 -1.039746,-2.05345 -0.06298,-0.1842 -0.07973,-0.19278 -0.377839,-0.19335 -0.171566,-2.3e-4 -1.000302,0.0695 -1.841634,0.15507 -1.758555,0.17896 -1.90121,0.22314 -2.274324,0.70446 -0.380986,0.49149 -0.535096,0.85515 -0.566006,1.33562 -0.0466,0.7243 0.278617,1.53416 0.763609,1.90157 0.182813,0.13849 1.340102,0.53318 2.253224,0.76845 0.623055,0.16053 1.28087,0.14811 1.658809,-0.0313 z m 10.975868,-0.79216 c 0.20982,-0.0354 0.22063,-0.0484 0.22063,-0.26502 0,-0.3089 -0.12702,-0.42734 -0.43378,-0.40449 -0.241483,0.018 -0.242913,0.0195 -0.261234,0.27992 -0.03088,0.43894 0.0053,0.46865 0.474384,0.38959 z m -1.048913,-0.34104 c 0.05631,-0.38293 0.0077,-0.46037 -0.288656,-0.46037 -0.28977,0 -0.391097,0.0919 -0.403899,0.36657 -0.0077,0.16557 0.01753,0.19977 0.19707,0.26706 0.380101,0.14245 0.452795,0.11703 0.495485,-0.17326 z m 2.124533,0.0526 c 0.17723,-0.0755 0.20404,-0.11427 0.20404,-0.29507 0,-0.33852 -0.0412,-0.39471 -0.2453,-0.33501 -0.26777,0.0783 -0.34305,0.16924 -0.34305,0.41439 0,0.33021 0.0498,0.3582 0.38431,0.21569 z M 98.107561,119.288 c 0.05519,-0.1773 -0.06195,-0.34431 -0.296956,-0.4234 -0.233963,-0.0787 -0.231357,-0.0796 -0.285116,0.099 -0.03151,0.10474 0.0071,0.15585 0.21332,0.28263 0.305987,0.1881 0.322611,0.18998 0.368752,0.0417 z m 4.260499,-0.18494 c 0.20146,-0.14881 0.24004,-0.20719 0.20813,-0.31497 -0.0653,-0.22074 -0.12411,-0.24723 -0.37704,-0.16995 -0.16507,0.0504 -0.23723,0.10596 -0.23723,0.18255 0,0.18731 0.0713,0.48505 0.11619,0.48505 0.0234,0 0.15393,-0.0822 0.28995,-0.18268 z m -1.11216,-0.41663 0.3236,-0.11221 -1.794454,-0.002 c -1.603308,-0.001 -1.777645,0.007 -1.636694,0.0856 0.08676,0.0481 0.174659,0.14166 0.195322,0.20805 0.0345,0.11084 0.04792,0.11331 0.164217,0.0302 0.08237,-0.0588 0.264898,-0.0904 0.522063,-0.0904 0.341203,0 0.407894,0.0182 0.486457,0.13255 0.0712,0.10368 0.106545,0.11673 0.162187,0.0599 0.09807,-0.1 0.762102,-0.0933 0.899382,0.01 0.0961,0.0717 0.12429,0.064 0.23187,-0.0635 0.0674,-0.0798 0.26808,-0.19563 0.44605,-0.25735 z m -3.946033,-0.0756 c 0.0023,-0.0248 -0.07991,-0.045 -0.182622,-0.045 h -0.186759 l 0.14086,0.1529 c 0.12863,0.13962 0.144489,0.14353 0.182625,0.045 0.02297,-0.0593 0.04362,-0.12814 0.0459,-0.15289 z m 5.810713,-0.18321 c 0.44908,-0.52156 0.65869,-1.15923 0.55035,-1.67434 -0.0841,-0.40002 -0.23944,-0.75023 -0.44007,-0.99227 l -0.16171,-0.19508 -0.14971,0.12009 c -0.0823,0.0661 -0.22644,0.12008 -0.32024,0.12008 -0.19541,0 -0.75495,-0.27053 -0.75495,-0.36502 0,-0.0346 -0.0498,-0.0469 -0.11074,-0.0272 -0.12995,0.0421 -0.72935,-0.17331 -0.83143,-0.29872 -0.047,-0.0577 -0.10258,-0.0691 -0.16715,-0.0342 -0.0532,0.0288 -0.42881,0.0678 -0.83462,0.0866 -0.587127,0.0273 -0.772171,0.0161 -0.905937,-0.0547 -0.154406,-0.0816 -0.190154,-0.078 -0.438824,0.0447 -0.148896,0.0735 -0.36872,0.13472 -0.488498,0.13603 -0.169608,0.002 -0.224542,0.0298 -0.248363,0.12589 -0.02146,0.0866 -0.12487,0.15378 -0.346351,0.22497 -0.380584,0.12234 -0.505845,0.12464 -0.651787,0.012 -0.09932,-0.0767 -0.122497,-0.0709 -0.219801,0.0553 -0.279855,0.36279 -0.427695,0.77593 -0.430888,1.20412 -0.0017,0.23098 0.03318,0.50771 0.07755,0.61495 l 0.08068,0.19498 h 0.728293 0.728292 v -0.54557 c 0,-0.50011 0.01003,-0.54826 0.120995,-0.57783 0.08411,-0.0225 0.108845,-0.0618 0.08113,-0.12937 -0.02193,-0.0534 -0.05273,-0.21964 -0.06845,-0.3694 -0.03939,-0.37522 0.06849,-0.46762 0.430656,-0.36885 0.423381,0.11547 0.793444,0.0891 1.117189,-0.0796 0.796704,-0.41527 1.468954,-0.42541 1.858614,-0.0281 0.19177,0.19555 0.22197,0.49537 0.0784,0.77846 -0.0555,0.1095 -0.0664,0.18724 -0.0294,0.21054 0.0322,0.0203 0.0586,0.27833 0.0586,0.57335 v 0.53641 h 0.29417 0.29417 v 0.29619 0.29621 l 0.20273,-0.0336 c 0.28705,-0.0474 0.46917,0.014 0.56127,0.18946 0.10257,0.19539 0.13083,0.19146 0.33582,-0.0466 z m -2.04118,-1.09167 v -0.38996 h -1.470857 -1.47086 v 0.38996 0.38996 h 1.47086 1.470857 z m -1.403769,-0.9599 c 0.556239,-0.27183 0.765389,-0.273 1.027429,-0.005 l 0.20024,0.20418 0.11875,-0.15394 c 0.20712,-0.2685 0.21456,-0.43592 0.0267,-0.60071 -0.14939,-0.13103 -0.20817,-0.14332 -0.58254,-0.12181 -0.32277,0.0185 -0.50815,0.0697 -0.82447,0.22766 -0.427678,0.21354 -0.844716,0.26732 -1.251041,0.16134 l -0.188259,-0.0491 0.05341,0.1899 c 0.08975,0.31912 0.154242,0.35826 0.590273,0.35826 0.335895,0 0.468561,-0.0336 0.829526,-0.20999 z m 0.731219,0.15616 c -0.10631,-0.0425 -0.38647,-0.0201 -0.38647,0.0308 0,0.0127 0.11252,0.0211 0.25005,0.0187 0.1769,-0.003 0.2168,-0.0175 0.13642,-0.0496 z m 2.30815,-1.09807 c 0.11888,-0.12122 0.0812,-0.19985 -0.19125,-0.39939 -0.25181,-0.18439 -0.26422,-0.18724 -0.32359,-0.0741 -0.10918,0.20803 -0.0706,0.33922 0.12947,0.44078 0.23529,0.1194 0.29535,0.12451 0.38537,0.0327 z m -5.294132,-0.11604 c 0.103864,-0.0396 0.131855,-0.0901 0.11767,-0.21233 -0.01025,-0.0882 -0.04509,-0.16807 -0.07745,-0.17755 -0.09811,-0.0287 -0.520977,0.37493 -0.473995,0.45244 0.04122,0.068 0.122272,0.0563 0.433776,-0.0626 z m 4.268932,-0.41941 c 0.0694,-0.35409 0.0498,-0.39746 -0.22929,-0.50615 -0.14633,-0.057 -0.28001,-0.0894 -0.29705,-0.072 -0.017,0.0174 -0.0363,0.14941 -0.0428,0.29342 -0.011,0.24392 0.002,0.26899 0.1941,0.36692 0.28332,0.14463 0.33271,0.1338 0.37506,-0.0822 z m -3.336516,0.004 c 0.205336,-0.0796 0.253035,-0.1549 0.254174,-0.40121 0.0011,-0.22889 -0.0071,-0.23023 -0.352106,-0.0575 -0.199273,0.0998 -0.260426,0.1622 -0.24725,0.2525 0.04291,0.29419 0.07259,0.31191 0.345182,0.20623 z m 1.363312,-0.19827 c 0.0115,-0.0616 0.0031,-0.23311 -0.01866,-0.38109 l -0.03957,-0.26905 -0.267771,0.041 c -0.39882,0.061 -0.429231,0.083 -0.429231,0.31164 0,0.36608 0.08244,0.44812 0.429645,0.4276 0.242679,-0.0143 0.308938,-0.0408 0.325586,-0.13003 z m 0.972714,0.0196 c 0.0702,-0.0657 0.14961,-0.53362 0.0962,-0.56727 -0.0238,-0.0149 -0.1924,-0.0451 -0.37476,-0.0669 l -0.33155,-0.0397 v 0.39086 0.39085 l 0.27946,-0.03 c 0.15371,-0.0164 0.30249,-0.0515 0.33063,-0.0778 z"
       id="path2" />
  </g>
  <metadata
     id="metadata131">
    <rdf:RDF>
      <cc:Work
         rdf:about="">
        <dc:title>plantilla pictogramas</dc:title>
      </cc:Work>
    </rdf:RDF>
  </metadata>
</svg>
