<?xml version="1.0" encoding="UTF-8" standalone="no"?>
<!-- Created with Inkscape (http://www.inkscape.org/) -->

<svg
   width="210mm"
   height="297mm"
   viewBox="0 0 210 297"
   version="1.1"
   id="svg5"
   inkscape:version="1.3.2 (091e20e, 2023-11-25, custom)"
   sodipodi:docname="pictograma_bañarse_plus.svg"
   xmlns:inkscape="http://www.inkscape.org/namespaces/inkscape"
   xmlns:sodipodi="http://sodipodi.sourceforge.net/DTD/sodipodi-0.dtd"
   xmlns="http://www.w3.org/2000/svg"
   xmlns:svg="http://www.w3.org/2000/svg"
   xmlns:rdf="http://www.w3.org/1999/02/22-rdf-syntax-ns#"
   xmlns:cc="http://creativecommons.org/ns#"
   xmlns:dc="http://purl.org/dc/elements/1.1/">
  <title
     id="title133">plantilla pictogramas</title>
  <sodipodi:namedview
     id="namedview7"
     pagecolor="#505050"
     bordercolor="#ffffff"
     borderopacity="1"
     inkscape:pageshadow="0"
     inkscape:pageopacity="0"
     inkscape:pagecheckerboard="1"
     inkscape:document-units="mm"
     showgrid="false"
     inkscape:zoom="1.2810466"
     inkscape:cx="91.721878"
     inkscape:cy="447.68083"
     inkscape:window-width="1920"
     inkscape:window-height="1001"
     inkscape:window-x="-9"
     inkscape:window-y="-9"
     inkscape:window-maximized="1"
     inkscape:current-layer="layer1"
     inkscape:showpageshadow="0"
     inkscape:deskcolor="#505050" />
  <defs
     id="defs2" />
  <g
     inkscape:label="Capa 1"
     inkscape:groupmode="layer"
     id="layer1">
    <path
       style="fill:#000000;stroke-width:0.208945"
       d="m 101.9979,121.61571 -0.0383,-0.66861 -0.40635,-0.0904 c -3.609295,-0.8029 -5.787149,-4.45534 -4.774676,-8.00751 0.592677,-2.07935 2.217903,-3.7292 4.314476,-4.37986 0.50843,-0.1578 0.62625,-0.17295 1.62689,-0.20924 1.01772,-0.0377 1.11194,-0.0311 1.66502,0.0986 1.83432,0.43096 3.36707,1.61758 4.24387,3.28554 0.451,0.85794 0.63101,1.49834 0.69973,2.4894 0.0416,0.59857 0.0369,0.93005 -0.0176,1.32094 -0.19343,1.38204 -0.77971,2.57854 -1.75643,3.58468 -0.74876,0.77132 -1.49173,1.2539 -2.48283,1.61269 l -0.40307,0.14593 0.008,0.69762 0.008,0.69759 -1.32443,0.0456 -1.32443,0.0456 z m 2.22006,-1.92047 c 2.07977,-0.51157 3.67749,-2.30485 3.94774,-4.43088 0.0827,-0.65114 -0.012,-1.66525 -0.21105,-2.25905 -0.58399,-1.74203 -1.99946,-3.06367 -3.75238,-3.50367 -0.52269,-0.13119 -1.82042,-0.14863 -2.34228,-0.0315 -1.32336,0.29711 -2.551234,1.12106 -3.265355,2.19118 -0.30894,0.46295 -0.673565,1.30521 -0.799777,1.84743 -0.136217,0.58524 -0.10988,1.85375 0.0502,2.4144 0.278748,0.97658 0.758504,1.78008 1.474002,2.46869 1.29879,1.24993 3.13265,1.73783 4.89895,1.30335 z m -1.89358,-1.42949 c -0.5261,-0.10812 -0.87712,-0.26631 -0.91982,-0.4145 -0.0416,-0.14448 0.0481,-0.29765 0.17678,-0.30208 0.0459,-0.002 0.26289,0.0576 0.48233,0.13141 0.33093,0.11137 0.49337,0.13169 0.95237,0.11912 0.47774,-0.0138 0.61554,-0.0396 1.00834,-0.19369 0.50309,-0.19743 0.62686,-0.183 0.66705,0.0778 0.0203,0.13129 -0.0103,0.16283 -0.28714,0.29647 -0.65707,0.31718 -1.4177,0.42158 -2.07991,0.28548 z m -1.80295,-3.27723 c -0.32942,-0.0635 -0.633652,-0.41699 -0.644934,-0.74942 -0.02726,-0.80405 0.993224,-1.15193 1.463614,-0.49894 0.16867,0.23412 0.18933,0.61931 0.0468,0.8714 -0.16157,0.28569 -0.52273,0.443 -0.86545,0.37696 z m 4.49884,-0.15222 c -0.25422,-0.0501 -0.40015,-0.15424 -0.54175,-0.38662 -0.23711,-0.38917 -0.10158,-0.89044 0.30094,-1.11283 0.52175,-0.28827 1.16193,0.0794 1.18228,0.67899 0.0178,0.52542 -0.43519,0.9202 -0.94147,0.82046 z m -13.349252,-8.80828 c -0.226432,-0.10086 -2.143393,-1.93078 -2.723728,-2.60004 -0.490837,-0.56604 -0.603335,-0.77745 -0.661222,-1.24247 l -0.04804,-0.38594 -0.341055,-0.25696 c -0.415611,-0.31311 -1.207306,-0.6721 -1.772031,-0.80351 -0.230305,-0.0537 -0.777201,-0.14607 -1.215339,-0.20551 -0.438138,-0.0595 -0.833322,-0.13641 -0.878187,-0.17102 -0.104609,-0.0807 -0.112256,-0.29208 -0.01372,-0.379484 0.05917,-0.0524 0.267668,-0.0431 0.929188,0.0418 1.423848,0.18262 2.354986,0.47781 3.06369,0.9712 l 0.305536,0.21271 0.150378,-0.34858 c 0.08271,-0.19174 0.225657,-0.43203 0.317664,-0.534 0.116328,-0.12893 0.149079,-0.20236 0.107511,-0.24107 -0.09315,-0.0868 -1.05464,-0.449804 -1.690397,-0.638264 -0.717155,-0.2126 -1.413226,-0.34099 -2.004306,-0.36972 -0.541797,-0.0263 -0.691071,-0.12024 -0.587307,-0.36945 l 0.06171,-0.1482 0.538039,0.0162 c 0.981692,0.0295 2.21556,0.33702 3.556127,0.88624 l 0.671547,0.27513 0.291254,-0.12023 c 0.754602,-0.31151 2.085424,-0.0982 4.313053,0.691164 0.808395,0.28648 1.115207,0.4915 1.225919,0.81922 0.23114,0.68416 -0.02522,1.71437 -0.696558,2.79913 -0.931649,1.50537 -2.190415,2.41775 -2.899715,2.10176 z m 0.87705,-0.66068 c 0.176522,-0.10174 0.477167,-0.33787 0.668102,-0.52473 1.190688,-1.16527 2.029181,-3.34854 1.426255,-3.71368 -0.394525,-0.23894 -1.394706,0.49549 -2.134577,1.56741 -0.561151,0.81298 -1.000278,2.04546 -0.892075,2.50376 0.09683,0.41011 0.412672,0.46677 0.932295,0.16724 z m -0.750444,-0.68683 c -0.0065,-0.19201 0.316062,-0.57571 0.410258,-0.48797 0.05431,0.0505 -0.02203,0.28279 -0.13586,0.41332 -0.115456,0.13238 -0.271003,0.17471 -0.274398,0.0746 z m 1.209776,-0.259 c -0.005,-0.14747 0.278629,-0.48194 0.366302,-0.43195 0.08696,0.0496 0.03717,0.24099 -0.10618,0.40831 -0.135614,0.15829 -0.255184,0.16917 -0.260123,0.0236 z m 0.818999,-1.34502 c -0.06662,-0.0997 0.210484,-0.51427 0.3469,-0.51897 0.09934,-0.004 0.04583,0.28839 -0.07692,0.41947 -0.135957,0.14519 -0.219026,0.17581 -0.269982,0.0995 z m -1.202559,-0.16453 c -0.0076,-0.22551 0.241911,-0.52639 0.374108,-0.45104 0.07472,0.0425 -0.04325,0.35194 -0.170712,0.44764 -0.14602,0.10962 -0.199761,0.11052 -0.203365,0.004 z m 1.237255,-1.08138 c -0.0045,-0.13314 0.211066,-0.42965 0.314992,-0.43323 0.108216,-0.004 0.0674,0.25707 -0.06393,0.40846 -0.161628,0.18628 -0.245296,0.19455 -0.251057,0.0248 z m -2.63334,2.37512 c 0.314938,-1.1913 1.379798,-2.72333 2.277037,-3.27597 l 0.286413,-0.1764 -0.165329,-0.0583 c -0.55976,-0.19762 -2.027729,-0.59466 -2.421106,-0.65483 -0.982602,-0.150324 -1.508767,0.007 -2.007186,0.59905 -0.425053,0.50517 -0.558207,1.41842 -0.279147,1.91454 0.139254,0.24758 0.656519,0.8212 1.436227,1.5927 0.576713,0.57064 0.700774,0.66982 0.728792,0.58257 0.01858,-0.0579 0.08351,-0.2933 0.1443,-0.52327 z"
       id="path1" />
  </g>
  <metadata
     id="metadata131">
    <rdf:RDF>
      <cc:Work
         rdf:about="">
        <dc:title>plantilla pictogramas</dc:title>
      </cc:Work>
    </rdf:RDF>
  </metadata>
</svg>
