<?xml version="1.0" encoding="UTF-8" standalone="no"?>
<!-- Created with Inkscape (http://www.inkscape.org/) -->

<svg
   width="210mm"
   height="297mm"
   viewBox="0 0 210 297"
   version="1.1"
   id="svg5"
   inkscape:version="1.3.2 (091e20e, 2023-11-25, custom)"
   sodipodi:docname="pictograma_television.svg"
   xmlns:inkscape="http://www.inkscape.org/namespaces/inkscape"
   xmlns:sodipodi="http://sodipodi.sourceforge.net/DTD/sodipodi-0.dtd"
   xmlns="http://www.w3.org/2000/svg"
   xmlns:svg="http://www.w3.org/2000/svg"
   xmlns:rdf="http://www.w3.org/1999/02/22-rdf-syntax-ns#"
   xmlns:cc="http://creativecommons.org/ns#"
   xmlns:dc="http://purl.org/dc/elements/1.1/">
  <title
     id="title133">plantilla pictogramas</title>
  <sodipodi:namedview
     id="namedview7"
     pagecolor="#505050"
     bordercolor="#ffffff"
     borderopacity="1"
     inkscape:pageshadow="0"
     inkscape:pageopacity="0"
     inkscape:pagecheckerboard="1"
     inkscape:document-units="mm"
     showgrid="false"
     inkscape:zoom="1.2810466"
     inkscape:cx="368.05843"
     inkscape:cy="506.22671"
     inkscape:window-width="1920"
     inkscape:window-height="1001"
     inkscape:window-x="-9"
     inkscape:window-y="-9"
     inkscape:window-maximized="1"
     inkscape:current-layer="layer1"
     inkscape:showpageshadow="0"
     inkscape:deskcolor="#505050" />
  <defs
     id="defs2" />
  <g
     inkscape:label="Capa 1"
     inkscape:groupmode="layer"
     id="layer1">
    <path
       style="fill:#000000;stroke-width:0.275809"
       d="m 102.07185,122.14915 c -0.0573,-0.0697 -0.0794,-0.63395 -0.0794,-2.03181 -4e-5,-1.72041 -0.0143,-1.98085 -0.12841,-2.34595 -0.16358,-0.52326 -0.30484,-1.4812 -0.41411,-2.80803 -0.11364,-1.37991 -0.11683,-10.83662 -0.004,-11.9307 0.0866,-0.83965 0.32127,-1.57023 0.61397,-1.91121 0.36007,-0.41945 2.21518,-0.83812 3.05733,-0.68999 0.67521,0.11876 0.76375,0.18436 0.81553,0.60425 0.0247,0.19999 0.0788,0.39444 0.12037,0.4321 0.0416,0.0376 0.385,0.18946 0.76324,0.3373 1.71951,0.6721 4.06627,2.43809 5.31407,3.99894 0.3058,0.3825 0.3129,0.40349 0.47586,1.40452 0.49902,3.06519 0.72768,5.93851 0.68441,8.59971 -0.0411,2.52771 -0.22399,3.80324 -0.72104,5.02925 -0.22955,0.56622 -0.4409,0.86063 -0.84534,1.1776 l -0.29421,0.23059 h -4.6394 c -3.52017,0 -4.65854,-0.0233 -4.7188,-0.0966 z m 9.42418,-0.83805 c 0.32049,-0.22838 0.43402,-0.43728 0.67279,-1.23802 0.6544,-2.19462 0.7068,-5.84381 0.14968,-10.42376 -0.23558,-1.9367 -0.43634,-3.08312 -0.5722,-3.26749 -0.26324,-0.35726 -1.41078,-1.47481 -2.04407,-1.99066 -0.36399,-0.29648 -0.98938,-0.7417 -1.38976,-0.98938 -0.68257,-0.42223 -1.9173,-1.03166 -2.09019,-1.03166 -0.0538,0 -0.0641,0.10169 -0.0339,0.33194 0.085,0.64619 0.29768,3.1874 0.38306,4.5766 0.10429,1.69696 0.10754,8.78772 0.005,10.33478 -0.0563,0.8463 -0.0914,1.06052 -0.18832,1.14667 -0.15022,0.13356 -0.23613,0.13347 -0.38673,-3.1e-4 -0.11398,-0.10132 -0.11568,-0.21392 -0.0361,-2.37563 0.1011,-2.74712 0.0513,-7.75809 -0.0984,-9.91006 -0.12329,-1.77189 -0.34517,-4.03216 -0.43447,-4.42574 -0.0351,-0.1549 -0.064,-0.39545 -0.0643,-0.53455 -5e-4,-0.31713 -0.0711,-0.35059 -0.7399,-0.35059 -0.4116,0 -1.81221,0.25951 -1.88622,0.34949 -0.008,0.009 0.0437,0.4867 0.11402,1.06086 0.36235,2.95649 0.54551,5.84541 0.54829,8.64814 0.003,3.03031 -0.19356,5.05372 -0.64826,6.67282 -0.15627,0.55642 -0.1678,0.70159 -0.1678,2.11229 v 1.51479 h 4.30636 4.30636 z m -8.98138,-5.3932 c 0.40076,-2.70624 0.35294,-7.15379 -0.12793,-11.89818 -0.0718,-0.70812 -0.14839,-1.37802 -0.17025,-1.48866 l -0.0398,-0.20117 -0.0589,0.18763 c -0.13052,0.41563 -0.20646,3.84041 -0.1707,7.69824 0.0348,3.74752 0.0807,4.87312 0.25436,6.2243 0.0932,0.72558 0.13995,0.6477 0.31318,-0.52216 z m -14.816772,3.4012 v -0.83444 l -0.413615,-0.0951 c -2.393037,-0.55045 -4.31343,-2.61698 -5.06979,-5.4556 -0.288226,-1.08172 -0.363148,-1.78192 -0.32284,-3.01714 0.04348,-1.33257 0.193927,-2.05683 0.673342,-3.24162 0.91815,-2.26905 2.464441,-3.75533 4.58098,-4.40323 0.848852,-0.25984 2.592297,-0.26238 3.368844,-0.005 2.083683,0.69088 3.633667,2.53194 4.422503,5.25305 0.09623,0.33194 0.416484,1.185 0.711684,1.8957 0.574574,1.3833 0.674358,1.83967 0.523648,2.39493 -0.120621,0.44441 -0.322938,0.69839 -0.753559,0.94602 l -0.39642,0.22796 -0.219205,0.68942 c -0.832326,2.61777 -2.290283,3.98149 -5.070584,4.74285 l -0.18199,0.0499 v 0.84338 0.84338 h -0.9265 -0.926498 z m 2.294545,-2.22509 c 1.180227,-0.33429 2.301038,-1.05535 2.900401,-1.86592 0.168033,-0.22725 0.427423,-0.66268 0.576427,-0.96765 0.256269,-0.5245 0.712246,-1.9596 0.713527,-2.24568 5e-4,-0.0987 0.103674,-0.15429 0.407199,-0.2193 0.435129,-0.0932 0.652249,-0.26336 0.652249,-0.51116 0,-0.14936 -0.451233,-1.30286 -0.764258,-1.95369 -0.08514,-0.17703 -0.249263,-0.64777 -0.364707,-1.04609 -0.63219,-2.18121 -1.579112,-3.62584 -2.874836,-4.38586 -0.728954,-0.42759 -1.196257,-0.56598 -2.084621,-0.61737 -2.372793,-0.13726 -4.43369,1.19784 -5.582099,3.61618 -0.775388,1.63283 -0.925874,3.88399 -0.386007,5.77437 0.52941,1.85376 1.697922,3.38779 3.12599,4.10383 0.452688,0.22699 1.188262,0.45009 1.683993,0.51076 0.472848,0.0579 1.443196,-0.0357 1.996742,-0.19242 z m 2.293509,-7.35252 c -0.147227,-0.15398 -0.184179,-0.26063 -0.184179,-0.53158 0,-0.6637 0.576788,-0.957 0.961673,-0.489 0.271348,0.32994 0.267392,0.7209 -0.01016,1.00489 -0.255256,0.26115 -0.527309,0.26671 -0.767326,0.0156 z"
       id="path1" />
  </g>
  <metadata
     id="metadata131">
    <rdf:RDF>
      <cc:Work
         rdf:about="">
        <dc:title>plantilla pictogramas</dc:title>
      </cc:Work>
    </rdf:RDF>
  </metadata>
</svg>
