<?xml version="1.0" encoding="UTF-8" standalone="no"?>
<!-- Created with Inkscape (http://www.inkscape.org/) -->

<svg
   width="210mm"
   height="297mm"
   viewBox="0 0 210 297"
   version="1.1"
   id="svg5"
   inkscape:version="1.3.2 (091e20e, 2023-11-25, custom)"
   sodipodi:docname="pictograma_agua.svg"
   xmlns:inkscape="http://www.inkscape.org/namespaces/inkscape"
   xmlns:sodipodi="http://sodipodi.sourceforge.net/DTD/sodipodi-0.dtd"
   xmlns="http://www.w3.org/2000/svg"
   xmlns:svg="http://www.w3.org/2000/svg"
   xmlns:rdf="http://www.w3.org/1999/02/22-rdf-syntax-ns#"
   xmlns:cc="http://creativecommons.org/ns#"
   xmlns:dc="http://purl.org/dc/elements/1.1/">
  <title
     id="title133">plantilla pictogramas</title>
  <sodipodi:namedview
     id="namedview7"
     pagecolor="#505050"
     bordercolor="#ffffff"
     borderopacity="1"
     inkscape:pageshadow="0"
     inkscape:pageopacity="0"
     inkscape:pagecheckerboard="1"
     inkscape:document-units="mm"
     showgrid="false"
     inkscape:zoom="1.2810466"
     inkscape:cx="402.40535"
     inkscape:cy="435.19104"
     inkscape:window-width="1920"
     inkscape:window-height="1001"
     inkscape:window-x="-9"
     inkscape:window-y="-9"
     inkscape:window-maximized="1"
     inkscape:current-layer="layer1"
     inkscape:showpageshadow="0"
     inkscape:deskcolor="#505050" />
  <defs
     id="defs2" />
  <g
     inkscape:label="Capa 1"
     inkscape:groupmode="layer"
     id="layer1">
    <path
       style="fill:#000000;stroke-width:0.240666"
       d="m 93.641821,123.86373 c -0.534124,-0.0251 -1.089719,-0.0498 -1.234655,-0.0548 l -0.263521,-0.009 0.02074,-1.40455 0.02074,-1.40455 -0.637306,-0.23603 c -3.027749,-1.12139 -5.294945,-3.98911 -5.98993,-7.57653 -0.157534,-0.81317 -0.15698,-3.06634 9.64e-4,-3.87457 0.625597,-3.20155 2.370237,-5.72349 4.938473,-7.13874 0.657753,-0.36246 1.024287,-0.51369 1.719567,-0.70949 2.458629,-0.69237 5.080655,-0.008 7.221893,1.88527 0.609694,0.53906 1.025844,0.99127 1.631024,1.77239 0.56041,0.72332 0.70449,0.83286 1.69018,1.28498 1.08769,0.4989 1.41191,0.83299 1.41235,1.45528 2.3e-4,0.41757 -0.1508,0.7278 -0.57624,1.18309 -0.55976,0.59905 -0.64108,0.92554 -0.36359,1.45979 0.3366,0.64803 0.14822,1.01198 -0.62875,1.21478 -0.85469,0.22308 -1.63368,0.71698 -2.23552,1.41736 -0.475652,0.55353 -0.677019,1.06753 -0.486427,1.24163 0.145077,0.13251 0.790187,0.27792 1.223197,0.27571 0.39145,-0.002 0.60515,-0.0252 1.53344,-0.16667 0.30794,-0.0469 0.32353,-0.0413 0.53886,0.19574 0.2003,0.22046 0.21856,0.27018 0.18882,0.51421 -0.0517,0.4241 -0.65848,1.70294 -1.09242,2.30229 -0.63486,0.87687 -1.65915,1.70416 -3.229943,2.60873 -0.86617,0.49881 -1.746939,0.83543 -2.700965,1.03229 -0.383902,0.0792 -0.732145,0.15475 -0.773873,0.16786 -0.05402,0.017 -0.07596,0.21201 -0.07618,0.67726 -1.72e-4,0.35938 -0.01794,0.94652 -0.0395,1.30475 l -0.03919,0.65133 -0.400543,-0.0121 c -0.220298,-0.007 -0.837552,-0.0326 -1.371676,-0.0577 z m 2.154702,-3.96873 c 1.192289,-0.1993 2.185241,-0.6102 3.429315,-1.41912 1.219022,-0.79263 1.856122,-1.37294 2.294742,-2.09018 0.12327,-0.20159 0.22408,-0.38195 0.224,-0.40082 -7e-5,-0.0189 -0.321,-0.0361 -0.71317,-0.0383 -1.446936,-0.008 -2.286212,-0.55501 -2.413355,-1.57245 -0.150997,-1.20835 1.090254,-2.81746 2.806965,-3.63884 l 0.45435,-0.21738 0.01,-0.557 c 0.0119,-0.68968 0.18442,-1.10781 0.69045,-1.67404 l 0.34158,-0.38221 -0.23917,-0.1078 c -1.5228,-0.68642 -1.92051,-0.96003 -2.41857,-1.66389 -0.503684,-0.71182 -1.500962,-1.74857 -2.104632,-2.18793 -1.353165,-0.98487 -2.537182,-1.40182 -4.000952,-1.40892 -1.511016,-0.007 -2.664101,0.39802 -4.064063,1.42866 -1.632632,1.20193 -2.808264,3.10297 -3.284901,5.31179 -0.06519,0.30213 -0.141098,0.8675 -0.168675,1.2564 -0.334846,4.72206 2.697832,8.79924 7.001724,9.41321 0.452175,0.0645 1.629993,0.0365 2.154702,-0.0512 z m 0.967457,-11.8646 c -0.255108,-0.28078 -0.157213,-0.43869 0.732028,-1.18079 0.84573,-0.7058 1.042513,-0.79795 1.239929,-0.58067 0.09903,0.10899 0.126529,0.40959 0.04893,0.53479 -0.118901,0.19183 -1.625914,1.36432 -1.753573,1.36432 -0.07823,0 -0.198525,-0.0619 -0.267311,-0.13765 z m 12.08215,12.16433 c -0.88464,-0.0195 -1.65594,-0.0612 -1.714,-0.0925 -0.14407,-0.0778 -0.17739,-0.2486 -0.50265,-2.57714 l -0.28395,-2.03289 -0.43401,-0.44862 c -0.43154,-0.44606 -0.43642,-0.44886 -0.85888,-0.49241 -0.23368,-0.0241 -0.64337,-0.0549 -0.91044,-0.0685 -0.58177,-0.0297 -0.65589,-0.0571 -0.76533,-0.28373 -0.15696,-0.32499 -0.10014,-1.70206 0.11845,-2.87048 0.41052,-2.1944 0.99254,-3.62797 1.47291,-3.62797 0.0653,0 0.46905,0.0917 0.89724,0.2037 l 0.77853,0.2037 0.2058,-0.1309 c 0.36034,-0.22921 1.41927,-0.48273 2.17842,-0.52155 0.83189,-0.0425 1.40961,0.0698 1.9994,0.38864 0.50165,0.27122 1.11615,0.94617 1.395,1.53222 0.19632,0.41258 0.22499,0.44221 0.51592,0.53318 l 0.30804,0.0963 0.16527,0.51957 c 0.43791,1.37672 0.29921,2.71017 -0.41266,3.96724 -0.15917,0.28107 -0.40102,0.63926 -0.53744,0.79596 l -0.24805,0.28493 -0.36611,-0.0365 -0.3661,-0.0365 0.18119,2.22145 0.1812,2.22147 -0.16695,0.15805 c -0.15113,0.14308 -0.21694,0.15667 -0.69465,0.1435 -0.29024,-0.008 -1.2515,-0.0306 -2.13615,-0.0501 z m 2.09328,-1.25152 c -0.0208,-0.21302 -0.0992,-1.13863 -0.17433,-2.05693 l -0.13655,-1.66962 0.58748,-2.62864 0.58749,-2.62864 -0.23766,-0.3917 c -0.29278,-0.48257 -0.5197,-0.69824 -0.98988,-0.94083 -0.68545,-0.35365 -1.66795,-0.37576 -2.75582,-0.062 -0.49386,0.14243 -0.49664,0.14519 -0.6777,0.67108 -0.40392,1.17315 -0.49094,2.70954 -0.24827,4.38334 0.0572,0.39456 0.0129,0.57106 -0.18102,0.72053 l -0.13875,0.10695 0.26629,0.29863 0.26629,0.29862 0.13282,0.92093 c 0.073,0.50651 0.20838,1.45313 0.30072,2.1036 l 0.16791,1.18267 0.34124,0.0204 c 0.18768,0.0112 0.92315,0.029 1.63437,0.0397 l 1.29313,0.0193 z m 1.38641,-4.44558 c 0.62032,-0.963 0.79555,-1.57076 0.75436,-2.61646 -0.0342,-0.86855 -0.17917,-1.39532 -0.39333,-1.42928 -0.15443,-0.0245 -0.0939,-0.23894 -0.68189,2.416 -0.23479,1.06013 -0.41176,1.95446 -0.39327,1.98739 0.0185,0.0329 0.12622,0.0599 0.2394,0.0599 0.18328,0 0.2352,-0.0457 0.47473,-0.41752 z m -6.48207,-0.66152 c 0.19726,-0.1281 0.21762,-0.16638 0.18651,-0.35072 -0.0192,-0.1138 -0.0527,-0.67287 -0.0744,-1.24236 -0.045,-1.18279 0.0222,-1.90627 0.25938,-2.79108 0.0859,-0.32036 0.16846,-0.62912 0.18351,-0.68614 0.0212,-0.0805 -0.0719,-0.12922 -0.4166,-0.21796 -0.24419,-0.0629 -0.46447,-0.11392 -0.48951,-0.11345 -0.025,5.1e-4 -0.0455,0.19523 -0.0455,0.43278 0,1.20373 -0.45596,3.47834 -0.93747,4.67668 l -0.14591,0.36313 0.37478,0.0236 c 0.8488,0.0534 0.88179,0.0506 1.10519,-0.0945 z m -1.58324,-1.27601 c 0.34877,-1.14351 0.64039,-2.79611 0.64039,-3.62905 0,-0.47499 -0.0522,-0.43156 -0.29913,0.24866 -0.376,1.03597 -0.71257,2.73053 -0.76765,3.86495 l -0.0308,0.63463 0.15327,-0.31263 c 0.0843,-0.17194 0.22107,-0.5349 0.30393,-0.80656 z"
       id="path1" />
  </g>
  <metadata
     id="metadata131">
    <rdf:RDF>
      <cc:Work
         rdf:about="">
        <dc:title>plantilla pictogramas</dc:title>
      </cc:Work>
    </rdf:RDF>
  </metadata>
</svg>
