<?xml version="1.0" encoding="UTF-8" standalone="no"?>
<!-- Created with Inkscape (http://www.inkscape.org/) -->

<svg
   version="1.1"
   id="svg824"
   width="508"
   height="600"
   viewBox="0 0 508 600"
   sodipodi:docname="Grabado Implica.svg"
   inkscape:version="1.1.2 (0a00cf5339, 2022-02-04, custom)"
   xmlns:inkscape="http://www.inkscape.org/namespaces/inkscape"
   xmlns:sodipodi="http://sodipodi.sourceforge.net/DTD/sodipodi-0.dtd"
   xmlns="http://www.w3.org/2000/svg"
   xmlns:svg="http://www.w3.org/2000/svg">
  <defs
     id="defs828" />
  <sodipodi:namedview
     id="namedview826"
     pagecolor="#505050"
     bordercolor="#ffffff"
     borderopacity="1"
     inkscape:pageshadow="0"
     inkscape:pageopacity="0"
     inkscape:pagecheckerboard="1"
     showgrid="false"
     inkscape:zoom="0.83674302"
     inkscape:cx="149.98631"
     inkscape:cy="303.55795"
     inkscape:window-width="1280"
     inkscape:window-height="961"
     inkscape:window-x="-8"
     inkscape:window-y="-8"
     inkscape:window-maximized="1"
     inkscape:current-layer="g830" />
  <g
     inkscape:groupmode="layer"
     inkscape:label="Image"
     id="g830"
     style="display:inline">
    <path
       style="fill:#000000"
       d="m 216.29611,558.77559 c -1.11592,-1.11592 -0.57827,-3.18266 1.29136,-4.96398 1.54198,-1.46916 1.95955,-3.71066 2.3359,-12.53896 0.4233,-9.92946 0.31814,-10.75 -1.37763,-10.75 -1.00974,0 -1.8729,-0.3375 -1.91813,-0.75 -0.0452,-0.4125 -0.28562,-1.9875 -0.53421,-3.5 -0.36636,-2.22904 -0.0755,-2.75 1.53518,-2.75 2.43814,0 6.61875,-1.74728 10.49646,-4.38697 l 2.9152,-1.98448 -0.59565,2.27777 c -0.54433,2.08152 -0.45058,2.14649 1.08805,0.75404 2.81846,-2.55067 12.48936,-6.64022 15.7272,-6.65059 4.13206,-0.0132 5.45,1.59973 5.45,6.66999 0,5.29468 -2.48617,11.93854 -5.81983,15.55249 -3.14286,3.40711 -10.11818,6.15062 -14.13788,5.56065 -3.53772,-0.51923 -3.79297,0.47471 -1.51934,5.91627 0.83762,2.00471 1.1436,4.02428 0.67995,4.48793 -1.56572,1.56572 -15.02544,7.64703 -15.61663,7.05584 z m 17.94546,-25.70175 c 4.04918,-1.69186 10.46827,-6.39498 10.46827,-7.66988 0,-1.457 -5.876,-0.99394 -9.29966,0.73285 -1.76019,0.88779 -4.42184,2.75665 -5.91478,4.15303 -4.34748,4.06627 -1.84122,5.53639 4.74617,2.784 z m -46.03173,23.09575 c -5.48814,-1.27442 -5.3897,-1.0376 -4.1062,-9.87881 1.00699,-6.93648 0.23707,-10.94745 -1.94098,-10.11165 -3.00314,1.15241 -4.69515,6.24841 -3.97866,11.98298 0.36836,2.9483 0.52487,5.35567 0.3478,5.34972 -0.17708,-0.006 -2.53098,-0.68096 -5.23089,-1.5 -2.69991,-0.81905 -6.41241,-1.48918 -8.25,-1.48918 -3.17082,0 -3.34107,-0.18387 -3.34107,-3.60841 0,-3.26527 0.21857,-3.55355 2.29851,-3.03152 l 2.29852,0.57689 -1.57443,-8.11351 c -1.30122,-6.70559 -1.96037,-8.25628 -3.79851,-8.93626 -1.22325,-0.45251 -2.22409,-1.56039 -2.22409,-2.46195 0,-1.13363 0.52571,-1.43748 1.70444,-0.98516 0.93745,0.35973 5.17668,0.92181 9.42053,1.24908 6.30555,0.48625 7.80261,0.92589 8.1894,2.40498 0.26032,0.99548 0.0197,1.96116 -0.53467,2.14596 -0.55439,0.1848 -0.83791,1.21887 -0.63005,2.29795 0.31543,1.63743 0.75616,1.35002 2.66455,-1.73764 3.11756,-5.04402 8.41225,-8.28477 11.14559,-6.82193 1.20147,0.64301 2.10283,2.20796 2.19252,3.8067 0.0838,1.49315 0.25687,3.16482 0.38465,3.71482 0.12779,0.55 0.28425,1.89196 0.34769,2.98213 0.0925,1.58983 0.60355,1.26369 2.58196,-1.6478 4.36897,-6.42952 11.63733,-9.45462 16.4841,-6.86071 4.14308,2.21731 3.22387,9.73693 -1.98216,16.21515 l -3.0628,3.81123 h 2.48811 c 2.23022,0 4.38007,1.5594 3.44247,2.49701 -0.20017,0.20017 -4.09458,1.00821 -8.65424,1.79564 -5.78386,0.99885 -8.13985,1.09545 -7.79271,0.31952 3.60528,-8.05836 5.65281,-14.05984 5.19969,-15.24066 -1.69015,-4.40445 -9.58907,7.75188 -9.58907,14.75745 0,2.8254 0.47514,3.88707 1.94897,4.35484 1.17921,0.37427 1.72939,1.1908 1.39301,2.06739 -0.63852,1.66397 -1.06616,1.66919 -7.84198,0.0957 z m 136.5,-6.64694 c 0,-0.55 0.45,-1 1,-1 0.55,0 1,0.45 1,1 0,0.55 -0.45,1 -1,1 -0.55,0 -1,-0.45 -1,-1 z m -166.33025,-0.66358 c -0.36496,-0.36497 -2.80246,-1.42581 -5.41666,-2.35742 -2.6142,-0.93161 -8.24059,-3.40515 -12.50309,-5.49675 -7.05288,-3.46083 -7.75,-4.06796 -7.75,-6.74956 0,-2.41324 0.3168,-2.81668 1.75,-2.22859 4.9628,2.03638 5.99113,-0.14395 6.33712,-13.43637 0.17801,-6.83887 -0.007,-7.59736 -2.31847,-9.5 -2.9518,-2.42981 -5.11998,-6.23256 -3.96172,-6.9484 0.44678,-0.27613 3.42116,0.81386 6.60973,2.42221 3.18856,1.60834 8.44923,3.47199 11.69036,4.14144 5.92589,1.22397 7.6574,3.12224 3.92772,4.30599 -2.05143,0.6511 -2.54639,2.45209 -3.43838,12.51103 -0.79553,8.97122 0.42461,14.24494 3.65364,15.79177 2.213,1.06012 2.75,1.99017 2.75,4.7628 0,3.54106 -0.18473,3.92737 -1.33025,2.78185 z m 97.36538,-13.08642 c 0.0193,-0.4125 0.67851,-3.675 1.46487,-7.25 1.70372,-7.74556 1.89493,-18.03764 0.43294,-23.30244 -0.85845,-3.09136 -1.46517,-3.74589 -3.24442,-3.5 -1.73654,0.23998 -2.18852,-0.20197 -2.18852,-2.13993 0,-2.11853 1.06073,-2.86839 8,-5.65549 9.48195,-3.80833 9.59602,-3.72995 10.26128,7.0507 0.38608,6.25667 -1.08486,16.06225 -3.25069,21.66958 -0.50243,1.30082 -0.11958,1.52549 1.93138,1.13342 2.35053,-0.44933 2.55803,-0.20466 2.55803,3.01629 0,3.23829 -0.27653,3.55716 -3.63041,4.18636 -1.99672,0.37458 -5.36278,1.77467 -7.48012,3.11129 -4.1048,2.59124 -4.91007,2.86997 -4.85434,1.68022 z m 111.10068,-2.43793 c -2.95031,-1.54664 -6.43781,-2.81207 -7.75,-2.81207 -1.93562,0 -2.38613,-0.51891 -2.38751,-2.75 -0.002,-2.62852 -0.23434,-2.75806 -5.26779,-2.93251 -2.89635,-0.10038 -7.73308,-1.00038 -10.7483,-2 -4.51851,-1.498 -5.79304,-2.45309 -7.25044,-5.43326 -1.51268,-3.09322 -1.60742,-4.3656 -0.65555,-8.80405 2.34424,-10.9308 10.15453,-13.60369 19.31612,-6.6105 l 4.54553,3.46969 -0.59393,-2.96969 c -0.74716,-3.73578 0.0799,-3.76481 8.8813,-0.31169 6.24088,2.44852 6.77476,2.89114 6.77476,5.61663 0,2.46631 -0.33281,2.87161 -2,2.43563 -1.83906,-0.48092 -2.0011,-0.0276 -2.01365,5.63337 -0.008,3.38601 -0.285,7.16888 -0.61664,8.40638 -0.42399,1.58211 -0.1691,2.25 0.85867,2.25 2.47974,0 4.93639,3.59435 4.59195,6.71853 l -0.32033,2.90561 z m -10.7176,-17.41906 c 0.86999,-0.33384 1.58179,-0.99729 1.58179,-1.47432 0,-1.05056 -5.72123,-4.11678 -8.5,-4.55547 -6.52628,-1.03031 -9.79128,-0.71647 -9.2257,0.88678 0.24252,0.6875 1.17518,1.18831 2.07257,1.1129 0.89738,-0.0754 1.4073,0.22584 1.13316,0.66941 -0.45636,0.73841 3.02344,2.1644 8.01997,3.28653 3.16943,0.71179 3.25331,0.71305 4.91821,0.0742 z m -83.41821,12.03984 c 0,-0.86194 1.50747,-2.99944 3.34992,-4.75 2.68505,-2.55113 3.48964,-4.25386 4.05384,-8.57902 0.74138,-5.68343 0.34132,-6.68511 -2.90376,-7.27046 -1.16767,-0.21062 -2,-1.14768 -2,-2.25164 0,-1.37637 1.36369,-2.35441 5.01169,-3.5944 2.75643,-0.93694 6.96254,-2.69878 9.34691,-3.91519 2.38436,-1.21641 4.51877,-2.02811 4.74312,-1.80376 0.22434,0.22435 -0.0443,2.79216 -0.59691,5.70625 -1.12805,5.9482 -1.33308,14.36377 -0.37333,15.32352 0.34732,0.34732 1.47232,0.18148 2.5,-0.36852 1.44703,-0.77442 1.86852,-2.14223 1.86852,-6.06368 0,-7.44957 2.2307,-11.3037 8.28998,-14.32316 12.33669,-6.14764 28.68643,-0.55356 26.28987,8.9951 -1.02546,4.08576 -10.7291,5.40385 -16.82985,2.28607 -4.15145,-2.12158 0.17177,-9.71271 5.63486,-9.89425 2.06031,-0.0685 2.06329,-0.0906 0.11514,-0.8547 -2.56563,-1.00627 -7.63747,0.42616 -9.25,2.61247 -2.57065,3.48535 -1.16606,14.30595 2.1497,16.56075 1.53626,1.04468 6.46921,-0.0787 10.47633,-2.38577 1.85682,-1.06905 3.5309,-1.78886 3.72019,-1.59957 0.78882,0.78882 -3.29258,7.23876 -5.69312,8.99697 -2.81073,2.05865 -12.96271,3.44396 -17.28621,2.35883 -1.40884,-0.35359 -3.47399,-1.62231 -4.58921,-2.81936 l -2.02768,-2.17645 v 2.54927 c 0,2.30777 -0.46581,2.60444 -4.91707,3.13162 -2.70438,0.3203 -8.25071,1.73298 -12.32518,3.13929 -8.71926,3.00949 -8.75775,3.01384 -8.75775,0.98979 z m 7.25,-32.04236 c -0.6875,-0.30644 -1.25,-1.89166 -1.25,-3.52272 0,-2.51961 0.63909,-3.25565 4.25,-4.8947 7.77589,-3.52961 17.8117,-1.73257 15.18109,2.71836 -2.22677,3.76766 -14.13775,7.50128 -18.18109,5.69906 z m -14.50223,-10.39049 c -0.27429,-0.825 -1.46264,-7.575 -2.64078,-15 -3.27649,-20.64942 -9.5416,-43.33341 -15.66672,-56.72429 -1.34215,-2.93424 -2.44027,-5.52254 -2.44027,-5.75177 0,-1.10381 -7.72871,-13.50462 -10.69011,-17.1524 -3.20866,-3.95235 -10.96767,-10.10372 -11.6928,-9.27009 -0.19067,0.2192 -1.81711,3.09855 -3.61431,6.39855 -1.79719,3.3 -3.60869,6.45 -4.02553,7 -1.21159,1.5986 -12.43513,28.19181 -15.82687,37.50037 -3.40368,9.34134 -8.60305,25.26312 -10.27245,31.45678 -0.94098,3.49117 -1.19101,3.73479 -2.12331,2.06886 -1.3747,-2.45645 -0.32392,-32.94951 1.67219,-48.52601 1.30815,-10.20805 3.88001,-23.83652 6.12799,-32.47266 l 0.77378,-2.97266 -2.91429,1.83141 c -10.17382,6.39343 -20.42223,23.97587 -24.35107,41.77733 -2.33215,10.56689 -2.45553,10.65713 -3.1944,2.33658 -1.69581,-19.09654 -2.15441,-49.54559 -0.905,-60.08797 1.42017,-11.98324 6.86264,-35.26703 9.37607,-40.11237 0.91306,-1.76019 1.66011,-3.86019 1.66011,-4.66667 0,-2.52612 2.246,-2.40009 10.5,0.58919 4.4,1.59351 8.675,2.98291 9.5,3.08756 0.825,0.10464 1.725,0.42425 2,0.71024 1.30755,1.3598 19.30821,10.00515 19.80258,9.51077 1.80667,-1.80667 -12.17642,-8.39871 -45.30258,-21.35697 -34.61739,-13.54159 -39.34233,-15.68205 -49.71532,-22.52166 -15.5544,-10.25606 -23.60332,-21.2812 -24.55356,-33.63263 l -0.50156,-6.51949 7.80193,7.78404 c 9.04262,9.02186 17.68894,15.0263 31.50591,21.87928 17.03356,8.44835 26.37117,10.83668 42.36801,10.83668 23.87658,0 45.17229,-10.70735 57.5515,-28.93655 3.54469,-5.21978 3.73112,-5.83469 2.4576,-8.10585 -2.37481,-4.23516 -6.22064,-17.27947 -8.57833,-29.09608 -1.91293,-9.58751 -2.2723,-14.64051 -2.30154,-32.36152 -0.0365,-22.13255 0.79092,-29.36036 5.05624,-44.16789 4.15868,-14.43729 11.36442,-27.81573 20.08145,-37.28395 2.73881,-2.97484 4.00147,-2.12746 2.4881,1.66978 -4.6938,11.77733 -5.44108,47.93349 -1.30793,63.28206 7.02744,26.09659 18.58171,42.69868 38.57586,55.4288 18.96282,12.07349 47.23251,16.69741 71.07164,11.6248 23.968,-5.10003 50.63112,-17.45919 65.5,-30.36123 l 4.5,-3.90474 0.30014,3.43466 c 0.42492,4.86262 -3.17089,13.72615 -8.05922,19.86563 -2.29482,2.88217 -7.66167,7.82745 -11.92633,10.9895 -14.8958,11.04457 -28.56128,16.05134 -73.81459,27.04428 -51.63336,12.54278 -57.02969,14.12163 -73.80293,21.59304 -7.81341,3.48038 -10.6526,5.26547 -11.75,7.38762 -1.92017,3.7132 -1.826,4.54166 0.30293,2.66492 4.10432,-3.61813 28.40887,-14.1599 41.25,-17.89163 6.83897,-1.98746 25.90299,-5.8762 28.80076,-5.87487 1.38324,6.3e-4 2.12001,2.27869 3.96187,12.25 6.57075,35.57216 5.53737,59.66847 -4.70113,109.62036 -2.18375,10.65413 -4.12145,19.52215 -4.306,19.7067 -0.18456,0.18455 -0.88982,-5.47838 -1.56726,-12.5843 -1.38958,-14.57572 -4.59458,-26.87888 -9.58188,-36.78234 -3.31696,-6.58661 -12.13161,-19.19573 -13.44112,-19.22717 -0.36588,-0.009 -2.16965,-1.34214 -4.00836,-2.963 -1.83872,-1.62086 -5.7931,-3.86367 -8.78752,-4.98402 -10.0017,-3.74212 -20.55802,-2.32129 -31.25011,4.20611 -3.74231,2.28464 -6.74987,3.52626 -7.27341,3.00272 -1.53848,-1.53848 -2.18712,-5.42325 -2.58963,-15.50958 -0.41188,-10.32128 1.14305,-16.77251 5.90189,-24.48626 1.10276,-1.7875 1.7119,-3.25 1.35363,-3.25 -2.85139,0 -28.51173,23.06726 -28.51173,25.63052 0,0.53208 1.83021,2.07039 4.06713,3.41845 6.08109,3.66472 18.93287,14.13475 18.93287,15.42413 0,0.6198 -0.51465,1.64155 -1.14367,2.27057 -0.85823,0.85823 -0.40934,1.76157 1.79852,3.61936 3.91598,3.29508 12.27263,15.56531 16.09799,23.63697 9.77136,20.61799 13.38288,51.79595 9.7481,84.15462 -1.59045,14.15909 -2.90333,20.4015 -3.75317,17.84538 z M 211.04144,376.82437 c 3.94262,0.30484 8.12666,0.84997 9.29786,1.21138 1.80233,0.55617 2.86422,-0.43801 6.91232,-6.4716 2.63057,-3.9208 6.37324,-8.67346 8.31705,-10.56148 l 3.5342,-3.43276 -2.44652,-2.63271 c -1.34558,-1.44799 -6.43976,-5.49844 -11.3204,-9.00099 l -8.87389,-6.36828 -1.67489,2.22736 c -5.19798,6.91257 -13.51016,24.22818 -16.53509,34.44528 -0.62269,2.10322 -0.49432,2.16134 2.48215,1.12373 1.81659,-0.63326 6.1585,-0.86071 10.30721,-0.53993 z m 41.93903,-77.54912 c 2.1522,-1.52253 6.86885,-15.1721 9.24444,-26.7526 3.85634,-18.79877 3.46301,-43.72206 -0.90744,-57.5 -2.04934,-6.4606 -7.62334,-17.50049 -8.83561,-17.49986 -0.14961,8e-5 -0.328,5.73758 -0.39643,12.75 -0.14972,15.34342 -2.74706,28.74283 -7.89463,40.72763 l -3.53287,8.22537 1.48019,5.68282 c 3.77667,14.49962 2.46559,28.36954 -3.79995,40.19978 l -3.22314,6.08574 8.04741,-5.33314 c 4.42607,-2.93322 8.84419,-5.8968 9.81803,-6.58574 z m -71.77063,-19.41444 c -10.82018,-5.70498 -17.23647,-23.58334 -13.01983,-36.27846 2.46405,-7.41856 6.45589,-11.60498 12.43276,-13.03881 4.35502,-1.04475 5.4168,-0.93464 10.00019,1.03708 17.46591,7.51363 21.53746,38.09331 6.40078,48.07353 -3.50401,2.31034 -11.62279,2.41644 -15.8139,0.20666 z m 127.33989,-53.22474 c -7.03844,-4.46365 -9.34054,-10.03891 -9.33738,-22.61342 0.002,-9.2347 0.25544,-10.53571 3.30739,-17 13.34828,-28.27281 44.0975,-26.20547 45.97765,3.09118 1.04267,16.24709 -8.82727,33.3736 -22.10265,38.35293 -5.50574,2.0651 -12.89776,1.30676 -17.84501,-1.83069 z M 64.37046,164.84993 c -1.27519,-1.27519 -0.65069,-6.11711 0.86394,-6.69833 1.10078,-0.42241 1.34248,-1.35556 0.86951,-3.35699 -1.01161,-4.28074 -9.04483,-19.44077 -11.96116,-22.5727 -2.94076,-3.15815 -2.86901,-3.55035 2.05863,-11.2535 1.95596,-3.05765 3.24838,-6.0963 2.87205,-6.75256 -0.37633,-0.65626 -0.31496,-0.85856 0.13639,-0.44956 0.45135,0.409 1.44901,-0.1535 2.21703,-1.25 2.36605,-3.37802 10.19188,-2.23418 28.94898,4.23125 7.70852,2.65707 9.41786,2.95041 10.75,1.84483 0.87121,-0.72303 1.58401,-2.09793 1.58401,-3.05532 0,-2.10679 8.91354,-10.65083 12.55632,-12.03581 3.547,-1.34857 4.70782,-0.36689 4.24581,3.59057 -0.33524,2.87161 -0.17546,3.17115 1.15439,2.16404 2.94329,-2.22901 5.97173,-6.24178 6.00752,-7.96015 0.0523,-2.510493 -4.42659,-5.124763 -7.47091,-4.360683 -1.38679,0.34806 -5.71157,3.097673 -9.61063,6.110233 -7.04759,5.44526 -10.38802,6.57188 -12.6825,4.2774 -1.69916,-1.69916 -1.4886,-7.942953 0.3567,-10.577493 0.85619,-1.22238 1.30528,-2.22251 0.99798,-2.22251 -0.3073,0 1.35224,-1.8 3.68787,-4 2.33563,-2.2 4.61309,-4 5.06104,-4 0.44794,0 0.52944,-0.46115 0.1811,-1.02478 -0.34834,-0.56362 -0.2624,-0.9237 0.19098,-0.80017 0.45338,0.12354 3.07433,-1.23088 5.82433,-3.00981 6.65257,-4.30346 11.54081,-5.74895 14.35253,-4.24416 3.92716,2.10175 2.31945,5.11136 -5.31773,9.95472 -6.03077,3.82459 -9.5348,4.12749 -9.5348,0.8242 0,-1.265 0.5625,-2.90394 1.25,-3.6421 0.6875,-0.73815 -0.26475,-0.49065 -2.11611,0.55 -3.47225,1.95177 -8.13389,7.22515 -8.13389,9.20131 0,1.79684 3.96695,3.4159 6.69307,2.73169 1.37873,-0.34604 5.65121,-2.83741 9.4944,-5.53637 11.30646,-7.94022 16.50398,-8.57647 18.88578,-2.31188 1.45952,3.83883 -2.01925,10.11559 -9.39042,16.943173 -6.66549,6.17395 -17.11069,13.36418 -19.41405,13.36418 -1.4745,0 -13.27483,11.31359 -17.11345,16.40755 l -2.19102,2.90755 -2.30634,-2.1667 c -1.26849,-1.19168 -2.63424,-1.83879 -3.03501,-1.43803 -0.40077,0.40077 -0.47099,0.0572 -0.15604,-0.76356 0.37099,-0.96678 -0.53871,-2.14872 -2.58341,-3.35655 l -3.15604,-1.86432 -5.32442,5.38703 c -2.92843,2.96287 -5.34211,5.80745 -5.36373,6.32131 -0.0216,0.51385 0.93208,2.94091 2.11934,5.39347 l 2.15866,4.4592 2.66326,-3.26316 c 2.42627,-2.97278 2.85536,-3.14319 4.82203,-1.91499 3.43566,2.14561 3.30343,3.49633 -0.61524,6.28451 -2.01688,1.43502 -6.18684,5.08086 -9.26659,8.10186 -3.07975,3.021 -5.89682,5.19545 -6.26016,4.83211 z m 4.73452,-34.76462 c 4.21945,-5.14928 5.32596,-8.71931 3.23925,-10.45112 -2.94719,-2.44595 -11.56269,9.38829 -10.12729,13.91084 0.81636,2.57211 2.73514,1.60835 6.88804,-3.45972 z m 361.87931,18.68734 c -0.36453,-0.9625 -2.363,-4.44659 -4.44103,-7.74243 l -3.77825,-5.99244 3.22241,-1.66674 c 1.77233,-0.91671 5.01387,-3.22376 7.20341,-5.12678 3.47494,-3.0202 3.80895,-3.66733 2.62756,-5.09082 -0.83042,-1.00059 -2.86945,-1.63079 -5.27645,-1.63079 -3.9643,0 -6.99114,2.04719 -9.66066,6.53394 -1.12144,1.88484 -1.261,1.84212 -3.37839,-1.03394 -3.0084,-4.08635 -8.86406,-9.93103 -11.27224,-11.2511 -1.94076,-1.06386 -1.94261,-1.12534 -0.095,-3.16691 2.2564,-2.49329 4.1509,-2.66081 5.37403,-0.47519 0.71359,1.27512 1.65277,0.23588 4.54969,-5.03442 4.14186,-7.535173 4.27299,-8.227043 2.0292,-10.706393 -1.74979,-1.9335 -1.24293,-4.86804 0.8399,-4.86271 0.70476,0.002 5.71574,4.33379 11.13552,9.626623 9.70408,9.47678 10.57427,11.23179 5.64586,11.38659 -0.825,0.0259 -2.4,0.72954 -3.5,1.5636 -1.86296,1.41258 -1.72062,1.47206 2.07731,0.86801 5.31482,-0.84531 15.97358,2.07261 17.96699,4.91861 3.39314,4.84439 0.38419,10.59847 -8.73066,16.69583 -3.4725,2.32293 -7.32636,5.13779 -8.56413,6.25526 -2.05282,1.85329 -2.122,2.22786 -0.7876,4.26441 1.29353,1.97418 1.28412,2.30127 -0.0813,2.82523 -2.20672,0.84679 -2.37017,0.78589 -3.10617,-1.15744 z m -39.27445,-42.411 c -8.0014,-2.18162 -17.1471,-11.775753 -18.59805,-19.509943 -1.54356,-8.22792 6.11028,-14.37909 16.03913,-12.89017 6.9678,1.04489 17.87772,6.98032 22.51586,12.24953 5.45464,6.1968 5.41197,9.20582 -0.21024,14.828043 -5.85356,5.85356 -11.86065,7.47272 -19.7467,5.32254 z m 15,-9.220343 c 0,-1.77223 -5.38422,-7.12245 -10.40221,-10.33652 -4.48106,-2.87016 -14.80987,-4.36604 -16.06986,-2.32733 -2.07107,3.35106 15.14166,14.04519 22.60643,14.04519 2.62188,0 3.86564,-0.44444 3.86564,-1.38134 z m -41.03571,-8.04472 c -2.19902,-2.14162 -14.81352,-8.1057 -20.21429,-9.55723 -6.90109,-1.85477 -6.12068,-5.48064 1.1849,-5.50517 2.87465,-0.01 3.98321,-0.72738 6.79659,-4.40036 3.73194,-4.87221 3.86616,-7.12322 0.51267,-8.59831 -1.56868,-0.69001 -2.24416,-1.84382 -2.24416,-3.83333 0,-1.88789 0.42088,-2.67096 1.25,-2.32573 0.6875,0.28626 6.425,2.20282 12.75,4.25902 6.325,2.0562 11.64902,3.84601 11.83116,3.97735 0.18213,0.13134 -1.63404,2.65153 -4.03594,5.60041 -5.61209,6.89014 -7.50813,11.24548 -5.79447,13.31031 0.68428,0.82451 1.86404,1.4991 2.62169,1.4991 1.68174,0 1.73626,1.11863 0.21704,4.45295 -1.3106,2.87646 -2.73611,3.20424 -4.87519,1.12099 z m -222.96429,-0.62049 c -8.37854,-3.49257 -7.80455,-15.1465 1.16237,-23.59996 4.39433,-4.1427 14.74066,-9.24139 20.29862,-10.0032 3.98453,-0.54614 4.73666,-0.30649 7.40147,2.35832 3.26004,3.26005 4.86036,9.9273 3.73427,15.55776 -1.86411,9.32053 -10.99177,15.79678 -23.09673,16.38756 -3.85,0.1879 -8.125,-0.12731 -9.5,-0.70048 z m 13.50672,-9.4543 c 5.32997,-2.56368 13.49328,-9.91732 13.49328,-12.15495 0,-1.98749 -6.71174,-1.65824 -11.6184,0.56995 -7.1639,3.25324 -14.14762,10.64726 -12.96565,13.72741 0.73863,1.92485 3.90744,1.31273 11.09077,-2.14241 z m 243.78921,-5.82672 c -2.86224,-1.23598 -5.49335,-2.53652 -5.84691,-2.89008 -1.09686,-1.09686 7.28488,-4.78235 10.87628,-4.78235 3.86483,0 8.6747,3.25618 8.6747,5.87258 0,4.59583 -5.54331,5.32387 -13.70407,1.79985 z m -215.96194,0.0421 c -4.05512,-2.27386 -6.67129,-6.73687 -7.11986,-12.14597 -0.37653,-4.54045 -0.087,-5.56622 2.408,-8.53136 3.39164,-4.03074 12.53398,-8.37708 21.21205,-10.08439 7.61189,-1.49755 16.53636,0.002 18.16945,3.05395 1.44092,2.69237 1.22324,6.56003 -0.44723,7.9464 -1.90669,1.58241 -11.19324,4.01998 -15.37214,4.03494 -5.25989,0.0188 -7.21711,-1.51639 -6.93103,-5.43659 0.13572,-1.85986 0.47177,-3.32971 0.74677,-3.26635 0.275,0.0634 2.525,-0.83696 5,-2.00073 5.23333,-2.46076 3.22077,-2.97928 -3.01891,-0.77779 -5.07385,1.79016 -6.9062,3.91093 -6.94929,8.04316 -0.0357,3.4205 4.53928,11.18592 6.91919,11.74449 2.52837,0.59341 11.14574,-3.01281 14.20645,-5.94516 2.79782,-2.68048 2.84256,-2.68814 2.84256,-0.48659 0,2.74441 -2.16348,7.0754 -4.64762,9.3039 -5.03491,4.51676 -21.98566,7.37014 -27.01839,4.54809 z m 134.66601,-0.14553 c -11.65149,-3.24207 -16,-7.60933 -16,-16.06903 0,-9.22549 4.83108,-13.5 15.25778,-13.5 11.23744,0 25.53364,5.81828 29.06368,11.82836 1.59721,2.71933 1.65455,3.44405 0.46573,5.88639 -1.25307,2.57432 -1.77726,2.77721 -6.92189,2.67907 -6.41477,-0.12237 -15.3949,-4.33635 -16.47185,-7.72953 -1.06988,-3.37089 3.09661,-5.98187 8.5625,-5.36579 4.21234,0.47479 4.33232,0.42343 2.01177,-0.86136 -1.35725,-0.75145 -4.59485,-1.38222 -7.19467,-1.40171 -5.57323,-0.0418 -7.39764,1.92776 -8.36419,9.02953 -0.4879,3.58487 -0.20182,4.94417 1.49238,7.09101 2.47383,3.13475 9.58274,4.5027 15.03253,2.89267 4.2608,-1.25877 4.94321,-0.68479 2.47677,2.08324 -4.14807,4.65528 -10.79973,5.83313 -19.41054,3.43715 z m -97,-8.98259 c 0,-1.57098 0.71631,-2.67901 1.99408,-3.08456 3.86975,-1.22821 5.00592,-3.40102 5.00592,-9.57331 0,-3.99722 -0.40721,-5.9768 -1.25,-6.07663 -0.6875,-0.0814 -2.0923,-0.19393 -3.12179,-0.25 -1.02948,-0.0561 -2.48618,-1.02304 -3.23711,-2.14883 -1.32473,-1.98603 -1.01632,-2.12404 10.37179,-4.64099 6.45541,-1.42675 12.41211,-2.75565 13.23711,-2.95311 1.00468,-0.24046 1.42035,0.30142 1.25879,1.64099 -1.01621,8.42583 -1.21989,17.22909 -0.42538,18.38535 0.62634,0.91152 1.84369,1.16152 3.55926,0.73094 2.08993,-0.52454 2.60733,-1.25384 2.60733,-3.67518 0,-1.66143 0.88495,-4.75543 1.96655,-6.87555 4.02597,-7.89155 15.67617,-10.26539 25.88711,-5.27476 l 4.35366,2.12787 -0.64897,-3.45934 -0.64898,-3.45933 h 11.11174 11.11173 l -0.31642,2.75 c -0.24682,2.14512 -0.90984,2.81849 -3.01435,3.0614 -2.38656,0.27546 -2.77586,0.85252 -3.37312,5 -0.37134,2.57873 -1.29477,6.20606 -2.05206,8.06072 -0.75729,1.85467 -1.37689,3.51366 -1.37689,3.68664 0,0.17299 1.4625,0.45553 3.25,0.62788 2.98221,0.28754 3.27601,0.62962 3.56562,4.15158 0.27139,3.3002 0.0611,3.768 -1.5,3.33731 -4.86611,-1.34247 -9.33454,-1.61159 -13.58228,-0.81802 -2.56852,0.47985 -4.88055,0.66194 -5.13785,0.40465 -0.25729,-0.25729 -0.0381,-1.5979 0.487,-2.97913 0.83253,-2.18972 0.72831,-2.4165 -0.81384,-1.77085 -6.48941,2.71689 -21.57679,2.99883 -26.26312,0.49078 -1.60256,-0.85766 -2.00553,-0.76486 -2.00553,0.46186 0,1.26919 -1.60265,1.53615 -9.25,1.54076 -5.0875,0.003 -10.825,0.40939 -12.75,0.90295 -9.04104,2.31805 -9,2.31951 -9,-0.32209 z m 59.78212,-12.14782 c 3.04315,-1.27805 3.42427,-1.72735 2.10004,-2.47574 -3.50509,-1.98088 -12.44587,-2.2316 -18.35203,-0.51463 -8.22888,2.3922 -5.65854,4.21585 6.25199,4.43578 3.6952,0.0682 7.81311,-0.52698 10,-1.44541 z m 91.3445,7.1259 c -7.31973,-3.08028 -12.12662,-7.05995 -12.12662,-10.03973 0,-1.47635 0.73205,-2.62233 1.91496,-2.99777 6.04738,-1.91936 23.08504,8.08102 23.08504,13.54993 0,2.67974 -5.84022,2.44727 -12.87338,-0.51243 z m -145.73752,-25.5442 c -2.64402,-1.068342 -3.77811,-3.846636 -2.29812,-5.62992 3.8835,-4.679324 24.53719,-4.407674 26.36163,0.346723 0.86289,2.248671 -0.3795,3.159027 -6.55389,4.802319 -5.9411,1.581208 -14.22351,1.808668 -17.50962,0.480878 z"
       id="path11160" />
  </g>
</svg>
