<?xml version="1.0" encoding="UTF-8"?>
<svg version="1.1" viewBox="0 0 1600 1600" width="1280" height="1280" xmlns="http://www.w3.org/2000/svg">
<path transform="translate(720 297)" d="m0 0c7.63 0.104 13.6 5.62 19.1 10.4 5.06 3.57 8.91 5.05 15 6v2c1.22 0.248 2.43 0.495 3.69 0.75 3.94 0.972 6.23 2.58 9.31 5.25 0.804 0.268 1.61 0.536 2.44 0.812 3.8 1.76 6.21 4.76 8.56 8.19v2c0.908-0.0825 1.82-0.165 2.75-0.25 4.08 0.314 4.43 1.43 7.25 4.25 2.93 1.22 5.95 2.11 9 3 5.99 1.85 10.6 5.83 14 11 0.414 2.92 0.414 2.92 0.625 6.19 0.0748 1.09 0.15 2.17 0.227 3.29 0.049 0.831 0.098 1.66 0.148 2.52 2.31 0.33 4.62 0.66 7 1-1.65-3.96-3.3-7.92-5-12 4.39 1.76 6.43 2.95 9.81 6 0.79 0.701 1.58 1.4 2.39 2.12 1.79 1.88 1.79 1.88 1.79 3.88 1.3 0.206 2.6 0.413 3.94 0.625 5.43 1.19 9.88 3.73 14.1 7.38v2c0.723 0.276 1.45 0.552 2.19 0.836 7.52 3.12 13.2 6.78 17.8 13.6 0.349 0.508 0.699 1.02 1.06 1.54h1v5c-0.99 0.33-1.98 0.66-3 1 0.33 2.64 0.66 5.28 1 8h2c-0.0309-1.58-0.0309-1.58-0.0625-3.19 0.0515-3.14 0.328-5.78 1.06-8.81 4.01 0.616 6.8 2.59 10 5 0.33 0.99 0.66 1.98 1 3 1.64 0.727 3.31 1.39 5 2 5.33 3.16 10.5 6.73 15 11v3c0.681 0.0412 1.36 0.0825 2.06 0.125 4.19 1.25 6.8 3.92 9.94 6.88-0.33 1.32-0.66 2.64-1 4 1.52-0.433 1.52-0.433 3.06-0.875 4.13-0.131 4.6-0.0852 7.56 2.38 3.31 3.22 5.99 6.55 8.38 10.5-1 3-1 3-3 5 0.664-0.0464 1.33-0.0928 2.01-0.141 4.31-0.176 7.18-0.286 11.1 1.77 2.33 2.85 2.78 4.72 2.94 8.38-0.33 0.66-0.66 1.32-1 2 0.99-0.33 1.98-0.66 3-1v-3c3.89 0.556 5.55 1.96 8 5 5 8.87 5 8.87 5 12h2c-0.33-1.32-0.66-2.64-1-4 3 0 3 0 5.31 2 2.07 2.17 3.73 4.48 5.44 6.94 2.85 3.93 6.07 6.25 10.2 8.74 1.99 1.29 3.52 2.51 5.05 4.32v2c0.619 0.186 1.24 0.371 1.88 0.562 3.16 2.14 3.18 4.84 4.12 8.44 1.53 2.02 2.67 2.84 4.94 3.94 2.06 1.06 2.06 1.06 3.75 2.79 3.45 3.39 7.32 6.21 11.2 9.12 3.6 2.77 6.35 5.53 9.13 9.15 0.99 0.66 1.98 1.32 3 2 1.19 3.12 1.19 3.12 2 6 1.13 0.147 1.13 0.147 2.27 0.297 4.77 1.23 7.26 4.56 9.73 8.7 0.518 2.23 0.953 4.49 1.31 6.75 0.741 4.7 0.741 4.7 3.98 7.87 2.66 1.05 2.66 1.05 5.33 1.67 2.62 0.783 3.72 1.57 5.38 3.71v2c0.804 0.34 0.804 0.34 1.62 0.688 6.86 3.79 9.91 7.94 12.4 15.3v2c0.866 0.0206 1.73 0.0412 2.62 0.0625 4.62 1.28 6.84 3.95 9.38 7.94 1.1 3.37 1.08 6.47 1 10 1.32 0.33 2.64 0.66 4 1 0.33 1.32 0.66 2.64 1 4-0.99 0.33-1.98 0.66-3 1 1.42-0.309 1.42-0.309 2.88-0.625 1.03-0.124 2.06-0.247 3.12-0.375l2 2c0.785 0.267 1.57 0.534 2.38 0.809 3.33 1.51 4.5 3.26 6.56 6.25 0.69 0.989 1.38 1.98 2.09 3 1.68 2.51 3.33 5.03 4.97 7.57 3.19 4.88 7.03 9.11 11 13.4-1.32 1.65-2.64 3.3-4 5v-2c-2.52 0.625-2.52 0.625-5 2-0.894 2.55-0.894 2.55-1 5h5v-2c0.949 0.0619 1.9 0.124 2.88 0.188 1.55-0.0928 1.55-0.0928 3.12-0.188 0.66-0.99 1.32-1.98 2-3h2c1.73 1.9 1.73 1.9 3.62 4.38 0.632 0.812 1.26 1.62 1.91 2.46 1.46 2.16 1.46 2.16 1.46 4.16 0.99 0.33 1.98 0.66 3 1 1.03 1.67 1.03 1.67 1.94 3.75 1.66 3.53 3.52 6.26 6.06 9.25 3.34 4.24 6.35 8.46 8.92 13.2 1.73 2.88 3.82 5.47 5.91 8.1 1.17 1.7 1.17 1.7 1.17 3.7h2c2.2 2.31 4.03 4.94 5.94 7.5 0.538 0.696 1.08 1.39 1.63 2.11 3.48 4.64 5.65 8.87 7.43 14.4 1.46 4.49 3.63 6.71 7 10 0.667 1.33 1.33 2.67 2 4 0.99 0.33 1.98 0.66 3 1 1.46 2.53 2.75 5 4 7.62 0.514 1.05 0.514 1.05 1.04 2.12 2.12 4.37 4.07 8.78 5.96 13.3 2.04 4.58 4.17 8.46 7.52 12.2 5.44 6.43 10.2 13.5 14.5 20.8 0.443 0.741 0.887 1.48 1.34 2.25 2.63 4.53 4.46 8.66 5.66 13.8-0.99 0.33-1.98 0.66-3 1 0.804 1.01 1.61 2.02 2.44 3.06 2.67 3.69 3.29 6.43 3.56 10.9h2c0.33-0.99 0.66-1.98 1-3 0.268 0.598 0.536 1.2 0.812 1.81 1.05 2.2 1.05 2.2 2.66 3.59 1.67 1.76 2.25 3.09 3.09 5.35 1.93 4.61 4.54 8.48 7.38 12.6 4.58 6.65 8.75 13.6 10.5 21.6 0.878 3.12 2.41 5.83 3.9 8.71 2.57 5.03 4.84 10.1 6.86 15.3 1.03 2.52 2.41 4.72 3.83 7.03 2.62 5.45 4.85 11.1 7.07 16.7 0.75 1.87 1.55 3.73 2.37 5.57 3.18 7.37 6.11 15 7.75 22.9 1.17 5.66 1.17 5.66 5.19 9.44 6.46 6 7.29 16 8.5 24.3 0.726 4.77 2.15 8.67 4.13 13.1 0.584 2.55 0.984 5.08 1.38 7.67 0.725 2.71 1.9 4.15 3.62 6.33 3.31 6.15 5.54 12.1 6.54 19 0.321 2.21 0.321 2.21 2.46 4 0.706 3.47 1.25 6.93 1.77 10.4 0.789 4.98 2.14 8.98 4.23 13.6 0.522 1.65 1 3.32 1.44 5 0.244 0.933 0.487 1.87 0.738 2.83 0.272 1.05 0.544 2.09 0.824 3.17 0.344 1.25 0.688 2.51 1.04 3.8 0.361 1.32 0.721 2.64 1.08 3.95 0.333 1.21 0.665 2.42 1.01 3.67 0.867 3.58 0.867 3.58 1.36 7.41 0.204 3.26 0.204 3.26 2.51 5.17 0.531 2.1 0.531 2.1 0.93 4.7 0.154 0.955 0.307 1.91 0.466 2.89 0.158 1.02 0.317 2.04 0.48 3.09 1.35 8.26 3.02 16.2 5.32 24.3 0.693 2.61 1.15 5.05 1.43 7.73 0.163 3.17 0.163 3.17 1.35 5.23 1.84 3.76 1.87 7.9 2.27 12 0.103 0.894 0.206 1.79 0.312 2.71 0.834 8.26 0.834 8.26-1.56 12.4-4.63 5.25-9.64 7.97-16.1 10.6-3.98 1.58-3.98 1.58-7.8 3.48-2.47 1.11-4.43 1.32-7.13 1.49-0.953 0.0703-1.91 0.141-2.89 0.213-1.99 0.131-3.98 0.259-5.97 0.383-5.47 0.409-9.31 1.13-14.2 3.88-2.33 0.0777-4.67 0.0897-7 0-0.66 0.33-1.32 0.66-2 1 0.25-2.38 0.25-2.38 1-5 2.15-1.46 3.4-2 6-2v-2c-0.66 0.33-1.32 0.66-2 1-6.35 0.465-12.7-0.264-19-1 0.33 1.32 0.66 2.64 1 4 0.969 0.144 1.94 0.289 2.94 0.438 3.06 0.562 3.06 0.562 4.06 1.56 0.0406 1.67 0.0427 3.33 0 5-0.66 0.33-1.32 0.66-2 1 0.33 0.99 0.66 1.98 1 3 1.32-0.33 2.64-0.66 4-1v2c-0.528 0.166-1.06 0.332-1.6 0.503-2.45 0.769-4.89 1.54-7.34 2.31-0.831 0.261-1.66 0.522-2.52 0.791-4.87 1.54-9.73 3.11-14.6 4.75-6.48 2.1-13.2 3.39-19.9 4.92-7.13 1.63-7.13 1.63-14.1 3.79-3.01 0.941-5.87 1.26-9 1.59-2.32 0.323-2.32 0.323-5.5 1.85-2.96 1.27-4.72 1.76-7.81 2.06-3.72 0.0554-3.72 0.0554-5.69 2.44-2.53 0.558-5.01 1.03-7.56 1.44-4.5 0.775-8.83 1.53-13.1 3.12-4.49 1.64-9 2.18-13.7 2.84-3.92 0.653-7.69 1.58-11.5 2.6-6.34 1.67-12.5 2.76-19.1 3.51-2.94 0.374-2.94 0.374-5.39 1.45-3.42 1.37-6.92 1.93-10.5 2.54-3.74 0.636-7.38 1.26-11 2.52-4.11 1.3-8.17 1.68-12.5 2.1-0.831 0.0864-1.66 0.173-2.52 0.262-2.03 0.21-4.07 0.413-6.11 0.613-0.33-1.32-0.66-2.64-1-4-0.33 0.66-0.66 1.32-1 2-2.44 1.19-2.44 1.19-5 2-0.66-0.33-1.32-0.66-2-1 1-2 1-2 2-3h-11v5c-6.36 2.9-12.3 4.6-19.2 5.51-2.74 0.382-2.74 0.382-5.07 1.48-3.76 1.41-7.46 1.69-11.4 2.07-1.14 0.117-1.14 0.117-2.3 0.236-3.08 0.316-6.16 0.63-9.25 0.912-4.23 0.415-8.12 1.15-12.2 2.25-6.02 1.31-12.2 1.82-18.3 2.54-8 0.936-15.9 1.87-23.8 3.55-4.13 0.802-8.3 1.18-12.5 1.57-0.85 0.0864-1.7 0.173-2.58 0.262-12.4 1.21-12.4 1.21-17.2-0.387-2.1 0.315-2.1 0.315-4.31 0.938-3.66 0.895-6.91 1.15-10.7 1.06-0.66 0.33-1.32 0.66-2 1-2.02 0.2-4.05 0.346-6.08 0.465-1.24 0.078-2.49 0.156-3.77 0.236-2.6 0.155-5.2 0.309-7.8 0.461-8.22 0.518-16.2 1.48-24.4 2.84-1.81 0.276-3.62 0.549-5.43 0.816-0.833 0.124-1.67 0.249-2.53 0.377-1.68 0.25-3.36 0.5-5.04 0.75-3.35 0.5-6.69 1-10 1.58-4.02 0.639-8.05 1.06-12.1 1.47-1.17 0.124-1.17 0.124-2.36 0.25-2.5 0.261-5.01 0.508-7.52 0.75-1.38 0.137-1.38 0.137-2.78 0.276-7.89 0.728-15.7 0.94-23.7 0.974-1.24 0.0206-2.48 0.0412-3.76 0.0625-1.19 0.00516-2.39 0.0103-3.62 0.0156-1.07 0.00935-2.14 0.0187-3.24 0.0283-5.25-0.635-9.07-3.92-12.9-7.36v-2c-0.99-0.33-1.98-0.66-3-1-4-4.34-4-4.34-4-8h-2c-6.77-14.1 0.466-29.7 5.12-43.6 0.36-1.08 0.719-2.16 1.09-3.27 2.64-7.89 2.64-7.89 3.79-10.2 2.88-0.125 2.88-0.125 6 0 0.66 0.66 1.32 1.32 2 2-0.454-0.722-0.908-1.44-1.38-2.19-2.85-4.94-4-7.87-2.81-13.6 0.192-0.964 0.384-1.93 0.582-2.92 0.605-2.33 0.605-2.33 1.61-3.33 0.467-2.14 0.898-4.29 1.31-6.44 0.906-4.38 1.88-8.41 3.69-12.5 2.31-5.32 3.27-10.8 4.29-16.4 0.711-3.61 0.711-3.61 1.68-6.91 1.32-4.73 2.14-9.5 2.97-14.3 2.12-12 4.76-23.7 8.06-35.4h2c-0.33-0.66-0.66-1.32-1-2 0.199-9.98 1.16-20.7 3.97-30.3 1.45-5.18 2.13-10.4 2.88-15.7 0.12-0.806 0.24-1.61 0.363-2.44 0.154-1.08 0.154-1.08 0.311-2.18 0.471-2.31 0.471-2.31 1.47-5.2 1.04-3.22 1.48-6.14 1.82-9.5 0.124-1.19 0.249-2.37 0.377-3.59 0.122-1.22 0.244-2.45 0.369-3.71 0.248-2.44 0.5-4.88 0.754-7.32 0.108-1.08 0.215-2.15 0.326-3.26 0.357-2.72 0.357-2.72 1.36-5.72v-4h2c-0.0838-0.675-0.168-1.35-0.254-2.05-0.102-0.892-0.204-1.78-0.309-2.7-0.157-1.32-0.157-1.32-0.316-2.67-0.119-2.53 0.256-4.15 0.879-6.58 0.425-3.03 0.702-6.08 1-9.12 0.131-1.31 0.131-1.31 0.265-2.66 0.663-6.88 1.11-13.8 1.39-20.7 0.241-5.36 0.241-5.36 1.34-7.56 0.496-4.17 0.718-8.37 1-12.6 0.0876-1.27 0.175-2.54 0.265-3.84 0.78-11.7 1.14-23.5 1.39-35.2 0.0163-0.685 0.0325-1.37 0.0493-2.08 0.0437-1.86 0.0815-3.73 0.119-5.59 0.174-2.68 0.174-2.68 1.17-3.68 0.0976-1.4 0.126-2.8 0.127-4.21 0.00282-0.907 0.00564-1.81 0.00854-2.75-0.00202-1-0.00405-2.01-0.00613-3.04 0.00175-1.05 0.0035-2.1 0.00531-3.18 0.00442-3.49 0.00148-6.98-0.00189-10.5 6.73e-4 -2.42 0.00164-4.83 0.0029-7.25 0.00148-5.07-6.79e-4 -10.1-0.00534-15.2-0.00569-6.51-0.00242-13 0.00357-19.5 0.00361-4.99 0.00247-9.98-1.28e-4 -15-6.69e-4 -2.4 1.58e-4 -4.8 0.00248-7.2 0.00253-3.35-0.00132-6.7-0.0069-10.1 0.00304-1.5 0.00304-1.5 0.00613-3.03-0.00423-1.37-0.00423-1.37-0.00854-2.76-3.77e-4 -0.793-7.54e-4 -1.59-0.00114-2.4-0.00593-2.01-0.00593-2.01-1.13-3.93-0.986-6.06-1.23-12.2-1.5-18.3-0.0833-1.74-0.167-3.48-0.25-5.22-0.127-2.71-0.252-5.42-0.375-8.12-0.121-2.64-0.248-5.27-0.375-7.91-0.0354-0.815-0.0709-1.63-0.107-2.47-0.113-4.1-0.113-4.1-1.39-7.94-0.196-1.44-0.344-2.88-0.465-4.33-0.0768-0.876-0.154-1.75-0.233-2.65-0.0792-0.933-0.158-1.87-0.24-2.83-0.55-13.5-0.55-13.5-4.06-26.2-0.282-2.3-0.513-4.61-0.719-6.91-0.0942-1.03-0.0942-1.03-0.19-2.09-0.201-2.21-0.396-4.42-0.591-6.62-0.196-2.19-0.393-4.37-0.591-6.56-0.181-2-0.359-4-0.536-6-0.386-3.95-0.864-7.88-1.37-11.8h-1c-1.65-10.6-3.3-21.1-5-32h-1c-0.159-1.27-0.317-2.54-0.48-3.86-1.37-10.5-3.14-20.6-5.81-30.9-1.29-5.05-2.08-9.9-2.44-15.1-0.42-3.32-1.94-6.13-3.28-9.18-0.586-2.81-1.05-5.61-1.47-8.45-0.404-2.51-0.404-2.51-1.5-4.46-1.41-2.84-1.86-5.67-2.47-8.77-1-4.88-2.16-9.52-3.83-14.2-0.754-2.16-1.37-4.34-1.98-6.54-1.74-5.96-4.12-11.7-6.5-17.4-0.304-0.752-0.608-1.5-0.921-2.28-0.279-0.675-0.559-1.35-0.847-2.04-0.481-1.83-0.481-1.83 0.519-4.83 0.99 0.33 1.98 0.66 3 1-0.66-0.949-1.32-1.9-2-2.88-2-3.12-2-3.12-2-5.12h-3v-4c-0.467-2.26-0.971-4.51-1.5-6.75-1.17-5.26-1.82-9.88-1.5-15.2-1.05-0.186-2.1-0.371-3.19-0.562-3.68-1.1-5.67-2.86-7.78-6.15-1.22-2.7-1.73-5.25-2.28-8.16-1.96-9.8-7.21-18.5-12.5-26.9-1.69-3-1.93-5.84-2.26-9.24 1.32 0.66 2.64 1.32 4 2-0.33-1.98-0.66-3.96-1-6h-2v2c-1.84-0.141-1.84-0.141-4-1-1.38-2.55-1.38-2.55-2.56-5.75-1.52-4.05-3.21-7.55-5.44-11.2-0.837-1.65-1.65-3.31-2.45-4.98-0.437-0.918-0.874-1.84-1.32-2.78-0.447-0.946-0.895-1.89-1.36-2.87-0.455-0.954-0.91-1.91-1.38-2.89-4.62-9.73-4.62-9.73-3.93-14 0.144-1.13 0.289-2.27 0.438-3.44-0.66-0.66-1.32-1.32-2-2 1.98-0.495 1.98-0.495 4-1v-2c-0.846 0.124-1.69 0.248-2.56 0.375-4.9-0.535-7.01-3.03-10.4-6.38-0.928-0.763-1.86-1.53-2.81-2.31-2.95-3.63-3.99-7.03-4.19-11.7 1.06-2.75 1.06-2.75 3-5 0.742-0.908 1.49-1.81 2.25-2.75 4.29-3.51 8.28-3.11 13.6-3.62zm-4.88 11.4c0.33 0.66 0.66 1.32 1 2h5c-2.82-2.28-2.82-2.28-6-2zm33 5c0.33 0.66 0.66 1.32 1 2 0.33-0.66 0.66-1.32 1-2h-2zm4 7c-1.22 1.01-1.22 1.01-1.25 3.06 0.343 4.03 1.73 7.19 3.25 10.9 0.99-0.33 1.98-0.66 3-1-0.33-1.32-0.66-2.64-1-4 3.34 1.11 4.64 2.47 7 5-0.33-1.65-0.66-3.3-1-5h4c-0.498-2.76-0.498-2.76-2-5-2.33-0.345-4.67-0.678-7-1-0.99-0.33-1.98-0.66-3-1v-2h-2zm-20 7c1.94 4.59 3.49 6.81 8 9-0.33-1.65-0.66-3.3-1-5h2c-0.33-1.98-0.66-3.96-1-6-3.72-0.201-4.77-0.152-8 2zm-6 13v2h2v-2h-2zm58 8v2h2v-2h-2zm-38 24v5c0.66-1.32 1.32-2.64 2-4-0.66-0.33-1.32-0.66-2-1zm66 0v3c3.2 1.6 5.72 0.0317 9-1-0.33-0.66-0.66-1.32-1-2h-8zm63 40c-0.99 0.66-1.98 1.32-3 2h4c-0.33-0.66-0.66-1.32-1-2zm4 1 1 2zm-12 14c0.33 0.99 0.66 1.98 1 3 0.99-0.33 1.98-0.66 3-1v-2h-4zm-91 7c-1.29 1.06-1.29 1.06-1.1 3.5 0.0116 1.01 0.0232 2.02 0.0352 3.06 0.00902 1.01 0.018 2.02 0.0273 3.07 0.0116 0.782 0.0232 1.56 0.0352 2.37h2c1.26-2.52 1.1-4.31 1.06-7.12-0.00902-0.91-0.018-1.82-0.0273-2.76-0.0116-0.699-0.0232-1.4-0.0352-2.12h-2zm143 0c0.33 0.99 0.66 1.98 1 3v-3h-1zm-142 12v8c0.99-0.33 1.98-0.66 3-1-0.66-2.31-1.32-4.62-2-7h-1zm143 5c-0.33 1.32-0.66 2.64-1 4h3v-4h-2zm27 3 1 2zm-2 11v1h-8c-0.66 1.32-1.32 2.64-2 4l2 3 1-1h3c0.33-0.66 0.66-1.32 1-2 0.66 0.33 1.32 0.66 2 1 2.61-0.894 2.61-0.894 5-2-0.33-1.32-0.66-2.64-1-4h-3zm-1 17v2c1.67-0.0309 1.67-0.0309 3.38-0.0625 3.62 0.0625 3.62 0.0625 5.62 1.06 2.12-0.892 2.12-0.892 4-2v-2c-1.79-0.027-3.58-0.0464-5.38-0.0625-1.5-0.0174-1.5-0.0174-3.02-0.0352-2.59-0.0824-2.59-0.0824-4.6 1.1zm-138 7c0.33 1.98 0.66 3.96 1 6h1v-6h-2zm169 1c0.33 0.99 0.66 1.98 1 3 0.99-0.33 1.98-0.66 3-1l-4-2zm-167 10c-0.33 0.66-0.66 1.32-1 2h2c-0.33-0.66-0.66-1.32-1-2zm190 14c-0.33 0.66-0.66 1.32-1 2 1.29 2.57 2.33 3.01 5 4 2.2-0.298 2.2-0.298 4-1-2.31-2.56-2.31-2.56-5-5h-3zm9 6 1 2zm-16 11c-1.94 2.39-1.94 2.39-3 5 0.983 1.21 0.983 1.21 2.85 1.1 2.05-0.0326 4.1-0.0651 6.15-0.0977 1.01-3.05 1.01-3.05 0-6-2.87-0.417-2.87-0.417-6 0zm-17 3v2l2-1-2-1zm-168 1c-0.33 0.99-0.66 1.98-1 3h4c-0.33-0.99-0.66-1.98-1-3h-2zm221 1v6l2 1c-0.33-2.31-0.66-4.62-1-7h-1zm2 23c0.33 0.99 0.66 1.98 1 3h2c-0.33-0.99-0.66-1.98-1-3h-2zm0 3 1 3zm25 10v4h2c-0.66-1.32-1.32-2.64-2-4zm0 16-2 1c0.33 0.66 0.66 1.32 1 2 0.722-0.144 1.44-0.289 2.19-0.438l5.62-1.12c0.722-0.144 1.44-0.289 2.19-0.438v-2c-3.79-1.26-5.34-0.401-9 1zm28 27c-0.33 3.3-0.66 6.6-1 10 3.75 1.4 3.75 1.4 6 0v-4h-2c0.33-1.32 0.66-2.64 1-4h7v-2h-11zm6 8 1 2zm32 18 1 3zm-302 23 1 4zm28 12c-0.892 5.81-1 11.1-0.562 17 0.0522 0.775 0.104 1.55 0.158 2.35 0.128 1.88 0.265 3.77 0.404 5.65 0.99 0.33 1.98 0.66 3 1 0.33-8.58 0.66-17.2 1-26h-4zm-23 22v6h1v-6h-1zm332 52 2 2c0.33-0.66 0.66-1.32 1-2h-3zm-326 8 1 2zm363 16 4 1zm28 23 2 3v-3h-2zm-17 1c0.33 0.99 0.66 1.98 1 3 0.33-0.99 0.66-1.98 1-3h-2zm15 7c-0.66 1.32-1.32 2.64-2 4 1.98-0.267 1.98-0.267 4-1 0.33-0.99 0.66-1.98 1-3h-3zm-372 62c-0.274 7.77 0.282 15.3 1.21 23 0.948 7.99 1.4 16 1.79 24 0.66 0.33 1.32 0.66 2 1 0.208-9.56-0.322-18.9-1.17-28.5-0.206-2.34-0.396-4.67-0.586-7.01-0.129-1.49-0.259-2.97-0.391-4.46-0.0553-0.698-0.111-1.4-0.168-2.11-0.156-1.66-0.411-3.32-0.684-4.96-0.66-0.33-1.32-0.66-2-1zm407 12c0.33 1.32 0.66 2.64 1 4 1.32-0.33 2.64-0.66 4-1-1.65-0.99-3.3-1.98-5-3zm1 22c0.33 0.99 0.66 1.98 1 3h2v-3h-3zm5 0v3c0.99-0.33 1.98-0.66 3-1l-3-2zm-2 3c0.144 0.681 0.289 1.36 0.438 2.06 0.632 3.3 1.11 6.61 1.56 9.94 1.29-1.56 1.29-1.56 2-4-0.424-2.78-1.19-5.3-2-8h-2zm-12 8c-0.33 1.32-0.66 2.64-1 4h4c-0.66-1.32-1.32-2.64-2-4h-1zm26 6c-2.24 3.37-2.2 4.22-1.98 8.11 0.0516 0.983 0.103 1.97 0.156 2.98l0.195 3.1c0.0567 1.04 0.113 2.07 0.172 3.14 0.141 2.56 0.293 5.12 0.453 7.67 3.01 0.934 3.87 1.04 7 0 0.495-4.46 0.495-4.46 1-9 0.99-0.33 1.98-0.66 3-1 0.417-3.37 0.417-3.37 0-7-2.34-1.75-2.34-1.75-5-3-1.31-2.19-1.31-2.19-2-4h5v-3c-2.95 0-5.27 0.919-8 2zm-448 11v6h1v-6h-1zm4 28c-0.33 3.3-0.66 6.6-1 10 2.3-3.44 2.54-5.94 3-10h-2zm-4 15 1 2zm-1 4c-0.133 0.869-0.266 1.74-0.402 2.63-0.177 1.15-0.353 2.3-0.535 3.49-0.174 1.14-0.348 2.27-0.527 3.45-0.491 3.15-1.01 6.29-1.54 9.43h2c0.99-6.27 1.98-12.5 3-19h-2zm-10 45 1 2zm-5 26 1 4zm519 21c-1.26 2.91-2 4.8-2 8 1.65-0.33 3.3-0.66 5-1 0.33-2.31 0.66-4.62 1-7h-4zm-518 4c-0.66 1.98-1.32 3.96-2 6 0.99 0.33 1.98 0.66 3 1v-7h-1zm502 13c0.66 1.32 1.32 2.64 2 4 0.33-1.32 0.66-2.64 1-4h-3zm-513 15 1 2zm10 1v4h2v-4h-2zm517 6c-2.62 8.51-4.25 17.1-3 26 1.49 0.99 1.49 0.99 3 2 0.33-0.66 0.66-1.32 1-2-0.33-0.99-0.66-1.98-1-3-0.578-7.84 0.499-15.3 2-23h-2zm10 12v12h3c-0.114-1.81-0.241-3.63-0.375-5.44-0.0696-1.01-0.139-2.02-0.211-3.06-0.137-0.826-0.273-1.65-0.414-2.5-0.66-0.33-1.32-0.66-2-1zm-528 9 1 2zm-15 1 1 2zm497 7c-0.33 0.66-0.66 1.32-1 2 5.71 0.993 11.2 1.1 17 1 0.33-0.99 0.66-1.98 1-3h-17zm24 13c-0.33 0.66-0.66 1.32-1 2h3v-2h-2zm-505 1c0.66 0.66 1.32 1.32 2 2v-2h-2zm495 1v2h5v-3c-2.21-0.105-2.21-0.105-5 1zm26 1-2 2c0.99 0.33 1.98 0.66 3 1 0.33-0.99 0.66-1.98 1-3h-2zm-3 2c-2.34 2.67-2.34 2.67-3 6 1.32-0.66 2.64-1.32 4-2-0.33-1.32-0.66-2.64-1-4zm-82 13v2h4v-3c-2.07-0.149-2.07-0.149-4 1zm5 0 1 2zm-468 2 1 2zm487 2v3zm-462 4c-0.66 3.3-1.32 6.6-2 10 1.32-0.33 2.64-0.66 4-1v-9h-2zm-20 7c-0.33 0.66-0.66 1.32-1 2h2c-0.33-0.66-0.66-1.32-1-2zm393 9c2.97 0.33 5.94 0.66 9 1v-3c-5.02-0.503-5.02-0.503-9 2zm-386 0c-1.08 3.45-1.05 6.5-0.914 10.1 0.0438 1.2 0.0877 2.39 0.133 3.62 0.0516 1.25 0.103 2.5 0.156 3.78 0.0438 1.22 0.0877 2.43 0.133 3.69 0.139 3.61 0.308 7.21 0.492 10.8 0.0519 1.15 0.104 2.29 0.157 3.48 0.0641 1.07 0.128 2.14 0.194 3.24 0.0524 0.948 0.105 1.9 0.159 2.87 0.566 2.78 1.19 3.77 3.49 5.41h3c-0.165-0.66-0.33-1.32-0.5-2-0.622-3.73-0.564-7.22-0.5-11h-2c0.0954-0.562 0.191-1.12 0.289-1.7 1.21-9.21 0.00859-18.1-1.09-27.3-0.199-2-0.199-2-0.199-5h-3zm14 0c-0.058 3.27-0.0936 6.54-0.125 9.81-0.0168 0.929-0.0335 1.86-0.0508 2.81-0.00645 0.893-0.0129 1.79-0.0195 2.71-0.0105 0.822-0.0209 1.64-0.0317 2.49 0.0871 2.47 0.0871 2.47 2.23 5.18v-22c-0.66-0.33-1.32-0.66-2-1zm364 12v2c4.62-0.33 9.24-0.66 14-1v-1h-14zm-138 1v1h6v-1h-6zm95 12 4 1zm-354 1c-1.8 3.83-2.2 6.78-2 11 1.93-2.9 2.3-3.9 2.62-7.19 0.124-1.26 0.247-2.52 0.375-3.81h-1zm338 1c3.12 0.967 5.52 0.99 8.75 0.562 0.799-0.102 1.6-0.204 2.42-0.309 0.603-0.0838 1.21-0.168 1.83-0.254-4.75-3.17-7.78-1.57-13 0zm-330 17v6c0.66-0.33 1.32-0.66 2-1-0.33-1.65-0.66-3.3-1-5h-1zm-9 5c0.33 2.31 0.66 4.62 1 7h4c-1.25-3.65-1.67-4.78-5-7zm151 3c-0.99 1.49-0.99 1.49-2 3 0.99 1.49 0.99 1.49 2 3 0.99-0.33 1.98-0.66 3-1 0.733-2.02 0.733-2.02 1-4-1.32-0.33-2.64-0.66-4-1zm-134 1v3c2.97 0.33 5.94 0.66 9 1-0.33-0.99-0.66-1.98-1-3-2.71-1.35-5.01-1.07-8-1zm-10 10c0.66 1.32 1.32 2.64 2 4 0.66-0.33 1.32-0.66 2-1-0.979-1.02-1.98-2.02-3-3h-1zm27 0c-0.66 0.66-1.32 1.32-2 2 0.66 0.66 1.32 1.32 2 2 0.99-0.99 1.98-1.98 3-3-0.99-0.33-1.98-0.66-3-1zm3 1 1 2zm-6 1 1 2z" fill="#FBFCFE"/>
<path transform="translate(313,196)" d="m0 0c6.23 0.109 9.18 1.55 13.9 5.45 2.76 2.07 5.67 3.24 8.85 4.55 2.93 1.32 5.5 3.03 8.19 4.78 2.12 1.27 4.25 2.21 6.53 3.15 4.65 1.98 8.83 4.56 12.5 8.06 0.495 1.49 0.495 1.49 1 3 0.99 0.33 1.98 0.66 3 1v3c1.56 0.482 3.12 0.961 4.69 1.44 0.87 0.267 1.74 0.534 2.64 0.809 2.55 0.717 5.08 1.27 7.68 1.75v2c0.804 0.248 1.61 0.495 2.44 0.75 2.56 1.25 2.56 1.25 3.38 3.38 0.0619 0.619 0.124 1.24 0.188 1.88 0.701-0.144 1.4-0.289 2.12-0.438 3.96 0.602 5.16 2.53 7.64 5.52 1.28 1.99 1.8 3.61 2.23 5.92h2v2c1.18 0.0206 2.35 0.0412 3.56 0.0625 5.38 0.631 8.18 3.85 11.4 7.94 0.33 0.66 0.66 1.32 1 2 1.49 0.495 1.49 0.495 3 1-0.33-1.32-0.66-2.64-1-4 1.67 1 3.33 2 5 3 0.866 0.516 1.73 1.03 2.62 1.56 1.82 1.1 3.61 2.26 5.38 3.44v3c0.763 0.268 1.53 0.536 2.31 0.812 2.56 1.13 3.88 2.1 5.69 4.19l-4 2c2.17 2.5 3.73 3.44 7 4v-2c3.43 0.635 5.76 1.98 8.62 3.94 0.776 0.525 1.55 1.05 2.35 1.59 2.02 1.47 2.02 1.47 4.02 3.47v3c0.619 0.248 1.24 0.495 1.88 0.75 2.51 1.48 2.89 2.69 4.12 5.25 0.99 0.33 1.98 0.66 3 1 0.268 0.742 0.536 1.49 0.812 2.25 1.6 3.71 4.03 5.29 7.19 7.75 0.619 0.66 1.24 1.32 1.88 2 4.24 3.99 8.22 7 14.1 7 0.248 0.784 0.495 1.57 0.75 2.38 1.47 3.08 2.24 3.3 5.25 4.62 2.25 2 2.25 2 4 4v2c1.32 0.33 2.64 0.66 4 1-2 1-2 1-5.12 0.0625-0.949-0.351-1.9-0.701-2.88-1.06 0.66 0.99 1.32 1.98 2 3 0.722-0.0825 1.44-0.165 2.19-0.25 4 0.355 5.21 2.5 7.84 5.38 2.73 2.59 5.77 4.06 9.16 5.64 2.31 1.57 2.28 2.58 2.82 5.24 1.64 1.36 3.31 2.7 5 4v2c0.639 0.268 1.28 0.536 1.94 0.812 2.06 1.19 2.06 1.19 3.06 4.19 1.69 1.53 1.69 1.53 3.75 2.94 0.721 0.523 1.44 1.05 2.18 1.59 0.682 0.487 1.36 0.975 2.07 1.48 2.83 2.08 4.69 3.46 6.44 6.5 2 3.19 4.4 4.52 7.56 6.5 3.58 2.92 5.75 6.94 6.31 11.5 0.456 2.61 0.456 2.61 2.65 3.95 0.797 0.379 1.59 0.758 2.41 1.15 3.04 1.48 5.46 2.73 7.62 5.38v2h3c0.303 0.736 0.606 1.47 0.918 2.23 2.39 5.57 4.41 9.76 9.08 13.8 1.28 1.22 2.55 2.45 3.81 3.69 0.605 0.581 1.21 1.16 1.83 1.76 1.36 1.55 1.36 1.55 1.36 3.55 0.886 0.364 0.886 0.364 1.79 0.734 4 2.29 6.33 6.13 8.21 10.3-0.625 3.56-0.625 3.56-2 6 1.89 0.681 1.89 0.681 4 1 0.66-0.66 1.32-1.32 2-2 10.6 10.2 10.6 10.2 11 15.9l-0.0625 2.09c0.0779 2.46 0.773 3.9 2.06 5.97 2.03 1.27 2.03 1.27 4 2 0.504 5.29-0.811 7.81-4 12 0.641-0.0464 1.28-0.0928 1.94-0.141 6.04-0.252 10.4 0.086 15.1 4.14 2.02 2.16 3.85 4.26 5 7-0.375 2.22-0.375 2.22-1 4h-7v2c1.07-0.248 2.14-0.495 3.25-0.75 3.75-0.25 3.75-0.25 6.12 1.25 4.13 6.35 2.57 14.3 1.62 21.5-0.33 0.99-0.66 1.98-1 3-0.0864 1.59-0.121 3.17-0.125 4.76-0.232 16.7-2.81 32.4-6.31 48.7-0.51 2.45-1.02 4.9-1.53 7.35-1.13 5.46-2.28 10.9-3.44 16.4-0.748 3.58-1.45 7.16-2.14 10.8-0.451 2.09-0.451 2.09-1.51 5.47-1.09 4.23-1.35 8.28-1.66 12.6-0.58 6.28-2.26 12.1-4.28 18-0.756 2.83-1.5 5.67-2.22 8.51-0.781 2.49-0.781 2.49-2.78 5.49-0.66 2.76-1.24 5.49-1.77 8.28-0.334 1.66-0.67 3.33-1.01 4.99-0.522 2.62-1.04 5.24-1.54 7.86-0.487 2.53-1 5.06-1.52 7.59-0.143 0.784-0.286 1.57-0.433 2.38-0.776 3.7-1.18 5.52-4.34 7.73-0.789 0.386-1.58 0.772-2.39 1.17-0.531 3.06-0.531 3.06-0.188 6.44 0.442 7.34 0.442 7.34-1.81 10.6-2.12 0.75-2.12 0.75-4 1 0.356 0.526 0.712 1.05 1.08 1.59 1.29 3.36 0.544 5.45-0.328 8.91-0.273 1.12-0.547 2.25-0.828 3.41-0.922 3.09-0.922 3.09-1.95 5.12-1.28 2.61-1.67 5.19-2.22 8.04-0.762 3.25-0.762 3.25-1.75 5.94-1.98 1.05-3.97 2.05-6 3-0.827 2.51-1.2 4.94-1.57 7.55-0.595 3.39-2 6.01-4.43 8.45-0.321 1.41-0.607 2.83-0.875 4.25-0.805 3.8-1.96 6.5-4.12 9.75-0.68 1.66-1.35 3.33-2 5-0.33 0.33-0.66 0.66-1 1-0.322 1.56-0.608 3.12-0.875 4.69-0.81 4.25-2.15 7.45-4.12 11.3-0.792 2.69-1.49 5.4-2.16 8.12-0.813 2.77-1.88 5.34-3.05 7.98-1.73 4.13-3.07 8.42-4.46 12.7-1.58 4.62-3.45 8.29-6.34 12.2-0.33-0.66-0.66-1.32-1-2-1.36 1.13-1.36 1.13-1.06 4.06 0.0309 1.45 0.0309 1.45 0.0625 2.94l-2-3c-2.06-0.724-2.06-0.724-4-1-1.88 5.64-0.925 11.2 0 17 0 3.22-1.24 5.36-3 8-2.57 0.695-2.57 0.695-5.69 1.12-1.08 0.157-2.15 0.315-3.26 0.477-1.76 0.23-3.53 0.456-5.3 0.672-3.34 0.415-4.87 0.802-7.76 2.73-1.91 0.395-1.91 0.395-4.05 0.598-0.78 0.0793-1.56 0.159-2.36 0.24-0.811 0.0741-1.62 0.148-2.46 0.225-1.6 0.156-3.2 0.313-4.8 0.473-0.709 0.0658-1.42 0.132-2.15 0.199-2.19 0.236-2.19 0.236-4.41 0.735-3.06 0.588-6.1 0.95-9.21 1.29-1.92 0.21-1.92 0.21-3.88 0.424-1.39 0.15-2.78 0.299-4.17 0.448-1.44 0.155-2.87 0.311-4.31 0.467-3 0.325-6.01 0.648-9.02 0.971-3.84 0.412-7.68 0.829-11.5 1.25-2.96 0.322-5.93 0.642-8.89 0.96-1.42 0.153-2.83 0.306-4.25 0.461-1.98 0.216-3.97 0.428-5.95 0.639-1.13 0.121-2.25 0.243-3.41 0.368-3.16 0.259-3.16 0.259-6.34 0.24-3 0.0207-5.51 0.718-8.38 1.51-5.07 1.07-10.3 1.21-15.4 1.51-0.33-1.32-0.66-2.64-1-4-0.712 0.959-0.712 0.959-1.44 1.94-3.57 2.88-7.04 3.1-11.6 3.06-0.99-0.33-1.98-0.66-3-1-0.66 0.165-1.32 0.33-2 0.5-2 0.5-2 0.5-5-0.5-0.866 0.474-1.73 0.949-2.62 1.44-6.3 2.92-11.7 2-18.2-0.125-4.28-1.67-6.78-3.26-9.19-7.31-0.33-0.33-0.66-0.66-1-1-0.0987-1.38-0.131-2.76-0.133-4.15-0.00193-1.26-0.00193-1.26-0.00391-2.55 0.00387-0.884 0.00773-1.77 0.0117-2.68-0.0058-1.31-0.0058-1.31-0.0117-2.66 0.00129-0.843 0.00258-1.69 0.00391-2.55 0.00113-0.774 0.00226-1.55 0.00342-2.35 0.129-2.07 0.129-2.07 1.13-5.07 0.447-2.37 0.883-4.75 1.31-7.12 0.987-5.16 2.25-9.78 4.58-14.5 1.98-4.25 3.4-8.72 4.94-13.1 0.879-2.43 1.81-4.72 2.92-7.04 1.37-3.49 1.63-6.47 1.94-10.2 0.408-2.67 1.33-4.2 3.31-6.02h2c-0.33-0.825-0.66-1.65-1-2.5-3.04-10.7 0.583-22.3 3.28-32.7 0.802-3.12 1.51-6.25 2.19-9.4 0.401-1.81 0.821-3.62 1.25-5.42 2.68-11.3 4.37-22.4 5.53-34 0.787-7.69 1.77-15.3 3.75-22.8 1.63-7.25 1.7-14.8 2.07-22.2 0.116-2.27 0.234-4.55 0.357-6.82 0.11-2.04 0.213-4.09 0.315-6.13 0.265-3.11 0.265-3.11 1.27-5.11 0.215-2.28 0.371-4.56 0.5-6.84 0.0605-1.05 0.0605-1.05 0.122-2.12 0.132-2.33 0.256-4.65 0.378-6.98 0.0649-1.21 0.0649-1.21 0.131-2.45 3.12-58.7 3.7-118-3.71-176-0.583-4.83-1.03-9.68-1.43-14.5h-1c-2.16-16.1-2.16-16.1-1.88-23.6 0.192-10.2-3.17-20.1-6.53-29.6-0.83-2.57-1.25-5.16-1.59-7.84h-1c-0.254-1.22-0.508-2.44-0.77-3.7-1.78-8.5-3.59-17-5.58-25.4-0.616-2.72-1.14-5.43-1.65-8.17-0.716-3.66-1.76-6.96-3.14-10.4-2.48-6.56-4.6-13.4-5.86-20.3h-1c-0.17-0.822-0.34-1.64-0.516-2.49-1.39-6.39-3.06-12.3-5.63-18.3-1.18-3.09-1.57-5.95-1.85-9.23h3c-0.33-0.722-0.66-1.44-1-2.19-1-2.81-1-2.81-0.812-5.25-0.24-3.27-1.73-4.47-3.88-6.82-2.39-3.18-3.2-6.97-4.3-10.7-0.649-1.67-1.31-3.34-2-5-1.98 0.99-1.98 0.99-4 2-0.364-0.617-0.727-1.23-1.1-1.87-2.57-4.32-5.17-8.54-8.09-12.6-2.65-3.89-3.85-7.55-5.04-12.1-1.51-4.72-4.34-8.73-7.53-12.5-1.25-1.94-1.25-1.94-1.56-5.25-0.813-4.36-2.3-5.85-5.25-8.98-1.96-2.34-2.72-4.77-3.43-7.71 1.32-0.66 2.64-1.32 4-2v2c3.36-2.24 3.69-3.34 5-7 0.33-0.33 0.66-0.66 1-1zm-1 2 1 3zm-5 7c0.66 0.66 1.32 1.32 2 2v-2h-2zm13 2c-0.99 1.49-0.99 1.49-2 3 3.29 0.8 4.71 1.1 8 0h-2v-2c-1.32-0.33-2.64-0.66-4-1zm-7 11 1 2zm12.8 0.938c-0.598 0.351-1.2 0.701-1.81 1.06v2c3.46-0.495 3.46-0.495 7-1v-2c-2.89-1.33-2.89-1.33-5.19-0.0625zm14.2 11.1c-0.33 1.32-0.66 2.64-1 4h4v-4h-3zm-2 4c-0.33 0.99-0.66 1.98-1 3h2c-0.33-0.99-0.66-1.98-1-3zm6 1c0.99 1.49 0.99 1.49 2 3v-3h-2zm35 0c-0.33 0.99-0.66 1.98-1 3 0.33 0.66 0.66 1.32 1 2h4c-0.66-1.65-1.32-3.3-2-5h-2zm-38 1 1 2zm42 12c-2.42 2.5-3 3.46-3 7h3c1.32-2.31 2.64-4.62 4-7h-4zm4 4 1 2zm-39 12c0.33 1.32 0.66 2.64 1 4 0.33-1.32 0.66-2.64 1-4h-2zm32 0c-0.99 1.49-0.99 1.49-2 3l2 2c1.32-0.66 2.64-1.32 4-2v-2c-1.32-0.33-2.64-0.66-4-1zm15 0v4c1.65-0.33 3.3-0.66 5-1-0.33-0.99-0.66-1.98-1-3h-4zm9 1v4c0.99 0.33 1.98 0.66 3 1v-4c-0.99-0.33-1.98-0.66-3-1zm-43 7c-0.33 0.66-0.66 1.32-1 2h3v-2h-2zm84 15-2 1c0.188 2.44 0.188 2.44 1 5 3.2 2.2 5.94 2.22 9.75 2.12 0.985-0.018 1.97-0.0361 2.98-0.0547 0.748-0.0232 1.5-0.0464 2.27-0.0703-0.33-0.99-0.66-1.98-1-3-1.96-0.954-1.96-0.954-4.31-1.56-2.45-0.716-4.6-1.39-6.86-2.59-0.907-0.42-0.907-0.42-1.83-0.848zm-94 9c0.33 1.65 0.66 3.3 1 5h2c-0.66-1.65-1.32-3.3-2-5h-1zm25 2c-0.33 0.99-0.66 1.98-1 3h3c-0.33-0.99-0.66-1.98-1-3h-1zm83 7v3c0.99-0.33 1.98-0.66 3-1v-2h-3zm15 11c2.15 3.22 3.59 4.29 7 6h4v-3c-1.27-0.506-2.54-1-3.81-1.5-0.708-0.278-1.42-0.557-2.14-0.844-2.16-0.809-2.16-0.809-5.04-0.656zm-25 4c0.33 0.66 0.66 1.32 1 2 1.89 0.0309 1.89 0.0309 3.81 0.0625 0.708 0.0116 1.42 0.0232 2.14 0.0352 2.25-0.015 2.25-0.015 5.04-1.1 1.03-0.144 2.06-0.289 3.12-0.438 0.949-0.186 1.9-0.371 2.88-0.562 0.33-0.66 0.66-1.32 1-2-6.65-0.25-12.6 0.26-19 2zm39 4c0.33 0.66 0.66 1.32 1 2 0.99-0.33 1.98-0.66 3-1-1.32-0.33-2.64-0.66-4-1zm21 30v2c0.99 0.33 1.98 0.66 3 1-0.33-0.99-0.66-1.98-1-3h-2zm4 1c0.33 1.98 0.66 3.96 1 6h4c-0.33-0.66-0.66-1.32-1-2h-2c-0.66-1.32-1.32-2.64-2-4zm-143 13 1 2zm137 4v2h2v-2h-2zm39 5 1 2zm-4 2c-0.33 0.66-0.66 1.32-1 2 1.65-0.33 3.3-0.66 5-1-1.32-0.33-2.64-0.66-4-1zm11 14v2h2c0.8 3.29 1.1 4.71 0 8l2 3c0.778-3.41 1.1-6.51 1-10h-2v-3h-3zm-12 11c0.66 0.66 1.32 1.32 2 2v-2h-2zm30 0c-3.21 1.71-3.21 1.71-4 4.81-0.32 3.35-0.32 3.35 2.12 6 2.83 2.15 4.39 2.89 7.88 3.19v-2h-2c0.0825-1.05 0.165-2.1 0.25-3.19-0.285-4.35-1.27-5.74-4.25-8.81zm-16 2 1 3zm2 0 1 2zm-14 2c-0.33 0.66-0.66 1.32-1 2h2c-0.33-0.66-0.66-1.32-1-2zm13 1c-0.33 1.32-0.66 2.64-1 4h3v-4h-2zm20 2 1 3zm-183 25v10c0.66-0.33 1.32-0.66 2-1v-9h-2zm23 5c-0.288 4.84-0.573 9.68-0.854 14.5-0.0962 1.64-0.193 3.29-0.291 4.93-0.141 2.37-0.279 4.75-0.417 7.12-0.0437 0.724-0.0875 1.45-0.133 2.19-0.272 4.76-0.342 9.48-0.305 14.2h3v-43h-1zm190 7c-0.33 2.97-0.66 5.94-1 9h4c-0.66-2.97-1.32-5.94-2-9h-1zm-8 4c-0.66 3.63-1.32 7.26-2 11 0.99-0.33 1.98-0.66 3-1 0.33-2.97 0.66-5.94 1-9-0.66-0.33-1.32-0.66-2-1zm18 14v3zm-6 11c-0.731 1.98-1.39 3.98-2 6 0.33 0.66 0.66 1.32 1 2 0.99-0.33 1.98-0.66 3-1v-7h-2zm-13 0-2 1c-0.269 4.65-0.269 4.65 1 9 0.225 1.54 0.408 3.08 0.562 4.62 0.0838 0.817 0.168 1.63 0.254 2.48 0.0606 0.626 0.121 1.25 0.184 1.9h2v-18c-0.66-0.33-1.32-0.66-2-1zm-206 11 1 4zm242 22c-0.33 1.32-0.66 2.64-1 4 0.66-0.33 1.32-0.66 2-1-0.33-0.99-0.66-1.98-1-3zm-239 80v10h1v-10h-1zm20 62v3c0.66-0.33 1.32-0.66 2-1v-2h-2zm-24 11 1 4zm204 40c0.33 0.66 0.66 1.32 1 2h2v-2h-3zm-208 2 1 3zm2 14 1 2zm0 3 1 2zm-9 28 1 2zm-9 44 1 2zm2 11 1 3zm181 6v4h4v-4h-4zm-186 6 1 2zm175 8c0.33 0.99 0.66 1.98 1 3v-3h-1zm-169 3v4h2v-4h-2zm169 1c-0.33 0.99-0.66 1.98-1 3h3v-3h-2zm-170 9c-0.66 1.32-1.32 2.64-2 4 0.598-0.165 1.2-0.33 1.81-0.5 2.19-0.5 2.19-0.5 5.19-0.5-0.33-0.99-0.66-1.98-1-3h-4zm174 11c0.33 0.66 0.66 1.32 1 2 0.33-0.66 0.66-1.32 1-2h-2zm-176 16v4c2.08 0.553 3.84 1 6 1v-4c-2.97-0.495-2.97-0.495-6-1zm12 17v1h38v-1h-38zm41 1 4 1zm14 1v2c1.65-0.33 3.3-0.66 5-1v-1h-5zm7 0c-0.33 0.66-0.66 1.32-1 2h11v-1c-3.3-0.33-6.6-0.66-10-1z" fill="#FBFCFE"/>
<path transform="translate(1143 1276)" d="m0 0c2.91 3.2 4.19 6.82 4.88 11.1-1 2.5-1 2.5-3 4-4.17 1.58-6.95 0.599-11-1v2c2.31 0.33 4.62 0.66 7 1 1.01 5.04 1.24 8.32-1 13-1.82 2.51-3.71 4.9-6 7h-2c-0.66 1.65-1.32 3.3-2 5h-2c-0.103 1.05-0.206 2.1-0.312 3.19-0.694 3.85-1.61 5.58-3.69 8.81-1.06 2.25-2.05 4.53-3.04 6.82-0.927 2.1-1.92 4.14-2.96 6.18-1.98-0.33-3.96-0.66-6-1 0.33 1.32 0.66 2.64 1 4h2c-1.58 6.82-4.51 11.4-9.06 16.6-3.15 3.84-5.22 6.82-5.38 11.9-0.352 4.34-1.58 6.26-4.56 9.5-1.56 2.86-2.9 5.76-4.16 8.76-0.423 0.987-0.846 1.97-1.28 2.99-0.391 0.944-0.781 1.89-1.18 2.86-1.54 2.68-2.51 3.38-5.38 4.39-0.681 0.124-1.36 0.247-2.06 0.375-2.72 0.878-3.54 2.18-4.94 4.62v4h3c-1.97 5.74-4.97 11.1-9.44 15.2-4.53 4.86-7.16 11.2-9.57 17.3-1.03 2.54-2.26 4.85-3.61 7.24-0.446 0.79-0.892 1.58-1.35 2.39-0.338 0.592-0.675 1.18-1.02 1.79h-2c-0.227 0.619-0.454 1.24-0.688 1.88-1.69 2.74-3.3 3.18-6.31 4.12 0.365 1.09 0.365 1.09 0.738 2.2 0.262 2.8 0.262 2.8-1.32 5.26-1.1 1.17-1.1 1.17-2.23 2.36-0.728 0.79-1.46 1.58-2.21 2.39-1.98 1.79-1.98 1.79-3.98 1.79-0.365 0.907-0.365 0.907-0.738 1.83-2.25 3.87-6.25 5.44-10.3 7.17-3.88 0.688-3.88 0.688-7 1-1.49 0.99-1.49 0.99-3 2-3.51 0.582-7.02 0.953-10.6 1.34-3.53 0.677-5.46 1.73-8.45 3.66-8.85 3.46-18.5 5.68-28 6-0.66-0.66-1.32-1.32-2-2-4.06 0.383-8.02 1.15-12 2v3c-4.91 1.17-9.83 2.33-14.8 3.47-1.94 0.455-3.89 0.921-5.83 1.39-7.5 1.73-14.9 2.74-22.6 3.4-4.65 0.419-9.05 1.19-13.6 2.25-3.72 0.794-7.47 1.16-11.2 1.54-0.742 0.078-1.48 0.156-2.25 0.236-1.5 0.157-2.99 0.312-4.49 0.463-1.54 0.162-3.08 0.335-4.62 0.519-4.21 0.5-8.27 0.818-12.5 0.719-3.17-0.0721-5.09-0.0122-8.12 1-9.32 1.34-18.7 1.05-28.1 0.873-6.04-0.0582-11.4 0.297-17.3 1.65-5.48 0.996-11.1 0.918-16.6 1.04-2.42 0.0597-4.83 0.123-7.25 0.191-1.06 0.0239-2.11 0.0479-3.2 0.0725-2.54 0.00865-2.54 0.00865-4.55 1.17-1.69 0.0963-3.39 0.131-5.09 0.133-1.01 0.00129-2.03 0.00258-3.07 0.00391-1.06-0.00387-2.12-0.00773-3.22-0.0117-1.05 0.00387-2.11 0.00773-3.2 0.0117-1.02-0.00129-2.03-0.00258-3.08-0.00391-1.39-0.00169-1.39-0.00169-2.82-0.00342-2.53-0.129-2.53-0.129-4.74-0.7-1.88-0.653-1.88-0.653-3.79 0.571-2.33 0.0972-4.67 0.13-7 0.125-1.26 0.00258-2.52 0.00516-3.81 0.00781-3.19-0.133-3.19-0.133-5.19-1.13-1.76-0.0806-3.53-0.0967-5.29-0.0818-1.66 0.0098-1.66 0.0098-3.35 0.0198-1.8 0.0172-1.8 0.0172-3.63 0.0347-2.52 0.0126-5.05 0.025-7.57 0.0371-3.99 0.0248-7.98 0.0528-12 0.0862-3.84 0.0302-7.68 0.048-11.5 0.0642-1.19 0.0135-2.39 0.0269-3.61 0.0408-1.67 0.00507-1.67 0.00507-3.38 0.0102-0.978 0.00746-1.96 0.0149-2.96 0.0226-2.92-0.252-5.05-1.04-7.71-2.23-1.55-0.389-3.12-0.745-4.69-1.06-2.34-0.475-4.18-0.87-6.31-1.94-1.81-0.147-3.62-0.221-5.44-0.25-0.968-0.0258-1.94-0.0516-2.93-0.0781-2.67 0.0277-2.67 0.0277-3.88 1.84-2.7 2.29-4.97 1.74-8.44 1.6-0.987-0.0361-0.987-0.0361-1.99-0.0729-2.11-0.081-4.21-0.184-6.32-0.286-1.39-0.0547-2.77-0.108-4.16-0.16-21.4-0.846-21.4-0.846-24.8-2.59-1.79-0.119-3.57-0.179-5.36-0.211-1.11-0.0264-2.21-0.0529-3.35-0.0801-1.78-0.0416-1.78-0.0416-3.6-0.084-12.1-0.354-23.8-1.59-35.7-3.62-1.09-0.18-2.18-0.361-3.3-0.547-0.892-0.15-1.78-0.299-2.7-0.453-1.11-0.178-1.11-0.178-2.25-0.359-8.67-1.54-17-4.49-25.2-7.56-8.16-2.98-17-4.26-25.7-4.08-3.68 0-4.84-0.272-7.88-2-0.66 0.66-1.32 1.32-2 2-7.53 0.119-14.8-0.973-22-3-2.33-0.402-4.65-0.707-7-1-0.99-2.47-0.99-2.47-2-5 0.33-0.33 0.66-0.66 1-1-1.03-0.124-2.06-0.247-3.12-0.375-3.88-0.625-3.88-0.625-7-1.69-2.88-0.938-4.88-1.35-7.88-0.938-0.66 0.99-1.32 1.98-2 3-1.65-0.33-3.3-0.66-5-1v-2h-2v2h-5c-0.33-0.99-0.66-1.98-1-3-1.16-0.33-2.31-0.66-3.5-1-1.16-0.33-2.31-0.66-3.5-1-0.33-0.99-0.66-1.98-1-3-0.99-0.33-1.98-0.66-3-1-4-5.37-4-5.37-4-8-1.65 0.33-3.3 0.66-5 1v-2c-0.605-0.246-1.21-0.492-1.83-0.746-2.55-1.47-3.4-2.79-4.86-5.32-1.45-2.63-1.45-2.63-3.31-4.94-0.273-2.33-0.518-4.66-0.75-7-0.742-6.56-2.42-11.6-6.25-17h2c-2.83-3.25-4.69-4.52-9-5 0.33-1.32 0.66-2.64 1-4h-2v2c-0.99 0.33-1.98 0.66-3 1-1.04-1.07-2.05-2.16-3.06-3.25-0.568-0.603-1.14-1.21-1.72-1.83-1.21-1.92-1.21-1.92-0.785-4 0.282-0.951 0.282-0.951 0.57-1.92-1.8-2.56-1.8-2.56-4-5-0.284-0.647-0.567-1.29-0.859-1.96-1.45-2.59-3.11-3.55-5.58-5.16-4.58-3.39-5.67-6.12-6.89-11.6-0.991-3.38-3.01-5.11-5.68-7.3-2-2-2-2-2.31-4.31 0.312-2.69 0.312-2.69 1.81-5 2.09-3.75 1.72-6.43 1.5-10.7-2.97 0.342-2.97 0.342-6 1-1.6 3.19-0.00981 5.69 1 9 0.354 1.66 0.696 3.33 1 5-2.3-1.78-3.8-3.16-4.49-6.05-0.235-1.98-0.379-3.97-0.512-5.95h-2c-2.26-2.5-4.12-5.32-6.06-8.06-0.832-1.13-0.832-1.13-1.68-2.28-3.28-4.62-5.09-7.95-5.26-13.7 0.827-2.98 1.83-3.87 4.25-5.81 3.41-1.47 5.18-0.948 8.75-0.188 1.34-0.312 2.67-0.647 4-1 2.97-0.102 5.91-0.141 8.88-0.125 0.909 0.00348 1.82 0.00696 2.75 0.0105 6.17 0.0431 12.3 0.154 18.5 0.341 0.719 0.0217 1.44 0.0435 2.18 0.0659 0.74 0.0224 1.48 0.0447 2.24 0.0678 21.3 0.642 42.6 0.79 63.9 0.774 4.75-0.00261 9.5-1.64e-4 14.3 0.00139 7.96 0.0018 15.9-5.22e-4 23.9-0.00534 9.1-0.00545 18.2-0.00367 27.3 0.00183 7.93 0.00459 15.9 0.00515 23.8 0.00256 4.69-0.00153 9.37-0.00185 14.1 0.00154 28.9 0.018 57.8-0.275 86.6-2.01 2.21-0.132 4.42-0.254 6.63-0.375 1.43-0.0827 2.87-0.166 4.3-0.25 1.24-0.0722 2.48-0.144 3.76-0.219 2.84-0.1 2.84-0.1 4.9-1.28 2.57-0.0694 5.12 0.00278 7.69 0.0625 2.34 0.0999 2.34 0.0999 4.31-1.06 1.74-0.133 3.48-0.206 5.22-0.25 1.65-0.0456 1.65-0.0456 3.33-0.0921 1.2-0.0291 2.41-0.0581 3.65-0.0881 2.58-0.072 5.16-0.144 7.74-0.217 1.37-0.0375 2.74-0.0748 4.11-0.112 21.3-0.585 42.6-1.36 63.9-3.28 0.712-0.064 1.42-0.128 2.16-0.194 1.85-0.17 3.71-0.348 5.56-0.528 3.31-0.244 3.31-0.244 6.99-0.218 2.8-0.0218 4.67-0.318 7.32-1.03 2.31-0.215 4.61-0.388 6.93-0.535 0.666-0.043 1.33-0.086 2.02-0.13 1.41-0.0899 2.81-0.178 4.22-0.265 2.13-0.131 4.27-0.269 6.4-0.408 18.5-1.17 18.5-1.17 22.4 1.34h-2c0.33 0.66 0.66 1.32 1 2 0.99-0.66 1.98-1.32 3-2 1.27-0.217 1.27-0.217 2.56-0.438 2.79-0.351 2.79-0.351 4.44-3.56 3.19-0.695 3.19-0.695 7-1.12 4.66-0.4 4.66-0.4 9-1.88 2.16-0.261 4.32-0.467 6.48-0.648 0.668-0.0571 1.34-0.114 2.03-0.173 2.23-0.189 4.45-0.371 6.68-0.554 1.56-0.13 3.12-0.26 4.68-0.39 4.17-0.347 8.35-0.686 12.5-1.02 2.63-0.213 5.26-0.428 7.9-0.644 4.37-0.357 8.74-0.708 13.1-1.05 1.67-0.133 3.35-0.267 5.02-0.403 9.21-0.745 18.3-1.33 27.6-1.11v-2c9.05-3.17 18.2-4.35 27.7-5.66 2.91-0.428 5.8-0.987 8.7-1.53 7-1.14 14-0.89 21.1-0.651 1.37 0.0303 1.37 0.0303 2.77 0.0613 0.818 0.0284 1.64 0.0569 2.48 0.0862 2.83-0.385 4.03-1.6 6.27-3.31 2.38-0.568 2.38-0.568 5-0.844 1.44-0.165 1.44-0.165 2.92-0.334 1.02-0.106 2.03-0.213 3.08-0.323 7.03-0.821 13.7-1.76 20.6-3.68 10.3-2.49 21.1-4 31.6-5.38 2.73-0.144 2.73-0.144 3.83-1.45 2.68-0.565 5.36-1.08 8.06-1.56 0.818-0.149 1.64-0.298 2.48-0.452 2.63-0.479 5.27-0.953 7.9-1.43 3.44-0.622 6.87-1.25 10.3-1.87 0.825-0.15 1.65-0.3 2.5-0.454 11.4-2.05 11.4-2.05 22.7-4.8 1.34-0.373 1.34-0.373 2.71-0.754 1.79-0.522 3.57-1.09 5.35-1.68 1.05 0.0619 1.05 0.0619 2.12 0.125 2.84-0.124 4.72-0.68 7.38-1.62 4.26-1.48 7.34-2.45 11.6-0.562zm-53.1 18.1v1c5.36 0.537 5.36 0.537 10-1.5 0.33-0.495 0.66-0.99 1-1.5-4.08 0-7.12 0.807-11 2zm-99 12 1 2zm27 10c-0.66 0.66-1.32 1.32-2 2 0.983 1.21 0.983 1.21 2.85 1.1 2.05-0.0326 4.1-0.0651 6.15-0.0977-0.33-0.66-0.66-1.32-1-2-2.93-0.836-2.93-0.836-6-1zm-97 1c0.33 0.99 0.66 1.98 1 3h5c-0.33-0.66-0.66-1.32-1-2-2.53-0.656-2.53-0.656-5-1zm160 7 1 3zm29 0c0.66 0.66 1.32 1.32 2 2v-2h-2zm-93 1 4 1zm-195 2 1 2zm259 1c0.138 4.46 0.287 8.92 0.438 13.4 0.0393 1.27 0.0786 2.54 0.119 3.85 0.0419 1.21 0.0838 2.42 0.127 3.67 0.0367 1.12 0.0733 2.24 0.111 3.4 0.0313 2.67 0.0313 2.67 1.21 4.71h5c0.301-3.31-0.0266-5.06-1.44-8.12-1.86-4.19-2.33-8.28-2.75-12.8-0.0819-0.779-0.164-1.56-0.248-2.36-0.198-1.9-0.383-3.8-0.564-5.7h-2zm-232 4v2h-2v2h3c0.33-0.99 0.66-1.98 1-3-0.66-0.33-1.32-0.66-2-1zm7 0c0.33 0.99 0.66 1.98 1 3 0.99-0.66 1.98-1.32 3-2-1.32-0.33-2.64-0.66-4-1zm-94 1c-0.33 0.66-0.66 1.32-1 2h8c-0.33-0.66-0.66-1.32-1-2h-6zm10 0c-0.33 0.66-0.66 1.32-1 2 1.32-0.33 2.64-0.66 4-1-0.99-0.33-1.98-0.66-3-1zm38-2c-0.495 0.33-0.99 0.66-1.5 1-4.87 1.95-10.1 1.08-15.2 0.438-3.34-0.416-6.04-0.388-9.31 0.562v2c3.56 0.256 7.12 0.475 10.7 0.688 1.51 0.109 1.51 0.109 3.05 0.221 7.13 0.488 7.13 0.488 13.3-2.91-0.33-0.66-0.66-1.32-1-2zm44 4c0.33 0.66 0.66 1.32 1 2h2v-2h-3zm-193 1 4 1zm436 2 1 3zm0 5c0.33 0.99 0.66 1.98 1 3 0.33-0.99 0.66-1.98 1-3h-2zm-758 8c-0.33 1.65-0.66 3.3-1 5 3 0.332 3 0.332 4.69-1.5 0.433-0.495 0.866-0.99 1.31-1.5-0.66-0.66-1.32-1.32-2-2h-3zm22 1c-0.33 0.99-0.66 1.98-1 3h4c-0.33-0.99-0.66-1.98-1-3h-2zm728 2 1 2zm-728 22c-0.66 1.32-1.32 2.64-2 4 1.48 0.99 1.48 0.99 3 2 0.66-1.65 1.32-3.3 2-5-0.99-0.33-1.98-0.66-3-1zm10 44 1 2zm683 10v3h2v-3h-2zm-660 24 1 3zm13 5v2h6c-2.82-2.28-2.82-2.28-6-2zm555 1v2c2.31 0.33 4.62 0.66 7 1l1-2c-2.71-1.35-5.01-1.07-8-1zm-534 11 3 2v-2h-3zm22 0v1h5v-1h-5zm7 0v1c3.02 0.169 6.04 0.335 9.06 0.5 1.27 0.0715 1.27 0.0715 2.57 0.145 4.8 0.259 9.56 0.408 14.4 0.355v-2h-26zm572 2c-0.66 1.32-1.32 2.64-2 4 2.31-0.99 4.62-1.98 7-3v-1h-5zm-17.8 5.5c-1.33 0.0715-1.33 0.0715-2.68 0.145-2.17 0.117-4.34 0.236-6.51 0.355l-1 2c3.6 0.029 7.21 0.0468 10.8 0.0625 1.54 0.0126 1.54 0.0126 3.1 0.0254 0.983 0.00322 1.97 0.00645 2.98 0.00977 0.906 0.00524 1.81 0.0105 2.75 0.0159 2.51-0.0143 2.51-0.0143 5.36-1.11v-2c-4.95-0.082-9.87 0.227-14.8 0.5zm-91.2 10.5-1 2c2.78 2.33 2.78 2.33 5.69 1.62 0.763-0.206 1.53-0.412 2.31-0.625v-3h-7zm45 0v2h3v-2h-3zm-14 1v1h11v-1h-11zm-26 3 1 2zm-5 6c-0.33 1.65-0.66 3.3-1 5 0.66-0.33 1.32-0.66 2-1 2.1-0.223 4.21-0.393 6.32-0.535 1.26-0.087 2.51-0.174 3.81-0.264 1.33-0.088 2.66-0.176 4-0.264 1.34-0.0914 2.68-0.183 4.02-0.275 3.28-0.225 6.57-0.445 9.86-0.662-3.47-2.31-4.69-2.19-8.75-2.06-3.5 0.0674-6.59 0.0129-10.1-0.5-3.61-0.495-6.62-0.0925-10.2 0.562z" fill="#FBFCFE"/>
<path transform="translate(709,519)" d="m0 0c2.93 0.338 3.91 0.905 5.96 3.11 0.918 1.31 0.918 1.31 1.86 2.64 0.625 0.861 1.25 1.72 1.89 2.61 1.52 3.1 1.33 4.42 0.293 7.64h-4v2c1.65-0.33 3.3-0.66 5-1 1.69 4.58 2.67 9.13 3.54 13.9 0.266 2.05 0.266 2.05 1.46 3.07 0.629 3.64 1.19 7.29 1.72 10.9 0.722 4.66 1.81 8.79 3.57 13.2 1.09 2.88 1.7 5.82 2.34 8.82 0.542 3.84 0.542 3.84 2.38 7.06 0.271 1.35 0.49 2.71 0.684 4.08 0.185 1.25 0.185 1.25 0.373 2.52 0.252 1.75 0.502 3.5 0.75 5.26 0.124 0.837 0.249 1.67 0.377 2.54 0.109 0.763 0.218 1.53 0.33 2.31 0.43 2.36 0.43 2.36 1.48 4.75 1.06 2.71 1.49 5.09 1.85 7.97 0.129 1.03 0.258 2.05 0.391 3.11 0.189 1.59 0.189 1.59 0.383 3.22 0.134 1.05 0.268 2.09 0.406 3.17 0.893 7.29 1.53 14.3 0.441 21.6-0.556 4.07-0.36 7.82-0.0352 11.9 0.0522 0.732 0.104 1.46 0.158 2.22 0.128 1.78 0.265 3.56 0.404 5.35 1.65 0.66 3.3 1.32 5 2 1.05 7.91 2.09 15.8 3.13 23.7 0.481 3.67 0.964 7.35 1.45 11 0.473 3.55 0.939 7.11 1.4 10.7 0.262 2 0.53 4 0.798 6 0.816 6.32 1.41 12.4 1.18 18.8-0.168 1.8-0.168 1.8 1.04 2.77 0.222 2.55 0.382 5.07 0.5 7.62 0.0371 0.783 0.0741 1.57 0.112 2.37 0.0391 0.828 0.0783 1.66 0.119 2.51 0.159 3.32 0.334 6.63 0.532 9.95 1.07 19.2 0.889 38.4 0.867 57.6-0.00571 5.09-0.0024 10.2 0.00357 15.3 0.00365 3.99 0.00245 7.97-1.28e-4 12-6.56e-4 1.87 1.1e-4 3.75 0.00248 5.62 0.00965 9.76-0.123 19.5-0.582 29.3-0.0387 0.857-0.0774 1.71-0.117 2.6-0.313 5.98-0.313 5.98-1.44 8.23-0.0211 2.08 0.00974 4.17 0.0625 6.25 0.0967 6.92-0.374 13.7-1 20.6-0.0869 0.981-0.174 1.96-0.263 2.97-0.669 7.02-0.669 7.02-1.8 8.15-0.0232 1.35 0.00762 2.71 0.0586 4.06 0.0655 6.68-0.824 13.2-1.71 19.8-0.287 2.13-0.562 4.27-0.836 6.4-1.37 10.4-1.37 10.4-2.51 12.7 0 2 0.00232 4 0.0273 6-0.0332 2.43-0.517 4.62-1.03 7-0.163 1.42-0.309 2.84-0.445 4.27-0.0866 0.891-0.173 1.78-0.262 2.7-0.145 1.5-0.145 1.5-0.292 3.04-0.468 4.79-0.949 9.58-1.44 14.4-0.122 1.26-0.244 2.51-0.369 3.81-0.187 1.81-0.187 1.81-0.377 3.65-0.109 1.09-0.218 2.18-0.33 3.3-0.463 2.73-1.21 4.45-2.49 6.87-0.414 1.95-0.414 1.95-0.562 3.98-0.11 1.12-0.11 1.12-0.223 2.27-0.0708 0.785-0.142 1.57-0.215 2.38-0.656 6.56-1.54 12.9-3 19.4-0.153 0.776-0.307 1.55-0.465 2.35-0.623 3.08-1.32 6.15-2.04 9.21-0.258 1.12-0.516 2.23-0.781 3.38-0.384 1.64-0.772 3.27-1.18 4.9-0.643 2.59-1.24 5.18-1.84 7.78-0.254 1.1-0.508 2.2-0.77 3.34-0.264 1.15-0.529 2.3-0.801 3.48-0.518 2.25-1.04 4.5-1.55 6.75-0.257 1.12-0.514 2.24-0.779 3.39-0.54 2.34-1.09 4.68-1.64 7.02-0.269 1.15-0.538 2.3-0.816 3.48-0.244 1.03-0.487 2.06-0.739 3.13-0.524 2.44-0.898 4.82-1.16 7.31-0.404 3.23-0.881 5.65-2.44 8.5-0.99 0.33-1.98 0.66-3 1-0.121 1.11-0.242 2.22-0.367 3.36-0.169 1.46-0.338 2.93-0.508 4.39-0.0786 0.73-0.157 1.46-0.238 2.21-0.449 3.8-1.14 6.68-2.89 10-0.397 2.26-0.724 4.53-1 6.81-0.646 4.92-1.43 9.48-3 14.2h-3c0.371 0.804 0.743 1.61 1.12 2.44 1.1 4.46 0.813 8.35-1.12 12.6-2.09 1.27-2.09 1.27-4 2-0.33-1.32-0.66-2.64-1-4-0.33 0.99-0.66 1.98-1 3 0.33 0.66 0.66 1.32 1 2h3c-0.282 1.63-0.576 3.25-0.875 4.88-0.244 1.36-0.244 1.36-0.492 2.74-0.633 2.38-0.633 2.38-2.63 4.38-0.569 2.09-1.06 4.2-1.5 6.31-0.863 4.11-1.9 7.81-3.5 11.7-0.504 1.76-0.982 3.54-1.44 5.31-2.48 9.27-5.82 17.9-11.6 25.7h-2c-0.227 0.742-0.454 1.49-0.688 2.25-1.59 3.33-3.26 4.72-6.31 6.75-3.19 1.04-6.26 1.19-9.59 1.32-1.1 0.0419-2.21 0.0838-3.35 0.127-1.17 0.0393-2.35 0.0786-3.56 0.119-1.8 0.0648-1.8 0.0648-3.64 0.131-8.32 0.279-16.6 0.392-24.9 0.27-4.09-0.16-4.09-0.16-7.92 1.04-2.35 0.126-4.71 0.188-7.06 0.221-0.727 0.0115-1.45 0.023-2.2 0.0349-2.41 0.0368-4.82 0.0664-7.23 0.0955-1.67 0.0231-3.34 0.0465-5.01 0.0702-3.51 0.0485-7.01 0.0934-10.5 0.136-4.5 0.0548-8.99 0.119-13.5 0.185-3.45 0.0501-6.91 0.0952-10.4 0.139-1.66 0.0216-3.32 0.0447-4.97 0.0695-2.32 0.0338-4.63 0.0611-6.95 0.0865-1.32 0.017-2.64 0.0339-4 0.0514-3.19-0.089-3.19-0.089-6.19-1.09-0.66 0.33-1.32 0.66-2 1-3.34 0.36-6.71 0.431-10.1 0.562-1.55 0.0626-1.55 0.0626-3.13 0.126-9.58 0.343-19.2 0.42-28.7 0.436-0.743 0.00259-1.49 0.00518-2.25 0.00784-2.11 0.00582-4.23 0.00429-6.34-3.05e-5 -1.84-0.00169-1.84-0.00169-3.71-0.00342-2.76-0.129-2.76-0.129-3.76-1.13-1.46-0.0839-2.93-0.0963-4.4-0.0823-0.991 0.00552-1.98 0.011-3 0.0167-1.13 0.01-2.26 0.0201-3.42 0.0304-2.58 0.0111-5.15 0.0205-7.73 0.0269-1.08 0.00299-1.08 0.00299-2.18 0.00604-17.4 0.0333-34.8-0.203-52.2-0.37-5.84-0.0557-11.7-0.106-17.5-0.154-4.53-0.0389-9.07-0.082-13.6-0.126-2.16-0.0203-4.31-0.039-6.47-0.0561-2.99-0.0241-5.98-0.0541-8.98-0.0856-0.879-0.00576-1.76-0.0115-2.66-0.0174-11.5-0.137-11.5-0.137-14.7-2.63-1.12-1.56-1.12-1.56-1.12-3.56 0.699 0.144 1.4 0.289 2.12 0.438 0.91 0.186 1.82 0.371 2.76 0.562 0.905 0.186 1.81 0.371 2.74 0.562 2.31 0.498 2.31 0.498 4.38 0.438-0.309-0.928-0.619-1.86-0.938-2.81l-2.06-6.19c-2.88 1.29-4.87 2.66-7 5-0.495-1.49-0.495-1.49-1-3-0.66-0.33-1.32-0.66-2-1 0.249-3.36 1.16-4.14 3.75-6.44l1.64-1.29c5.65-4.48 10.6-10.3 14.6-16.3h2c0.259-0.722 0.518-1.44 0.785-2.19 1.27-2.93 2.78-5.23 4.65-7.81 1.8-2.49 3.5-4.88 4.96-7.58 1.93-2.9 3.93-4.22 6.86-6.11 5.76-4.03 9.05-8.44 12.8-14.3 3.22-4.63 6.24-8.82 11-12h2c0.99-2.47 0.99-2.47 2-5h2c0.392-0.928 0.784-1.86 1.19-2.81 1.94-3.41 3.34-4.5 6.81-6.19v3c2.08-1.04 2.08-1.04 4-3 0.368-2.33 0.702-4.66 1-7 0.99-0.66 1.98-1.32 3-2 0.392-1.22 0.784-2.43 1.19-3.69 1.78-5.2 5.38-8.23 9.81-11.3 0.99-0.33 1.98-0.66 3-1 0.33-0.66 0.66-1.32 1-2 0.619 0.66 1.24 1.32 1.88 2 1.88 2.23 1.88 2.23 4.12 2-0.206-1.28-0.412-2.56-0.625-3.88-0.352-2.18-0.352-2.18-0.375-4.12 0.66-0.66 1.32-1.32 2-2h3c0.33-0.66 0.66-1.32 1-2 0.625 3.38 0.625 3.38 1 7-0.66 0.66-1.32 1.32-2 2h4c-0.165-0.722-0.33-1.44-0.5-2.19-0.476-2.68-0.577-5.1-0.5-7.81-1.32-0.33-2.64-0.66-4-1 0.33-1.32 0.66-2.64 1-4h2c0.402-1.7 0.402-1.7 0.812-3.44 0.392-1.18 0.784-2.35 1.19-3.56 0.99-0.33 1.98-0.66 3-1 0.33-0.66 0.66-1.32 1-2 0.33-0.33 0.66-0.66 1-1 0.124-0.722 0.248-1.44 0.375-2.19 1.2-5.41 3.9-9.75 7.62-13.8 1.32-0.684 2.66-1.35 4-2 0.846-0.866 1.69-1.73 2.56-2.62 2.44-2.38 2.44-2.38 5.44-2.38 0.098-0.664 0.196-1.33 0.297-2.01 1.14-6.76 2.56-10.7 8.27-14.9 3.06-2.66 3.87-5.43 5.44-9.12 2.19-1.44 2.19-1.44 4-2v2h2c0.66 2.64 1.32 5.28 2 8 0.99-0.33 1.98-0.66 3-1-0.433-0.804-0.433-0.804-0.875-1.62-1.29-2.73-2.21-5.5-3.12-8.38h-2c-0.905-2.48-1.17-3.59-0.145-6.07 0.44-0.678 0.879-1.36 1.33-2.05 0.427-0.683 0.853-1.37 1.29-2.07 1.68-2 3.21-2.67 5.52-3.8 0.656-2.53 0.656-2.53 1-5 0.66-0.33 1.32-0.66 2-1 0.268-0.825 0.536-1.65 0.812-2.5 0.392-0.825 0.784-1.65 1.19-2.5 2.62-0.812 2.62-0.812 5-1 0.33-0.99 0.66-1.98 1-3 1.56-1.69 1.56-1.69 3-3h-2c-0.33 0.66-0.66 1.32-1 2-0.391-4.44 0.615-7.25 3-11 2.19-0.875 2.19-0.875 4-1 0.165-0.928 0.33-1.86 0.5-2.81 1.37-4.92 4.56-8.53 7.6-12.5 2.25-3.14 3.51-6.07 4.9-9.65 2.27-3.75 2.27-3.75 5.19-4.75 0.598-0.0825 1.2-0.165 1.81-0.25 0.433-1.67 0.433-1.67 0.875-3.38 1.12-3.62 1.12-3.62 3.12-5.62 0.34-1.89 0.34-1.89 0.688-3.81 1.46-7.21 5.09-16 11.3-20.2 0.656-2 1.3-4.01 1.92-6.02 1.41-3.9 3.18-7.58 5.02-11.3 0.336-0.694 0.672-1.39 1.02-2.1 1.92-3.83 3.79-6.71 7.04-9.59 0.908-0.908 1.82-1.82 2.75-2.75 0.743-0.743 1.49-1.48 2.25-2.25v3c0.66-1.65 1.32-3.3 2-5h2c0.268-0.887 0.536-1.77 0.812-2.69 1.19-3.31 1.19-3.31 2.71-5.58 1.81-3.36 1.99-6 2.29-9.8 0.787-7.62 3.44-13.3 7.19-19.9 0.738-1.56 1.47-3.12 2.19-4.69 1.81-3.31 1.81-3.31 4.81-4.31 2.69 1.94 2.69 1.94 5 4-1.87-3.63-1.87-3.63-5-6 0.427-1.9 0.867-3.79 1.31-5.69 0.244-1.06 0.487-2.11 0.738-3.2 1.53-5.02 3.55-8.23 7.95-11.1-0.33-0.66-0.66-1.32-1-2-1.11-7.28 2.36-12.9 6-19 1.02-1.29 2.06-2.56 3.12-3.81 3.19-4 4.16-8.21 5.34-13.1 1.17-4.87 2.68-9.5 4.47-14.2 0.385-1.01 0.385-1.01 0.777-2.03 1.19-3.08 2.41-6.15 3.64-9.22 2.78-7 4.89-13.9 6.65-21.2 0.995-3.42 2.37-6.25 3.99-9.41 3.14-8.53 5.68-17.2 8-26 2.22-8.22 4.61-16.2 8-24 0.66 0.33 1.32 0.66 2 1 0.414 2.07 0.414 2.07 0.625 4.56 0.112 1.24 0.112 1.24 0.227 2.5 0.049 0.638 0.098 1.28 0.148 1.93 1.49-2.48 1.49-2.48 3-5 0.66 0.66 1.32 1.32 2 2-0.168-0.652-0.335-1.3-0.508-1.98-1.24-5.32-1.92-8.89 0.508-14h-2c-0.66 1.65-1.32 3.3-2 5-2.22-6.65 0.376-14 2.25-20.5 2.08-7.57 3.79-15.2 5.31-22.9 0.313-1.58 0.313-1.58 0.632-3.19 0.996-5.09 1.95-10.2 2.83-15.3 1.49-8.48 2.91-15.9 6.94-23.6 1.66-4.1 1.69-8.22 1.79-12.6 0.238-2.95 0.238-2.95 1.22-5.32 1.04-2.68 1.38-4.79 1.58-7.64 0.0735-0.972 0.147-1.94 0.223-2.94 0.0709-1.04 0.142-2.08 0.215-3.15 0.0812-1.08 0.162-2.16 0.246-3.28 0.259-3.45 0.507-6.91 0.754-10.4 0.247-3.44 0.496-6.88 0.754-10.3 0.16-2.14 0.314-4.28 0.461-6.41 0.582-7.79 1.54-15.3 4.79-22.5 0.66 1.32 1.32 2.64 2 4 1.61-3.65 2.45-7.05 3-11-1.98-0.495-1.98-0.495-4-1-0.625-2.38-0.625-2.38-1-5 2.36-2.36 3.78-2.49 7-3 0.33-1.65 0.66-3.3 1-5zm-2 15 1 4zm-3 11 1 2zm-6 9v5h1v-5h-1zm8 19 1 2zm0 3v15h2c-0.33-4.95-0.66-9.9-1-15h-1zm25 21c-0.99 0.66-1.98 1.32-3 2v3c1.32 0.33 2.64 0.66 4 1-0.33 0.99-0.66 1.98-1 3h2c1.35-2.71 1.07-5.01 1-8-0.99-0.33-1.98-0.66-3-1zm-18 1c-1.04 4.88-0.861 8.17 0.391 13.1 1.29 6.16 1.73 12.5 2.37 18.7 0.236 2.17 0.511 4.33 0.796 6.5 0.441 3.69 0.441 3.69 0.441 7.69h3c-0.666-9.9-2.09-19.6-3.71-29.4-0.916-5.84-1.62-10.8-0.285-16.6h-3zm17 17v8c0.66-0.33 1.32-0.66 2-1-0.33-2.31-0.66-4.62-1-7h-1zm-47 32 1 2zm15 0c-2.14 3.2-2.23 4.02-2.12 7.69 0.018 0.808 0.0361 1.62 0.0547 2.45 0.0232 0.615 0.0464 1.23 0.0703 1.86 0.99 0.495 0.99 0.495 2 1 0.33-4.29 0.66-8.58 1-13h-1zm-12 3c-0.908 3.87-1.13 7.47-1.12 11.4-0.00258 1.09-0.00516 2.18-0.00781 3.31 0.129 3.17 0.542 6.14 1.13 9.25h2c-0.33-7.92-0.66-15.8-1-24h-1zm-8 23 1 2zm-5 20 1 2zm1 35c-0.99 0.495-0.99 0.495-2 1v2c0.99-0.33 1.98-0.66 3-1-0.33-0.66-0.66-1.32-1-2zm-9 20c-0.99 0.99-1.98 1.98-3 3 3.18 0.277 3.18 0.277 6-2-0.99-0.33-1.98-0.66-3-1zm-47 101 1 2zm26 18v4c0.66-1.32 1.32-2.64 2-4h-2zm-27 6c-2.62 1.39-2.62 1.39-5 3 0.33 0.66 0.66 1.32 1 2 2.53 0.656 2.53 0.656 5 1-0.33-1.32-0.66-2.64-1-4 0.66-0.33 1.32-0.66 2-1-0.66-0.33-1.32-0.66-2-1zm0 15c0.33 0.66 0.66 1.32 1 2 0.66-0.33 1.32-0.66 2-1-0.99-0.33-1.98-0.66-3-1zm-22 24 1 3zm-5 27c-1.29 1.06-1.29 1.06-1.1 3.5 0.0116 1.01 0.0232 2.02 0.0352 3.06 0.00902 1.01 0.018 2.02 0.0273 3.07 0.0116 0.782 0.0232 1.56 0.0352 2.37 0.99-0.33 1.98-0.66 3-1 0.33-3.3 0.66-6.6 1-10-0.99-0.33-1.98-0.66-3-1zm-16.7 23.5c-1.21 0.696-1.21 0.696-2.45 1.41-0.615 0.361-1.23 0.722-1.86 1.09-0.99-0.99-1.98-1.98-3-3-1.35 3.02-1.35 3.02 0.125 6.06 2.1 3.29 3.2 3.9 6.88 4.94 0.66 0.33 1.32 0.66 2 1 0.625 2.56 0.625 2.56 1 5 0.66-0.33 1.32-0.66 2-1 1.05-4.54 1.33-9.2 1.72-13.8 0.281-2.17 0.281-2.17 1.28-4.17-3.44 0-4.75 0.796-7.69 2.5zm16.7 3.5c-0.33 1.32-0.66 2.64-1 4 1.32-0.99 2.64-1.98 4-3-0.99-0.33-1.98-0.66-3-1zm-10 1 1 3zm12 2c-0.66 0.66-1.32 1.32-2 2h3c-0.33-0.66-0.66-1.32-1-2zm-29.5 5.19c-1.58 1.82-1.58 1.82-2.86 4.11-2.21 3.64-4.76 6.99-7.31 10.4-0.657 1.14-0.657 1.14-1.33 2.3 0.33 0.99 0.66 1.98 1 3 1.17-1.62 2.34-3.25 3.5-4.88 0.65-0.905 1.3-1.81 1.97-2.74 1.71-2.19 1.71-2.19 1.53-4.38 0.99-0.33 1.98-0.66 3-1 2.73-2.31 2.73-2.31 5-5v-3c-2.93-0.31-2.93-0.31-4.5 1.19zm164-0.188c-1.41 2.83-0.91 4.96-0.66 8.1 0.0935 1.21 0.187 2.42 0.283 3.67 0.104 1.27 0.208 2.54 0.314 3.85 0.0999 1.28 0.2 2.56 0.303 3.88 0.248 3.17 0.502 6.33 0.76 9.5h1v-29h-2zm-136 14c-0.33 3.96-0.66 7.92-1 12h2c0.33-3.63 0.66-7.26 1-11-0.66-0.33-1.32-0.66-2-1zm-40 6-2 3c0.33 0.99 0.66 1.98 1 3 0.99-1.65 1.98-3.3 3-5-0.66-0.33-1.32-0.66-2-1zm195 3c-1.5 3.37-2 5.2-2 9h-2c-0.698 2.43-1.38 4.87-2.06 7.31-0.199 0.69-0.398 1.38-0.604 2.09-1.2 4.29-1.2 4.29-0.334 8.6 1.66 0.382 3.32 0.714 5 1 2.1-2.1 1.37-6.58 1.5-9.5 0.302-6.2 0.701-12.3 1.5-18.5h-1zm-199 4 1 2zm-1 2 1 2zm-20 30 1 2zm-7 10 1 2zm-2 6c-0.33 1.32-0.66 2.64-1 4 0.66-0.33 1.32-0.66 2-1-0.33-0.99-0.66-1.98-1-3zm2 3v2h2v-2h-2zm-6 2c-0.507 2.06-1.01 4.12-1.5 6.19-0.278 1.15-0.557 2.3-0.844 3.48-0.571 2.9-0.789 5.39-0.656 8.33 2.4-2.4 2.75-4.05 3.62-7.31 0.391-1.42 0.391-1.42 0.789-2.86 0.561-2.7 0.696-5.07 0.586-7.82h-2zm5 0v3zm201 3v6h1v-6h-1zm-1 7 1 3zm-195 7c-0.66 2.31-1.32 4.62-2 7h3c0.33-2.31 0.66-4.62 1-7h-2zm-14 1c-0.33 0.66-0.66 1.32-1 2h2c-0.33-0.66-0.66-1.32-1-2zm207 0v4h2c-0.33-1.32-0.66-2.64-1-4h-1zm3 1v2c0.66-0.33 1.32-0.66 2-1-0.66-0.33-1.32-0.66-2-1zm-236 25 1 2zm-24 32c-0.66 1.32-1.32 2.64-2 4 0.99-0.33 1.98-0.66 3-1 0.33-0.99 0.66-1.98 1-3h-2zm9 2v7c2.48 0.99 2.48 0.99 5 2v-2h2c-0.33-0.99-0.66-1.98-1-3 0.99-0.66 1.98-1.32 3-2-0.66-1.32-1.32-2.64-2-4-3.11 0-4.35 0.539-7 2zm-15 15c-2.53 3.31-2.53 3.31-2.69 7.31 0.227 0.557 0.454 1.11 0.688 1.69 3.14-4.1 3.14-4.1 4-9h-2zm29 0c-1.24 2.49-1.13 4.23-1.12 7-0.00258 0.887-0.00516 1.77-0.00781 2.69-0.0185 2.34-0.0185 2.34 1.13 4.31h3v-14h-3zm-19 11c0.33 0.99 0.66 1.98 1 3 0.33-0.99 0.66-1.98 1-3h-2zm1 5c-0.99 0.99-1.98 1.98-3 3 0.33 0.66 0.66 1.32 1 2 0.99-0.66 1.98-1.32 3-2-0.33-0.99-0.66-1.98-1-3zm-47 18v4c1.65-0.33 3.3-0.66 5-1-1.37-1.54-1.37-1.54-3-3h-2zm19 0c-0.33 0.99-0.66 1.98-1 3 2.97 0.495 2.97 0.495 6 1-0.66-1.32-1.32-2.64-2-4h-3zm25 2c0.33 0.99 0.66 1.98 1 3h8v-3h-9zm-46 8c-0.66 1.32-1.32 2.64-2 4 0.949-0.351 1.9-0.701 2.88-1.06 3.12-0.938 3.12-0.938 5.12 0.0625-0.33-0.99-0.66-1.98-1-3h-5zm289 0c-0.33 0.66-0.66 1.32-1 2h2c-0.33-0.66-0.66-1.32-1-2zm-289 4 4 1zm-12 2c-0.33 0.99-0.66 1.98-1 3 0.99-0.33 1.98-0.66 3-1v-2h-2zm25 10v3c0.99-0.33 1.98-0.66 3-1v-2h-3zm264 29c-0.33 0.99-0.66 1.98-1 3h2c-0.33-0.99-0.66-1.98-1-3zm-283 2c1.96 2.41 1.96 2.41 5.62 2.12 1.11-0.0412 2.23-0.0825 3.38-0.125 0.33-0.66 0.66-1.32 1-2-3.58-1.24-6.34-0.749-10 0zm-2 1c-2.61 0.894-2.61 0.894-5 2 0.33 0.66 0.66 1.32 1 2l6-3c-0.66-0.33-1.32-0.66-2-1zm271 6c-0.33 1.32-0.66 2.64-1 4 0.99-0.33 1.98-0.66 3-1 1.33 0.667 2.67 1.33 4 2 0.99-0.33 1.98-0.66 3-1-2.73-3.29-2.73-3.29-6.75-4.25-1.11 0.124-1.11 0.124-2.25 0.25zm-27 1v2h3v-2h-3zm15 2c-0.825 0.949-1.65 1.9-2.5 2.88-0.464 0.534-0.928 1.07-1.41 1.62-1.29 1.47-1.29 1.47-1.09 3.51 0.99-0.33 1.98-0.66 3-1v-2c1.32 0.33 2.64 0.66 4 1 0.33-0.99 0.66-1.98 1-3-0.99-0.99-1.98-1.98-3-3zm-4 12c0.33 0.66 0.66 1.32 1 2 0.33-0.66 0.66-1.32 1-2h-2z" fill="#FBFCFE"/>
<path transform="translate(1239,317)" d="m0 0c4.97 7.45 5.49 17.6 7.06 26.2 1.26 6.75 2.8 13.3 4.94 19.8 0-2.88-0.386-4.34-1.31-7-1.88-6-2.73-12.1-3.6-18.3-0.603-4.19-1.36-7.79-3.09-11.7-0.376-1.99-0.72-3.99-1-6 3.15 0.7 6.07 1.65 9 3 0.33 0.66 0.66 1.32 1 2 1.65 1.03 3.32 2.03 5 3 0.495 0.495 0.495 0.495 1 1-0.176 2.69-0.618 5.33-1 8 0.897-0.0928 1.79-0.186 2.72-0.281 12.7-0.737 22.9 3.53 32.7 11.7 2.56 2.62 2.56 2.62 3.56 4.62 1.66 0.989 3.32 1.98 5.02 2.9 20 11 20 11 24 19.1-0.938 2.62-0.938 2.62-2 5 0.784 0.103 1.57 0.206 2.38 0.312 2.62 0.688 2.62 0.688 4.62 3.69 1.48 0.99 1.48 0.99 3 2-1.48 0.495-1.48 0.495-3 1 4.14 1.41 8.3 2.66 12.5 3.88 4.8 1.48 8.53 2.97 12.5 6.12 0.683 0.516 1.37 1.03 2.07 1.56 5.18 3.93 10.1 8.09 14.9 12.4 0.49 0.434 0.98 0.869 1.48 1.32 1.64 1.45 3.26 2.91 4.89 4.37 0.787 0.696 0.787 0.696 1.59 1.41 2.72 2.46 4.54 4.58 6.04 7.91 1.66 1.01 3.33 2.01 5 3 2.17 1.9 4.05 3.86 6 6v2c0.99 0.33 1.98 0.66 3 1 0.949 1.74 1.9 3.47 2.82 5.22 1.81 2.71 4.47 4.05 7.18 5.78v3c0.557 0.227 1.11 0.454 1.69 0.688 4.61 2.62 7.82 6.79 11.2 10.8 0.616 0.732 1.23 1.46 1.87 2.22 1.26 2.28 1.26 2.28 0.953 5.06-0.229 0.732-0.459 1.46-0.695 2.22 0.763 0.241 1.53 0.482 2.31 0.73 3.12 1.47 3.96 2.65 5.69 5.58 1.78 2.86 3.28 4.97 5.69 7.38 2.56 2.56 3.86 5.02 5.31 8.31 0.33-1.32 0.66-2.64 1-4 2.44 1.19 2.44 1.19 5 3 0.812 2.69 0.812 2.69 1 5l-2 1c0.701 0.392 1.4 0.784 2.12 1.19 7.91 4.99 13 11.1 17.3 19.4 2.13 4.01 4.71 6.8 8 9.89 1.98 1.96 3.17 4.14 4.56 6.55 1.03 1.13 2.07 2.26 3.12 3.38 3.07 3.47 3.24 6.03 3.88 10.6 3.23 5.92 7.45 11.6 12.3 16.2 2.83 2.95 5.01 6.08 7.16 9.53 0.389 0.615 0.777 1.23 1.18 1.86 3.9 6.23 7.8 12.5 10.3 19.4 0.33 0.66 0.66 1.32 1 2 0.289 0.681 0.577 1.36 0.875 2.06 1.04 2.28 1.04 2.28 4.12 2.94 1.47 2.65 2.75 5.24 4 8 0.405 0.866 0.81 1.73 1.23 2.62 2.01 4.33 3.9 8.66 5.59 13.1 1.7 4.37 3.86 8.41 6.12 12.5 3.28 5.97 5.74 11.9 7.92 18.4 3.26 9.52 7.55 18.5 12.2 27.4 2.16 4.16 3.77 8.29 5.19 12.8 1.4 4.24 3.29 8.27 5.21 12.3 1.82 4.26 2.43 8.56 3.07 13.1 0.224 1.59 0.454 3.18 0.691 4.77 0.144 1.04 0.144 1.04 0.291 2.1 0.417 2.2 0.417 2.2 2.45 4.88 0.568 2.63 1.07 5.22 1.5 7.88 0.849 5.38 0.849 5.38 2.5 10.6 1.77 4.55 2.17 9.43 2.86 14.2 0.18 1.17 0.18 1.17 0.363 2.37 0.102 0.712 0.205 1.42 0.311 2.16 0.371 2.04 0.371 2.04 2.47 3.8 0.836 2.96 1.47 5.95 2.12 8.96 0.92 3.18 1.83 5.44 3.88 8.04 1.65 0.33 3.3 0.66 5 1v12c-5.76 2.45-10.8 4.46-17 5-0.33 0.99-0.66 1.98-1 3-1.91 0.936-1.91 0.936-4.42 1.72-0.919 0.291-1.84 0.582-2.78 0.882-1.48 0.445-1.48 0.445-2.99 0.899-0.996 0.31-1.99 0.619-3.02 0.938-6.62 2.02-13.2 3.68-20 4.86-3.04 0.771-5.11 2.08-7.78 3.7-2.9 0.879-2.9 0.879-5.94 1.56-3.08 0.703-6.05 1.43-9.05 2.43-9.74 3.25-20.5 5.56-30.7 6.44-3.48 0.338-6.02 1.29-9.19 2.81-2.9 1.02-5.76 1.31-8.81 1.69-4.68 0.588-8.82 1.44-13.2 3.06-5.79 2.1-11.4 2.8-17.5 3.5-3.04 0.427-5.69 1.04-8.59 2-8.95 2.92-18.3 3.52-27.6 3.94-4.71 0.214-9.1 0.582-13.6 2-12.2 3.8-26 3.77-38.8 4.13-4.43-0.00595-4.43-0.00595-7.92 2.43-3.06 0.547-5.9 0.825-9 1-0.694 0.0446-1.39 0.0893-2.1 0.135-2.38 0.138-4.76 0.225-7.15 0.302-0.781 0.0466-1.56 0.0931-2.37 0.141-5.44 0.102-5.44 0.102-8.01-1.75-2.96-3.27-4-6.22-4.38-10.5-0.708-5.59-2.48-9.8-4.96-14.8-1.43-3.41-1.45-5.85-1.04-9.49-0.99 0.33-1.98 0.66-3 1-4.65-5.25-6.64-9.74-8.23-16.5-1.07-3.41-3.22-5.03-5.77-7.46-2.82-5.43-4.44-11.1-5.41-17.1-0.722-2.34-1.84-3.24-3.59-4.91-2.63-3.74-2.26-7.8-2.19-12.2 6.45e-4 -0.737 0.00129-1.47 0.00195-2.23 0.045-5.44 0.045-5.44 1.19-6.58 0.21-2.14 0.368-4.29 0.5-6.44 0.39-6.34 0.39-6.34 1.5-8.56 0.341-2.4 0.638-4.79 0.902-7.2 0.17-1.47 0.34-2.94 0.51-4.41 0.263-2.31 0.525-4.63 0.783-6.94 0.251-2.24 0.51-4.47 0.77-6.71 0.111-1.03 0.111-1.03 0.224-2.07 0.353-3.01 0.838-5.74 1.81-8.62 1.25-3.79 1.68-7.53 2.06-11.5 0.0829-0.821 0.166-1.64 0.251-2.49 0.986-10.4 1.36-20.7 1.75-31.1 0.116-2.99 0.234-5.98 0.357-8.97 0.0757-1.84 0.147-3.68 0.214-5.52 0.254-6.22 0.254-6.22 1.37-8.45 0.0946-1.42 0.128-2.84 0.129-4.26 0.00311-0.888 0.00621-1.78 0.00941-2.69-0.00198-0.97-0.00396-1.94-6e-3 -2.94 0.00136-1.01 0.00273-2.02 0.00414-3.05 0.00203-3.29-0.0043-6.58-0.0119-9.86-0.00122-1.11-0.00244-2.22-0.00369-3.36-0.0174-13.4-0.103-26.8-0.559-40.3-0.0392-1.17-0.0783-2.35-0.119-3.56 0.00257-5.17 0.00257-5.17-1.44-10-0.153-1.88-0.25-3.77-0.316-5.66-0.0419-1.12-0.0838-2.24-0.127-3.4-0.0393-1.18-0.0786-2.35-0.119-3.56-0.0648-1.78-0.0648-1.78-0.131-3.59-0.106-2.93-0.208-5.86-0.307-8.79h-1c-0.0553-0.65-0.111-1.3-0.168-1.97-0.255-2.99-0.513-5.98-0.77-8.97-0.087-1.02-0.174-2.04-0.264-3.1-0.518-6-1.11-12-1.8-18h-1c-2.09-7.96-2.59-15.8-3-24h-1c-0.29-1.94-0.29-1.94-0.586-3.91-0.263-1.72-0.526-3.43-0.789-5.15-0.126-0.848-0.253-1.7-0.383-2.57-1-6.48-2.32-12.6-5.12-18.6-3.39-8.17-4.56-17.1-6.12-25.8h-1c0.0928-1.24 0.0928-1.24 0.188-2.5-0.167-3.12-0.554-4.76-1.69-7.56-1.25-3.15-2.15-5.51-1.5-8.94 2-2.81 2-2.81 4-5-0.253-0.505-0.505-1.01-0.766-1.53l-15.2-30.5c1.37 4.5 2.81 8.83 5 13 2.15 4.13 3.99 8.44 5 13-0.33 0.66-0.66 1.32-1 2 0.99-0.33 1.98-0.66 3-1 1.06 2.38 1.06 2.38 2 5-0.33 0.66-0.66 1.32-1 2h-3v-3c-0.99-0.33-1.98-0.66-3-1-0.184-1.08-0.184-1.08-0.371-2.18-0.824-3.69-2.29-6.96-3.79-10.4-0.84-2.4-0.84-2.4-0.84-6.4h-2c-0.66-3.3-1.32-6.6-2-10h-2c-0.28-0.704-0.559-1.41-0.848-2.13-3.63-8.94-7.75-17.6-12.4-26.1-0.793-1.78-0.793-1.78-0.793-4.78h-2c-1.29-1.43-1.29-1.43-2.62-3.31-0.446-0.615-0.892-1.23-1.35-1.86-1.02-1.82-1.02-1.82-1.02-4.82h-2c-4.06-6.28-4.06-6.28-3.75-9.94 0.247-0.681 0.495-1.36 0.75-2.06 4.73-1.61 8.15-2.47 13-1zm22 32c-0.712 1.67-0.712 1.67-1.44 3.38-0.816 1.89-1.64 3.78-2.56 5.62 1.98-0.33 3.96-0.66 6-1 0.33-2.31 0.66-4.62 1-7-0.99-0.33-1.98-0.66-3-1zm25 9c-1.32 1.32-2.64 2.64-4 4 3.93-0.575 3.93-0.575 7-3-0.99-0.33-1.98-0.66-3-1zm14 3v2h3v-2h-3zm-21 1c-0.99 1.49-0.99 1.49-2 3 1.98-0.348 1.98-0.348 4-1 0.33-0.66 0.66-1.32 1-2h-3zm12 11v2c0.66-0.33 1.32-0.66 2-1-0.66-0.33-1.32-0.66-2-1zm-13 7c0.33 1.98 0.66 3.96 1 6h2c0.33-0.99 0.66-1.98 1-3-0.66-0.99-1.32-1.98-2-3h-2zm43 5c0.99 0.33 1.98 0.66 3 1 0.66-0.33 1.32-0.66 2-1v-2c-2.32-0.185-2.32-0.185-5 2zm30 21c-0.167 3.42-0.167 3.42 0 7 2.57 2.57 4.48 2.54 8 3v-2c-0.639-0.206-1.28-0.413-1.94-0.625-2.06-1.38-2.06-1.38-2.81-4.5-0.0825-0.949-0.165-1.9-0.25-2.88h-3zm0 18c-0.33 1.65-0.66 3.3-1 5h5c-0.33-1.65-0.66-3.3-1-5h-3zm14 3c0.33 0.99 0.66 1.98 1 3 0.66-0.66 1.32-1.32 2-2-0.99-0.33-1.98-0.66-3-1zm18 0c0.33 0.99 0.66 1.98 1 3 1.32-0.33 2.64-0.66 4-1-0.66-0.66-1.32-1.32-2-2h-3zm23 50c-1.26 1.05-1.26 1.05-1.25 3.44 0.0825 0.846 0.165 1.69 0.25 2.56 1.49 0.99 1.49 0.99 3 2 0.597-2.76 1-5.16 1-8h-3zm34 22c0.33 0.66 0.66 1.32 1 2l3-3c-2.07-0.149-2.07-0.149-4 1zm4 1v2h2v-2h-2zm26 35c0.33 0.99 0.66 1.98 1 3 1.65-0.33 3.3-0.66 5-1-0.33-0.99-0.66-1.98-1-3-2.93-0.224-2.93-0.224-5 1zm-174 23v7h1v-7h-1zm190 8c1.28 4.59 3.03 7.33 6 11 2.22 3.88 4.03 7.62 5 12h2c-0.788-6.53-2.99-11.1-6.5-16.6-0.404-0.632-0.808-1.26-1.22-1.91-1.03-1.55-2.15-3.04-3.28-4.52h-2zm-188 28 1 2zm1 4 1 2zm-2 49v9h1v-9h-1zm245 22c-1.36 1.13-1.36 1.13-1.06 4.06 0.0206 0.969 0.0412 1.94 0.0625 2.94h2c0.124-0.639 0.247-1.28 0.375-1.94 0.206-0.681 0.412-1.36 0.625-2.06 0.66-0.33 1.32-0.66 2-1-1.32-0.66-2.64-1.32-4-2zm-246 4 1 2zm-5 43 1 2zm-5 35 1 2zm-2 14v5h1v-5h-1zm7 27 1 2zm222 19v2c3.3 0.33 6.6 0.66 10 1 0.33-0.66 0.66-1.32 1-2-4.2-1.82-6.53-2.49-11-1zm54 0v2h4v-2h-4zm-146 1c3.99 2 5.7 2.2 10 2v-2h-10zm13 0 4 1zm-118 4c0.33 0.99 0.66 1.98 1 3v-3h-1zm2 3 1 2zm90 3c-0.66 0.66-1.32 1.32-2 2 0.319 2.11 0.319 2.11 1 4 0.66-0.33 1.32-0.66 2-1v-2c0.99-0.66 1.98-1.32 3-2-1.89-0.681-1.89-0.681-4-1zm-88 1v11c0.99 0.495 0.99 0.495 2 1-0.33-3.96-0.66-7.92-1-12h-1zm129 0v2h5c-0.33-0.99-0.66-1.98-1-3-1.37-0.0527-1.37-0.0527-4 1zm-34 1v4c1.32-0.33 2.64-0.66 4-1-0.66-0.99-1.32-1.98-2-3h-2zm6 0c0.33 0.66 0.66 1.32 1 2 0.66-0.33 1.32-0.66 2-1-0.99-0.33-1.98-0.66-3-1zm-9 1-2 3h4c-0.33-0.99-0.66-1.98-1-3h-1zm95-1c-0.33 0.66-0.66 1.32-1 2-0.743-0.206-1.49-0.412-2.25-0.625-3.07-0.419-4.18 0.00551-6.75 1.62 0.33 0.66 0.66 1.32 1 2 1.98-0.33 3.96-0.66 6-1-0.66 0.66-1.32 1.32-2 2h7v-2h2c-0.66-1.32-1.32-2.64-2-4h-2zm-186 12 1 2zm142 2c-0.66 0.66-1.32 1.32-2 2h3c-0.33-0.66-0.66-1.32-1-2zm-16 3v2h6v-2h-6zm-61 12c0.66 0.66 1.32 1.32 2 2 3.14 0.0214 3.14 0.0214 6.62-0.375 1.78-0.166 1.78-0.166 3.6-0.336 0.915-0.0954 1.83-0.191 2.77-0.289 0.33-0.99 0.66-1.98 1-3-5.34 0-10.8 0.825-16 2zm-67 2 1 2z" fill="#FBFCFE"/>
<path transform="translate(306,360)" d="m0 0c4.9 4.57 6.18 8.19 7.38 14.8 1.54 8.17 3.55 16.2 5.62 24.2 0.259 1.04 0.259 1.04 0.523 2.1 0.386 1.54 0.788 3.07 1.2 4.6 1.43 5.47 2.62 10.7 2.97 16.4 0.205 1.97 0.205 1.97 1.24 3.66 1.61 3.43 2.03 7 2.63 10.7 0.251 1.5 0.502 3 0.754 4.5 0.117 0.707 0.235 1.41 0.356 2.14 0.519 3.05 1.13 6.06 1.83 9.07 1.7 7.56 2.11 15.1 2.5 22.9h1c0.288 5.53 0.572 11.1 0.854 16.6 0.0962 1.88 0.193 3.76 0.291 5.64 0.141 2.71 0.279 5.43 0.417 8.14 0.0437 0.828 0.0875 1.66 0.133 2.51 0.238 4.75 0.336 9.47 0.271 14.2 0.0419 2.38 0.518 4.58 1.03 6.9v5c0.33 0.33 0.66 0.66 1 1 2.04 12.5 2.29 25 2.21 37.6-0.0186 2.93-0.0205 5.87-0.0203 8.8-0.0049 1.87-0.0107 3.74-0.0176 5.61-0.00111 0.874-0.00223 1.75-0.00337 2.65-0.0484 6.09-0.0484 6.09-1.16 8.32-0.0466 2.17-0.0377 4.33 0 6.5 0.0423 5.86 0.0217 11.7-1 17.5-0.33 0.33-0.66 0.66-1 1-0.146 1.65-0.227 3.31-0.281 4.96-0.0374 1.03-0.0748 2.06-0.113 3.12-0.0522 1.63-0.0522 1.63-0.105 3.29-0.234 7.03-0.58 14-1.26 21-0.441 4.88-0.629 9.77-0.842 14.7-0.288 5.84-0.288 5.84-1.39 6.95-0.0207 2.04 0.00903 4.08 0.0625 6.12 0.052 6.78-0.711 11.9-4.06 17.9 0.99 0.33 1.98 0.66 3 1-0.748 17-0.748 17-2.53 24.7-0.534 2.65-0.762 5.26-0.969 7.95-0.315 3.94-0.92 7.56-1.97 11.4-0.587 2.22-1.03 4.44-1.47 6.7-1 5.14-2.18 10.2-3.38 15.3-0.418 1.82-0.817 3.65-1.18 5.48-0.579 2.89-1.24 5.75-1.94 8.62-0.246 1.03-0.492 2.07-0.746 3.13-0.816 2.74-0.816 2.74-2.82 5.74 0.253 2 0.511 3.99 0.906 5.96 0.118 2.56-0.713 3.79-1.91 6.04-0.413 1.72-0.764 3.45-1.06 5.19-0.166 0.964-0.333 1.93-0.504 2.92-0.495 3.3-0.841 6.59-1.09 9.92-0.344 1.97-0.344 1.97-1.34 3.97-1.08 2.16-1.32 3.74-1.5 6.13-0.5 3.88-0.5 3.88-2.5 5.88h-4c-0.164 0.853-0.164 0.853-0.332 1.72-0.788 3.84-1.62 7.45-3.23 11-1.91 4.32-2.47 7.71-2.38 12.4 0.131 13.2-4.25 26.3-12.1 36.9-5.11 4.61-9.26 5.21-15.9 5.55-0.798 0.0421-1.6 0.0843-2.42 0.128-9.19 0.446-18.4 0.458-27.6 0.447-1.92 0.00136-3.85 0.00314-5.77 0.00531-5.17 0.00451-10.3 0.00281-15.5-3.79e-4 -5.44-0.00255-10.9-1.78e-4 -16.3 0.00139-9.12 0.00181-18.2-5.6e-4 -27.3-0.00534-10.5-0.00545-21-0.00367-31.5 0.00183-9.06 0.00455-18.1 0.00517-27.2 0.00256-5.4-0.00155-10.8-0.00178-16.2 0.00154-5.07 0.0029-10.1 8.59e-4 -15.2-0.00489-1.85-0.00131-3.71-9.56e-4 -5.56 0.00126-27.5 0.0299-27.5 0.0299-33.4-4.13-1.56-2.25-1.56-2.25-2-5 1.21-3.45 2.77-6.31 6-8.12 0.66-0.289 1.32-0.578 2-0.875 1.38-1.63 2.72-3.29 4-5l2-2h3c0.33 0.33 0.66 0.66 1 1l2-1-2-1c0.625-3.25 0.625-3.25 2-7 0.949-0.619 1.9-1.24 2.88-1.88 4.27-2.91 5.4-6.38 7.12-11.1 4.75 0.75 4.75 0.75 7 3v-2c-0.66-0.33-1.32-0.66-2-1 0-4 0-4 1.75-6.19 3.59-2.89 3.59-2.89 6.25-2.81 0.804 0.825 1.61 1.65 2.44 2.5 0.846 0.825 1.69 1.65 2.56 2.5 2.76-0.0498 2.76-0.0498 5-1-0.825-0.619-1.65-1.24-2.5-1.88-0.825-0.701-1.65-1.4-2.5-2.12v-2h-2c1.94-8.41 5.05-13.9 12-19 4.21-3.24 7.13-6.49 10-11 0.66-0.33 1.32-0.66 2-1 0.99 0.33 1.98 0.66 3 1-0.103-0.908-0.206-1.82-0.312-2.75 0.312-3.25 0.312-3.25 2.62-5.31 0.887-0.639 1.77-1.28 2.69-1.94 1.02-1.66 2.02-3.32 3-5h2c0.248-0.949 0.495-1.9 0.75-2.88 1.25-3.12 1.25-3.12 3.31-4.06 0.639-0.351 1.28-0.701 1.94-1.06 0.186-1.52 0.186-1.52 0.375-3.06 0.826-5.2 3.22-8.95 6.62-12.9h2c0.248-0.701 0.495-1.4 0.75-2.12 1.99-4.59 4.06-8.08 8.25-10.9v2c1.98 0.33 3.96 0.66 6 1-0.61-3.56-1.58-6.68-3-10 1.37-1.5 1.37-1.5 3-3h2c0.33-1.65 0.66-3.3 1-5l1.88-0.188c1.05-0.402 1.05-0.402 2.12-0.812 0.729-1.64 1.39-3.31 2-5 4.07-9.62 4.07-9.62 8.38-12.8 4.6-3.47 6.71-8.43 9.24-13.5 1.38-2.73 1.38-2.73 2.38-3.73-0.103-0.825-0.206-1.65-0.312-2.5 0.465-5.21 2.27-9.1 6.31-12.5 4.1-0.768 7.88-0.541 12 0-0.58-3.04-0.58-3.04-2.5-5.38-2.26-2.45-2.43-4.33-2.5-7.62 1.69-2.59 3.37-4.48 5.75-6.44 1.56-1.62 1.56-1.62 1.25-4.56 0-3 0-3 1.38-4.56 0.536-0.474 1.07-0.949 1.62-1.44 1.19-2.6 1.19-2.6 2-5h2c0.159-0.534 0.317-1.07 0.48-1.62 1.92-6.13 4.52-11.7 7.52-17.4h2c0.227-0.846 0.454-1.69 0.688-2.56 1.33-3.48 2.93-5.83 5.15-8.77 1.33-1.77 1.33-1.77 2.29-4.48 0.875-2.19 0.875-2.19 3.88-4.19-0.33 1.65-0.66 3.3-1 5 2.02-2.02 3.43-4.62 5-7 1.65 0.33 3.3 0.66 5 1 0.625 1.81 0.625 1.81 1 4l-2 3c3.38-3.11 5.74-5.53 7-10v-4c0.99-0.66 1.98-1.32 3-2-0.99-0.99-1.98-1.98-3-3-0.99 0.33-1.98 0.66-3 1-1.67 0.0387-3.33 0.045-5 0 0.165-0.804 0.33-1.61 0.5-2.44 0.401-2.86 0.432-4.94 0.25-7.75-0.0859-5.08 1.78-8.81 4.02-13.3 1.36-2.62 1.36-2.62 2.36-6.02 0.93-2.66 1.93-3.56 3.88-5.5 0.35-1.66 0.682-3.33 1-5 0.474-0.748 0.949-1.5 1.44-2.27 1.75-3.06 2.38-5.67 3.06-9.11 1.05-4.87 2.44-9.08 4.5-13.6 0.801-2.48 1.54-4.97 2.25-7.47 0.847-2.87 1.79-5.69 2.75-8.53 0.468-1.44 0.936-2.87 1.4-4.31 0.512-1.56 1.02-3.13 1.54-4.69 0.252-0.781 0.504-1.56 0.764-2.37 1.46-4.43 3.14-8.49 5.3-12.6 3.13-7.25 4.83-14.6 6.29-22.3 1.02-5.29 2.37-10.5 3.71-15.7 0.786-3.2 1.57-6.4 2.35-9.6 0.648-2.4 0.648-2.4 1.65-4.4 0.0759-1.87 0.147-3.74 0.189-5.61 0.222-8.48 1.51-16 3.86-24.2 1.91-6.69 3.07-13.4 4.05-20.3 0.821-5.81 0.821-5.81 1.9-7.97 0.391-2.54 0.745-5.07 1.06-7.62 0.0909-0.706 0.182-1.41 0.275-2.14 0.224-1.74 0.443-3.49 0.662-5.23 1.65-0.33 3.3-0.66 5-1v-2h-3v-3h-2c0.507-6.88 1.11-12.2 5-18zm-7 41 1 2zm-11 60 1 3zm42 13c-1.32 1.11-1.32 1.11-1.25 3.88-0.0631 3.46-0.0631 3.46 3.25 6.12-0.33-3.3-0.66-6.6-1-10h-1zm-47 9 1 2zm-30 97c-1.31 1.09-1.31 1.09-1.1 3.72 0.0116 1.1 0.0232 2.2 0.0352 3.34 0.00902 1.1 0.018 2.21 0.0273 3.35 0.0116 0.855 0.0232 1.71 0.0352 2.59h3c0.0539-1.79 0.0928-3.58 0.125-5.38 0.0232-0.998 0.0464-2 0.0703-3.02 0.0769-2.76 0.0769-2.76-2.2-4.6zm11 5c-0.33 1.32-0.66 2.64-1 4h2c0.33-1.32 0.66-2.64 1-4h-2zm2 2v3c-0.99 0.495-0.99 0.495-2 1h3c-0.33-1.32-0.66-2.64-1-4zm-24 17 1 2zm-27 52 1 2zm-12 42 1 3zm-17 14 1 2zm-4 35c-0.268 0.619-0.536 1.24-0.812 1.88-1.19 2.12-1.19 2.12-4.19 4.12v2c3.65-1.25 4.78-1.67 7-5v-3h-2zm-23 8-2 3c1.32 0.33 2.64 0.66 4 1 0.33-0.99 0.66-1.98 1-3-0.99-0.33-1.98-0.66-3-1zm113 5c0.33 2.64 0.66 5.28 1 8h1v-8h-2zm-124 17v2c1.32-0.33 2.64-0.66 4-1v-2c-2.07-0.149-2.07-0.149-4 1zm138 36c-1.01 3.03-1.02 5.37-0.969 8.53-0.0612 4.84-0.582 9.66-1.03 14.5 0.66-0.33 1.32-0.66 2-1 0.563-2.13 0.563-2.13 0.852-4.69 0.129-0.944 0.258-1.89 0.391-2.86 0.126-0.993 0.253-1.99 0.383-3.01 0.201-1.5 0.201-1.5 0.406-3.02 0.331-2.47 0.654-4.94 0.969-7.42-0.99-0.33-1.98-0.66-3-1zm-2 24c-2.72 3.88-3.36 6.46-3.29 11.2 0.0145 1.74 0.0145 1.74 0.0293 3.51 0.0251 1.2 0.0503 2.4 0.0762 3.63 0.0135 1.22 0.0271 2.44 0.041 3.69 0.0353 3 0.0846 6 0.146 9 2.31 0.33 4.62 0.66 7 1v-3c-0.99-0.33-1.98-0.66-3-1-1.18-3.54-1.15-6.75-1.12-10.4-0.00258-1.32-0.00516-2.64-0.00781-4 0.104-2.8 0.315-4.93 1.13-7.57 0.341-1.67 0.676-3.33 1-5-0.66-0.33-1.32-0.66-2-1zm-205 35v4l4-1-2-3h-2zm5 2v2h7c-3.25-2.97-3.25-2.97-7-2zm-21 2c-0.33 0.66-0.66 1.32-1 2 0.33 0.66 0.66 1.32 1 2 0.99-0.33 1.98-0.66 3-1v-3h-3zm184 1v2c2.96 0.0538 5.92 0.0936 8.88 0.125l2.55 0.0508 2.44 0.0195c0.744 0.0105 1.49 0.0209 2.25 0.0317 2.12-0.0605 2.12-0.0605 3.88-2.23h-20zm-175 11v2h14v-1c-4.67-1.21-9.21-1.09-14-1zm-26 7v2h-2v2l12-1-2-5c-3.72-0.201-4.77-0.152-8 2zm226 0v1h7v-3c-3.11 0-4.35 0.539-7 2zm-176 0c0.33 0.99 0.66 1.98 1 3l4-1v2c0.99-0.33 1.98-0.66 3-1-1.19-1.6-1.19-1.6-3-3-2.63-0.251-2.63-0.251-5 0z" fill="#FBFCFE"/>
<path transform="translate(497,935)" d="m0 0c0.33 2.31 0.66 4.62 1 7h2v2h3c-0.25 3.37-0.25 3.37-1 7-1.32 0.699-2.65 1.37-4 2-0.143 0.888-0.286 1.78-0.434 2.69-0.621 3.63-1.81 6.01-3.63 9.18-0.548 0.967-1.1 1.93-1.66 2.93-0.422 0.724-0.843 1.45-1.28 2.2h-3c-0.268 1.13-0.536 2.27-0.812 3.44-0.392 1.18-0.784 2.35-1.19 3.56-1.49 0.495-1.49 0.495-3 1-0.124 0.742-0.248 1.49-0.375 2.25-0.58 2.55-1.36 4.48-2.62 6.75h-2c-0.103 0.619-0.206 1.24-0.312 1.88-0.688 2.12-0.688 2.12-3.69 4.12l-2-4c-0.66 2.31-1.32 4.62-2 7h-2c-0.147 1.12-0.147 1.12-0.297 2.27-0.87 5.73-1.39 8.72-5.7 12.7 0.186 0.949 0.371 1.9 0.562 2.88 0.438 3.12 0.438 3.12-0.523 4.84-1.35 1.66-1.35 1.66-4.04 4.28h-2c-0.371 1.08-0.371 1.08-0.75 2.19-1.25 2.81-1.25 2.81-3 4.94-3.79 4.84-6.51 10.4-9.25 15.9h-2c-0.253 0.721-0.505 1.44-0.766 2.18-3 6.84-8.47 13.5-15.2 16.8-3.24 0.385-5.89-0.0787-9-1-1.37 4.11-1.31 8.25-1.43 12.6-0.138 2.91-0.24 4.98-1.95 7.4-2.28 1.47-3.97 1.33-6.62 1.05-0.33-0.33-0.66-0.66-1-1-5.53-1.09-9.51-0.931-14.9 0.625-2.38 0.429-3.8 0.109-6.08-0.625-2.51-0.819-2.51-0.819-5-1-1.67 1.33-1.67 1.33-3 3-3.69 1.23-7.09 1.14-10.9 1.13-0.809 0.00175-1.62 0.0035-2.45 0.00531-2.68 0.00441-5.37 0.00148-8.05-0.00189-1.88 6.74e-4 -3.76 0.00165-5.64 0.0029-3.95 0.00148-7.9-6.74e-4 -11.9-0.00534-5.01-0.00563-10-0.00246-15 0.00357-3.89 0.00366-7.78 0.00244-11.7-1.28e-4 -1.84-6.58e-4 -3.69 1.18e-4 -5.53 0.00248-9.45 0.00943-18.9-0.105-28.3-0.582-0.785-0.0387-1.57-0.0774-2.38-0.117-3.8-0.214-7.43-0.614-11.1-1.44-2.12 0.00774-4.21 0.123-6.33 0.258-2.59-0.25-4.43-0.843-6.86-1.73-4.94-1.72-9.43-1.96-14.6-2.02-20.9-0.605-41.9-2.43-62.7-5.06-1.39-0.172-1.39-0.172-2.8-0.347-0.839-0.114-1.68-0.227-2.54-0.344-0.713-0.0961-1.43-0.192-2.16-0.291-2.22-0.507-4-1.36-5.99-2.45v-2c-0.701 0.186-1.4 0.371-2.12 0.562-3.3 0.503-5.58 0.0376-8.88-0.562-1.5-0.243-3-0.482-4.5-0.719-0.806-0.128-1.61-0.255-2.44-0.387-1.24-0.195-1.24-0.195-2.5-0.395-0.82-0.13-1.64-0.26-2.49-0.395-5.69-0.9-11.4-1.79-17.1-2.46-18.7-2.42-31.8-9.76-43.8-24.1-2.5-3.26-3.96-6.71-5.21-10.6-0.52-1.18-0.52-1.18-1.05-2.38-1.06-2.92-1.26-5.47-1.51-8.56-0.544-3.62-0.862-5.48-3.46-8.11-2.27-1.49-4.54-2.75-6.98-3.96-3.34-2.23-3.93-3.5-5.56-7.06-1.47-3.67-1.47-3.67-4.44-5.94v-2c-0.605-0.243-1.21-0.486-1.83-0.737-3.98-2.32-5.48-6.66-7.54-10.6-0.713-1.3-0.713-1.3-1.44-2.62-0.44-0.835-0.879-1.67-1.33-2.53-0.404-0.762-0.808-1.52-1.22-2.31-0.627-2.17-0.627-2.17 0.132-4.38 1.24-1.78 1.24-1.78 3.24-2.78-1.11-0.619-2.23-1.24-3.38-1.88-2.26-1.26-3.77-2.27-5.62-4.12h2c0.33-0.66 0.66-1.32 1-2 0.33 0.33 0.66 0.66 1 1 0.454-0.474 0.908-0.949 1.38-1.44 1.85-1.77 2.92-2.53 5.49-2.65 0.759 0.017 1.52 0.0339 2.3 0.0514 0.862 0.0169 1.72 0.0337 2.61 0.0511 0.936 0.0239 1.87 0.0478 2.84 0.0724 1.45 0.0319 1.45 0.0319 2.93 0.0644 2.06 0.0463 4.11 0.0953 6.17 0.147 3.11 0.0769 6.22 0.145 9.33 0.211 2 0.0463 4.01 0.0932 6.01 0.141 0.916 0.0198 1.83 0.0397 2.78 0.0602 4.59 0.119 9.14 0.363 13.7 0.802 6.43 0.546 12.8 0.599 19.3 0.543 1.22-0.00639 2.44-0.0128 3.7-0.0194 3.32-0.0187 6.63-0.0423 9.95-0.0688 2.8-0.0217 5.6-0.0403 8.4-0.0589 6.63-0.0444 13.3-0.0946 19.9-0.148 6.75-0.0546 13.5-0.0989 20.3-0.138 5.86-0.0343 11.7-0.0757 17.6-0.122 3.47-0.0275 6.94-0.0527 10.4-0.0707 14.8-0.0841 29.5-0.448 44.3-1.39 0.681-0.0428 1.36-0.0856 2.06-0.13 7.02-0.0794 7.02-0.0794 13.6-1.9 2.6-0.134 5.18-0.211 7.78-0.246 1.63-0.0316 3.27-0.0635 4.9-0.0957 1.29-0.0231 1.29-0.0231 2.6-0.0466 13.1-0.242 26.2-0.608 39.3-1.61 1.08-0.0831 2.17-0.166 3.29-0.252 5.41-0.434 5.41-0.434 10.8-1.23 4.85-0.744 9.72-1.01 14.6-1.31 1.61-0.101 1.61-0.101 3.26-0.205 2.26-0.141 4.53-0.281 6.79-0.418 3.47-0.213 6.95-0.435 10.4-0.658 2.2-0.136 4.4-0.271 6.6-0.406 1.56-0.101 1.56-0.101 3.16-0.205 0.961-0.0569 1.92-0.114 2.91-0.172 0.848-0.0525 1.7-0.105 2.57-0.159 2.06 0.0131 2.06 0.0131 4.06 1.01v2c3.26 0 6.44-0.243 9.69-0.5 1.18-0.0928 2.36-0.186 3.57-0.281 1.36-0.108 1.36-0.108 2.74-0.219 0.33-0.99 0.66-1.98 1-3 5.47-2.08 11-2.57 16.8-3.06 0.91-0.0831 1.82-0.166 2.76-0.252 6.96-0.615 13.9-1.05 20.9-1.34 3.88-0.108 3.88-0.108 7.51-1.34 2.5-0.284 4.99-0.519 7.49-0.719 0.742-0.0628 1.48-0.126 2.25-0.19 2.38-0.201 4.76-0.396 7.13-0.591 2.37-0.195 4.74-0.391 7.11-0.591 1.48-0.125 2.95-0.246 4.43-0.364 4.6-0.387 8.53-1.2 12.9-2.61 3.72-0.946 6.87-1.09 10.7-0.938zm-11 3v12c3.8 1.12 3.8 1.12 7 1h2l-2-4c-0.33-0.639-0.66-1.28-1-1.94-1.12-2.31-2.07-4.67-3-7.06h-3zm-78 9c-2.16 0.228-2.16 0.228-4 1v2h7c-1.23-1.65-1.23-1.65-3-3zm-8 1 1 2zm98 2 1 2zm-241 6v1h7v-1h-7zm7 10v3h4v-2c-1.32-0.33-2.64-0.66-4-1zm-213 4c-1.1 3.29-0.8 4.71 0 8h2c0.167-2.92 0.167-2.92 0-6-0.66-0.66-1.32-1.32-2-2zm30 0c0.33 0.66 0.66 1.32 1 2 2.02 0.652 2.02 0.652 4 1 0.33-0.99 0.66-1.98 1-3h-6zm2 4 1 3zm1 4c-0.33 0.99-0.66 1.98-1 3h2c-0.33-0.99-0.66-1.98-1-3zm376 15c-0.33 0.66-0.66 1.32-1 2 0.33 0.66 0.66 1.32 1 2h2c-0.66-1.32-1.32-2.64-2-4zm-358 35c0.33 1.32 0.66 2.64 1 4 0.66-0.33 1.32-0.66 2-1-0.33-0.99-0.66-1.98-1-3h-2zm-13 5c-2.98 3.07-3.96 4.46-4.25 8.81 0.0825 1.05 0.165 2.1 0.25 3.19h2v-2h2v2c0.804 0.124 1.61 0.247 2.44 0.375 0.846 0.206 1.69 0.412 2.56 0.625 0.33 0.66 0.66 1.32 1 2 0.66-0.33 1.32-0.66 2-1v-2h-2c0.33-0.99 0.66-1.98 1-3h-2c-0.11-0.566-0.219-1.13-0.332-1.71-0.159-0.733-0.317-1.47-0.48-2.22-0.151-0.731-0.302-1.46-0.457-2.21-0.241-0.61-0.482-1.22-0.73-1.85-0.99-0.33-1.98-0.66-3-1zm23 9c0.33 0.66 0.66 1.32 1 2h13v-2h-14zm294 15c0.33 0.66 0.66 1.32 1 2h2v-2h-3zm-254 5c0.33 0.66 0.66 1.32 1 2 2.02 0.652 2.02 0.652 4 1v-3h-5z" fill="#FBFCFE"/>
<path transform="translate(1222,470)" d="m0 0c2.06 0.438 2.06 0.438 4 1v2h4c1.75 2 1.75 2 3 4-0.66 1.32-1.32 2.64-2 4h-2v2h7c3.28 6.35 3.9 12.6 4.62 19.6 0.241 2.22 0.483 4.44 0.727 6.66 0.101 0.977 0.203 1.95 0.307 2.96 0.411 3.31 1.02 6.53 1.88 9.76 1.43 5.74 1.52 11.1 1.4 17-0.111 6.79 0.281 13.3 1.38 20 0.118 0.759 0.236 1.52 0.357 2.3 0.62 3.99 0.62 3.99 2.87 7.2 4.85 4.99 2.6 18.1 2.59 24.6 6.75e-4 1.46 0.00165 2.92 0.0029 4.38 0.00147 3.04-6.48e-4 6.09-0.00534 9.13-0.00572 3.9-0.0024 7.79 0.00357 11.7 0.00361 3.01 0.00246 6.01-1.28e-4 9.02-6.66e-4 1.44 1.47e-4 2.87 0.00248 4.31 0.00254 2.01-0.00202 4.01-0.0069 6.02-7.96e-4 1.14-0.00159 2.28-0.00241 3.45-0.109 2.52-0.461 4.53-1.13 6.93-0.0204 2.17 0.00835 4.33 0.0625 6.5 0.0989 8.03-0.385 16-0.938 24-0.0786 1.2-0.157 2.41-0.238 3.65-0.449 6.2-1.24 11.9-2.89 17.8-0.0402 2.33-0.0432 4.67 0 7-0.292 2.01-0.612 4.01-1 6-2.88-0.25-2.88-0.25-6-1-1.38-2.06-1.38-2.06-2-4 0.33-0.33 0.66-0.66 1-1-0.99-0.33-1.98-0.66-3-1 0.33-0.66 0.66-1.32 1-2 0.66 0.33 1.32 0.66 2 1 0.66-3.63 1.32-7.26 2-11-1.67 0.351-3.34 0.701-5.06 1.06-3.04 0.305-3.04 0.305-5.94-0.0625-2.41-2.06-3.88-4.13-5.56-6.8-1.4-2.46-1.4-2.46-4.44-4.2-0.389-1.99-0.719-3.99-1-6-0.939-2.28-1.89-3.88-3.5-5.75-2.16-3.25-2.68-6.45-3.5-10.2-0.743-0.0825-1.48-0.165-2.25-0.25-3.36-0.918-4.62-2.01-6.75-4.75-0.75-2.75-0.75-2.75-1-5-0.59-0.107-1.18-0.214-1.79-0.324-5.11-1.56-8.32-6.13-10.9-10.6-1.5-3-2.92-6.03-4.32-9.08-0.544-1.05-1.09-2.1-1.65-3.18-1.58-3.29-1.81-5.22-1.35-8.82 0.473-0.759 0.946-1.52 1.43-2.3 1.73-2.98 2.34-5.45 3-8.82 1.11-5.12 2.52-9.9 4.39-14.8 1.47-3.88 2.86-7.79 4.23-11.7 0.394-1.12 0.394-1.12 0.796-2.25 1.25-3.55 2.48-7.1 3.64-10.7 2.26-6.9 4.93-13.7 7.5-20.4h4v-4h-2c-1.3-3.9-0.468-6.96 0.312-10.9 0.131-0.708 0.262-1.42 0.396-2.14 0.748-3.88 1.82-7.33 3.29-11 0.52-2.41 0.996-4.83 1.44-7.25 0.816-4.36 1.72-8.57 3.25-12.8 1.4-3.84 1.57-6.93 1.31-11 1.98 0.66 3.96 1.32 6 2-0.495-1.98-0.495-1.98-1-4h-2c-0.33 0.66-0.66 1.32-1 2-1.08-4.21-0.96-7.93-0.625-12.2 0.135-1.86 0.135-1.86 0.273-3.77 0.352-2.98 0.352-2.98 1.35-3.98zm0 1 1 2zm1 24c-0.99 0.495-0.99 0.495-2 1 0.33 0.66 0.66 1.32 1 2 0.66-0.33 1.32-0.66 2-1-0.33-0.66-0.66-1.32-1-2zm-6 11 1 4zm-5 20 1 2zm14 15c-4.82 4.82-3.13 15.5-3.14 21.9 0.00387 1.14 0.00773 2.28 0.0117 3.45-0.00387 1.16-0.00773 2.32-0.0117 3.52 0.00129 1.12 0.00258 2.23 0.00391 3.38 0.00113 1 0.00226 2.01 0.00342 3.04 0.116 2.4 0.506 4.38 1.13 6.68-0.121 2.36-0.121 2.36-0.438 4.75-0.102 0.799-0.204 1.6-0.309 2.42-0.0838 0.603-0.168 1.21-0.254 1.83 0.99 0.33 1.98 0.66 3 1-0.0348-1.04-0.0696-2.07-0.105-3.14-0.0281-1.37-0.0554-2.74-0.082-4.11-0.0377-1.02-0.0377-1.02-0.0762-2.07-0.077-5.29-0.077-5.29 1.76-7.44 2.12-3.18 1.87-6.16 1.79-9.86-0.00637-1.09-0.00637-1.09-0.0129-2.2-0.0167-2.31-0.0544-4.63-0.0926-6.94-0.0151-1.57-0.0287-3.14-0.041-4.71-0.033-3.85-0.0848-7.69-0.146-11.5h-3zm-16 10c-0.33 0.66-0.66 1.32-1 2 0.894 2.61 0.894 2.61 2 5h1v-7h-2zm19 8 1 3zm-17 1c-0.33 1.98-0.66 3.96-1 6h3c-0.33-1.98-0.66-3.96-1-6h-1zm27 10c-0.66 6.93-1.32 13.9-2 21 5.94 2.14 5.94 2.14 11 1-0.338-0.762-0.675-1.52-1.02-2.31-2.12-4.91-4.12-9.61-5.16-14.9-0.268-1.26-0.536-2.52-0.812-3.81-0.66-0.33-1.32-0.66-2-1zm-37 17c0.33 0.99 0.66 1.98 1 3h2c-0.33-0.99-0.66-1.98-1-3h-2zm10 62c-0.99 1.48-0.99 1.48-2 3 1.32 0.33 2.64 0.66 4 1v-4h-2zm-5 2c-0.33 0.66-0.66 1.32-1 2 0.99-0.33 1.98-0.66 3-1-0.66-0.33-1.32-0.66-2-1zm31 15c-1.66 2.42-2.91 4.78-4 7.5-1.08 2.7-2.46 5.04-4 7.5 2.76 0.597 5.16 1 8 1v-3-5c0.66-0.33 1.32-0.66 2-1 0.458 1.38 0.917 2.75 1.38 4.12 0.275 0.817 0.549 1.63 0.832 2.48 0.647 1.96 1.26 3.93 1.86 5.9 0.67 2.65 0.67 2.65 2.94 3.5-1.82-11.4-1.82-11.4-8-20h2c-0.33-0.99-0.66-1.98-1-3h-2z" fill="#FBFCFE"/>
<path transform="translate(1458,890)" d="m0 0c0.495 2.48 0.495 2.48 1 5 1.32 0.33 2.64 0.66 4 1-0.0412-0.784-0.0825-1.57-0.125-2.38 0.125-2.62 0.125-2.62 2.12-4.62 4.14-0.197 7.08-0.308 11 1-0.133 6.93-2.62 11.3-6.31 17.1-1.69 2.93-2.66 5.72-3.69 8.93-2 3-2 3-5 4-0.144 0.949-0.289 1.9-0.438 2.88-0.562 3.12-0.562 3.12-1.56 5.12h-2c-0.33 1.65-0.66 3.3-1 5-3.38 1.06-4.58 1.21-7.81-0.438-1.08-0.773-1.08-0.773-2.19-1.56 0.454 0.454 0.908 0.908 1.38 1.38 1.21 1.21 2.42 2.42 3.62 3.62-0.292 4.37-1.37 7.49-4 11-0.683 0.287-1.37 0.575-2.07 0.871-0.637 0.373-1.27 0.745-1.93 1.13-0.59 2.02-0.59 2.02-0.562 4.31-0.279 4.07-1.11 6.28-3.44 9.69-0.474 1.15-0.949 2.31-1.44 3.5-1.5 3.37-3.18 5.72-5.56 8.5-0.33 0.66-0.66 1.32-1 2h-2c-0.227 0.681-0.454 1.36-0.688 2.06-1.62 3.64-3.64 6.97-6.31 9.94h-2c-0.0619 0.536-0.124 1.07-0.188 1.62-1.82 5.32-5.91 9.05-10.8 11.6-3.13 1.14-6.24 1.25-9.54 1.46-2.45 0.274-4.28 0.836-6.54 1.78-4.15 1.71-8.43 2.69-12.9 2.5-0.99-0.66-1.98-1.32-3-2v-2h-2c-3.07-4.85-4.35-8.22-5-14-0.491-0.934-0.491-0.934-0.992-1.89-1.53-3.2-1.46-6.37-1.66-9.87-0.148-2.44-0.148-2.44-2.34-4.24-0.562-2.06-0.562-2.06-1-4.44-0.605-3.28-1.09-4.69-3-7.56-0.199-3.71-0.177-6.47 1-10h-4c-3.12-1.56-3.23-4.07-4.31-7.31-1.97-5.76-4.16-11.4-6.57-17-2.08-5.09-3.38-9.18-3.11-14.7 0.928-0.124 0.928-0.124 1.88-0.25 0.701-0.247 1.4-0.495 2.12-0.75 0.237-0.651 0.475-1.3 0.719-1.97 1.28-2.03 1.28-2.03 4.2-2.82 1.22-0.134 2.44-0.268 3.7-0.406 0.654-0.0784 1.31-0.157 1.98-0.238 2.09-0.248 4.18-0.471 6.28-0.692 2.09-0.232 4.17-0.468 6.26-0.714 1.9-0.221 3.79-0.426 5.69-0.631 2.93-0.49 4.59-1.21 7.18-2.53 2.28-0.472 4.57-0.869 6.86-1.22 0.669-0.103 1.34-0.207 2.03-0.313 2.14-0.329 4.28-0.648 6.42-0.968 1.4-0.214 2.79-0.429 4.19-0.645 5.57-0.853 11.1-1.7 16.7-2.39 1.02-0.127 1.02-0.127 2.06-0.257 1.87-0.229 3.74-0.448 5.61-0.667 2.83-0.499 4.6-1.2 7.09-2.54 1.98-0.487 1.98-0.487 4.04-0.816 0.745-0.124 1.49-0.249 2.26-0.377 0.768-0.122 1.54-0.244 2.33-0.369 12.4-2.02 12.4-2.02 14.4-1.44zm-17 12c3.74 2.49 5.74 2.21 10.2 2.12 1.27-0.018 2.54-0.0361 3.86-0.0547 0.976-0.0232 1.95-0.0464 2.96-0.0703v-1c-5.61-0.33-11.2-0.66-17-1zm18 14 1 2zm-51 23c-2.18 1.76-2.18 1.76-2.2 3.95 0.0348 1.08 0.0348 1.08 0.0703 2.18 0.0412 1.28 0.0825 2.56 0.125 3.88h2v3c1.32-0.66 2.64-1.32 4-2v-2c-0.99-0.66-1.98-1.32-3-2-0.188-2.62-0.188-2.62 0-5 1.32 0.33 2.64 0.66 4 1-0.66-0.99-1.32-1.98-2-3h-3zm-41 4c-0.66 1.32-1.32 2.64-2 4 1.32-1.32 2.64-2.64 4-4h-2zm37 9c0.33 1.32 0.66 2.64 1 4 0.33-1.32 0.66-2.64 1-4h-2zm-42 3c0.33 0.66 0.66 1.32 1 2 0.33-0.66 0.66-1.32 1-2h-2zm38 0c-0.591 1.95-0.591 1.95-1 4 0.33 0.33 0.66 0.66 1 1-0.587 2.72-1.23 5.38-1.94 8.06-0.195 0.759-0.391 1.52-0.592 2.3-0.485 1.88-0.977 3.76-1.47 5.64 2.31 0.33 4.62 0.66 7 1-0.141-1.6-0.288-3.21-0.438-4.81-0.0812-0.893-0.162-1.79-0.246-2.71-0.251-2.61-0.251-2.61-1.32-5.48 0.66-0.33 1.32-0.66 2-1 0.843-2.38 0.843-2.38 1-5-0.66-0.99-1.32-1.98-2-3h-2zm-14 5 1 2zm-2 6v4h2c-0.66-1.32-1.32-2.64-2-4zm33 9v4h5v-3c-1.65-0.33-3.3-0.66-5-1zm-43 17c0.33 0.99 0.66 1.98 1 3l2-1c-0.99-0.66-1.98-1.32-3-2zm7 7c0.33 0.99 0.66 1.98 1 3h2c-0.33-0.99-0.66-1.98-1-3h-2z" fill="#FBFCFE"/>
<path transform="translate(1254,374)" d="m0 0h2c8.01 16.6 8.01 16.6 10 24-0.33 0.66-0.66 1.32-1 2 0.99-0.33 1.98-0.66 3-1 1.06 2.38 1.06 2.38 2 5-0.33 0.66-0.66 1.32-1 2h-3v-3c-0.99-0.33-1.98-0.66-3-1-0.122-0.721-0.245-1.44-0.371-2.18-0.824-3.69-2.29-6.96-3.79-10.4-0.84-2.4-0.84-2.4-0.84-6.4h-2c-0.66-2.97-1.32-5.94-2-9z" fill="#FCFDFF"/>
<path transform="translate(238,611)" d="m0 0c0.625 1.81 0.625 1.81 1 4-0.99 1.49-0.99 1.49-2 3 2.97-0.66 5.94-1.32 9-2-0.33 0.66-0.66 1.32-1 2h-3c0.66 0.33 1.32 0.66 2 1-0.33 0.99-0.66 1.98-1 3-6.75 0.125-6.75 0.125-9-1-0.188-2.31-0.188-2.31 0-5 1.44-1.69 1.44-1.69 3-3 0.33-0.66 0.66-1.32 1-2z" fill="#D6D7D9"/>
<path transform="translate(759,812)" d="m0 0h1v45h-1v-45z" fill="#000100"/>
<path transform="translate(454,1137)" d="m0 0h1c0.625 3.38 0.625 3.38 1 7-1.95 1.95-3.53 2.85-6 4-0.625-3.38-0.625-3.38-1-7 0.66-0.66 1.32-1.32 2-2h3v-2z" fill="#FCFDFF"/>
<path transform="translate(1254,374)" d="m0 0h2c1.98 4.62 3.96 9.24 6 14-0.99 0.33-1.98 0.66-3 1-0.553-2.08-1-3.84-1-6h-2c-0.66-2.97-1.32-5.94-2-9z" fill="#DDDEE0"/>
<path transform="translate(1264,399)" d="m0 0c1.65 0.33 3.3 0.66 5 1 0.33 1.65 0.66 3.3 1 5l-4 1v-3c-0.99-0.33-1.98-0.66-3-1 0.33-0.99 0.66-1.98 1-3z" fill="#C1C2C4"/>
<path transform="translate(343,281)" d="m0 0c3.37 2.72 4.44 6.07 6 10l-2 2c-0.648-1.27-1.29-2.54-1.94-3.81-0.36-0.708-0.719-1.42-1.09-2.14-0.973-2.04-0.973-2.04-1.97-5.04l1-1z" fill="#B2B3B4"/>
<path transform="translate(381,1434)" d="m0 0c1.49 0.99 1.49 0.99 3 2v2c1.32 0.66 2.64 1.32 4 2-0.33 0.66-0.66 1.32-1 2-3.46-1.98-3.46-1.98-7-4 0.33-1.32 0.66-2.64 1-4z" fill="#FCFDFF"/>
<path transform="translate(59,1013)" d="m0 0c3.17 1.58 4.73 2.45 6.31 5.69 0.227 0.763 0.454 1.53 0.688 2.31h-2v-2c-0.639-0.247-1.28-0.495-1.94-0.75-2.06-1.25-2.06-1.25-2.81-3.38-0.0825-0.619-0.165-1.24-0.25-1.88z" fill="#EFF0F2"/>
<path transform="translate(715,1521)" d="m0 0h18v1h-18v-1z" fill="#000100"/>
<path transform="translate(388,1442)" d="m0 0c0.99 0.495 0.99 0.495 2 1 0.414 2.07 0.414 2.07 0.625 4.56 0.0748 0.826 0.15 1.65 0.227 2.5 0.0735 0.957 0.0735 0.957 0.148 1.93-0.99-0.33-1.98-0.66-3-1v-9z" fill="#9A9B9B"/>
<path transform="translate(420,1068)" d="m0 0h5c-0.375 1.94-0.375 1.94-1 4-0.99 0.495-0.99 0.495-2 1-0.66-0.33-1.32-0.66-2-1v-4z" fill="#FCFDFF"/>
<path transform="translate(473,303)" d="m0 0c2.48 0.99 2.48 0.99 5 2v3c-2.48-0.99-2.48-0.99-5-2v-3z" fill="#C6C7C8"/>
<path transform="translate(590,911)" d="m0 0c1 3 1 3-0.438 6.19-0.773 1.39-0.773 1.39-1.56 2.81-0.33-0.66-0.66-1.32-1-2 0.936-2.36 1.93-4.7 3-7z" fill="#000100"/>
<path transform="translate(1436,479)" d="m0 0h2c1.38 1.63 2.72 3.29 4 5-0.33 0.66-0.66 1.32-1 2-5-5.88-5-5.88-5-7z" fill="#7E7F7F"/>
<path transform="translate(1274,924)" d="m0 0c0.99 1.32 1.98 2.64 3 4-0.66 0.66-1.32 1.32-2 2-0.66-1.65-1.32-3.3-2-5 0.33-0.33 0.66-0.66 1-1z" fill="#5B5C5C"/>
<path transform="translate(1337,385)" d="m0 0c2.02 0.602 4.02 1.27 6 2 0.33 0.66 0.66 1.32 1 2-2.02-0.602-4.02-1.27-6-2-0.33-0.66-0.66-1.32-1-2z" fill="#727373"/>
<path transform="translate(382,948)" d="m0 0h8v1c-2.88 0.625-2.88 0.625-6 1-0.66-0.66-1.32-1.32-2-2z" fill="#000100"/>
<path transform="translate(585,923)" d="m0 0c0.66 0.33 1.32 0.66 2 1-0.66 1.65-1.32 3.3-2 5h-1c-0.0427-1.67-0.0406-3.33 0-5l1-1z" fill="#545555"/>
<path transform="translate(194,694)" d="m0 0c0.33 0.66 0.66 1.32 1 2-0.99 1.49-0.99 1.49-2 3-0.66-0.33-1.32-0.66-2-1 0.99-1.32 1.98-2.64 3-4z" fill="#000100"/>
<path transform="translate(1226,550)" d="m0 0h1v9h-1v-9z" fill="#000100"/>
<path transform="translate(498,934)" d="m0 0h8v1h-8v-1z" fill="#000100"/>
<path transform="translate(1043,547)" d="m0 0c0.33 1.32 0.66 2.64 1 4-1.32-0.99-2.64-1.98-4-3 0.99-0.33 1.98-0.66 3-1z" fill="#9D9E9F"/>
<path transform="translate(478,308)" d="m0 0 4 2c-0.33 0.66-0.66 1.32-1 2-0.99-0.66-1.98-1.32-3-2v-2z" fill="#DCDDDF"/>
<path transform="translate(361,1237)" d="m0 0c0.33 0.66 0.66 1.32 1 2-0.33 0.66-0.66 1.32-1 2h-2c0.66-1.32 1.32-2.64 2-4z" fill="#909191"/>
<path transform="translate(30,966)" d="m0 0c0.99 0.99 1.98 1.98 3 3-0.33 0.66-0.66 1.32-1 2-0.66-0.66-1.32-1.32-2-2v-3z" fill="#484948"/>
<path transform="translate(1249,560)" d="m0 0h1v7h-1v-7z" fill="#FCFDFF"/>
<path transform="translate(632,480)" d="m0 0 3 3c-0.33 0.66-0.66 1.32-1 2-0.66-1.65-1.32-3.3-2-5z" fill="#000100"/>
<path transform="translate(415,257)" d="m0 0c2.48 0.99 2.48 0.99 5 2-0.99 0.33-1.98 0.66-3 1-0.66-0.99-1.32-1.98-2-3z" fill="#242524"/>
<path transform="translate(405,249)" d="m0 0 4 2c-0.33 0.66-0.66 1.32-1 2-0.99-0.66-1.98-1.32-3-2v-2z" fill="#D8D9DA"/>
<path transform="translate(815,1326)" d="m0 0h5c-1.98 0.99-1.98 0.99-4 2-0.33-0.66-0.66-1.32-1-2z" fill="#545555"/>
<path transform="translate(1274,935)" d="m0 0c0.33 1.32 0.66 2.64 1 4-0.99 0.495-0.99 0.495-2 1 0.33-1.65 0.66-3.3 1-5z" fill="#7E7F7F"/>
<path transform="translate(1274,931)" d="m0 0h2c-0.33 1.32-0.66 2.64-1 4-0.33-1.32-0.66-2.64-1-4z" fill="#FCFDFF"/>
<path transform="translate(545,859)" d="m0 0h1v6h-1v-6z" fill="#FCFDFF"/>
<path transform="translate(846,679)" d="m0 0h2c-0.33 1.32-0.66 2.64-1 4-0.33-1.32-0.66-2.64-1-4z" fill="#A8A9AA"/>
<path transform="translate(746,663)" d="m0 0h1v6h-1v-6z" fill="#000100"/>
<path transform="translate(745,656)" d="m0 0h1v6h-1v-6z" fill="#000100"/>
<path transform="translate(1240,586)" d="m0 0c0.66 1.32 1.32 2.64 2 4h-2v-4z" fill="#FCFDFF"/>
<path transform="translate(1248,553)" d="m0 0h1v6h-1v-6z" fill="#000100"/>
<path transform="translate(1434,476)" d="m0 0c0.99 0.33 1.98 0.66 3 1-0.66 0.66-1.32 1.32-2 2-0.33-0.99-0.66-1.98-1-3z" fill="#000100"/>
<path transform="translate(441,277)" d="m0 0c0.33 0.99 0.66 1.98 1 3-0.99-0.33-1.98-0.66-3-1l2-2z" fill="#D2D3D4"/>
<path transform="translate(409,253)" d="m0 0c1.32 0.33 2.64 0.66 4 1-0.33 0.66-0.66 1.32-1 2-0.99-0.99-1.98-1.98-3-3z" fill="#D2D3D4"/>
<path transform="translate(1286,1175)" d="m0 0c0.99 0.33 1.98 0.66 3 1-0.66 0.66-1.32 1.32-2 2-0.33-0.99-0.66-1.98-1-3z" fill="#000100"/>
<path transform="translate(470,1135)" d="m0 0c0.99 0.495 0.99 0.495 2 1v2h-2v-3z" fill="#979899"/>
<path transform="translate(451,1134)" d="m0 0c0.66 0.66 1.32 1.32 2 2-0.99 0.33-1.98 0.66-3 1 0.33-0.99 0.66-1.98 1-3z" fill="#000100"/>
<path transform="translate(395,947)" d="m0 0c0.33 0.99 0.66 1.98 1 3-0.99-0.33-1.98-0.66-3-1h2v-2z" fill="#C9CACC"/>
<path transform="translate(87,851)" d="m0 0c0.99 0.33 1.98 0.66 3 1-0.33 0.66-0.66 1.32-1 2-0.66-0.99-1.32-1.98-2-3z" fill="#000100"/>
<path transform="translate(756,742)" d="m0 0h1v5h-1v-5z" fill="#000100"/>
<path transform="translate(243,623)" d="m0 0c0.99 0.33 1.98 0.66 3 1-0.99 0.33-1.98 0.66-3 1v-2z" fill="#000100"/>
<path transform="translate(1240,581)" d="m0 0c0.66 0.66 1.32 1.32 2 2-0.66 0.66-1.32 1.32-2 2v-4z" fill="#FCFDFF"/>
<path transform="translate(1045,549)" d="m0 0c0.66 0.99 1.32 1.98 2 3-0.99-0.33-1.98-0.66-3-1 0.33-0.66 0.66-1.32 1-2z" fill="#000100"/>
<path transform="translate(1224,459)" d="m0 0h1v5h-1v-5z" fill="#646566"/>
<path transform="translate(766,443)" d="m0 0c0.33 1.32 0.66 2.64 1 4-0.66-0.99-1.32-1.98-2-3 0.33-0.33 0.66-0.66 1-1z" fill="#979899"/>
<path transform="translate(1260,332)" d="m0 0 4 2c-1.32-0.33-2.64-0.66-4-1v-1z" fill="#646566"/>
<path transform="translate(401,247)" d="m0 0c0.99 0.33 1.98 0.66 3 1-0.33 0.66-0.66 1.32-1 2-0.66-0.99-1.32-1.98-2-3z" fill="#000100"/>
<path transform="translate(450,1490)" d="m0 0c1.49 0.99 1.49 0.99 3 2h-3v-2z" fill="#000100"/>
<path transform="translate(1281,1167)" d="m0 0c0.33 0.66 0.66 1.32 1 2-0.99-0.33-1.98-0.66-3-1 0.66-0.33 1.32-0.66 2-1z" fill="#000100"/>
<path transform="translate(445,1142)" d="m0 0c0.33 0.99 0.66 1.98 1 3-0.66-0.33-1.32-0.66-2-1 0.33-0.66 0.66-1.32 1-2z" fill="#3F403F"/>
<path transform="translate(417,1066)" d="m0 0c0.33 0.99 0.66 1.98 1 3-0.66-0.33-1.32-0.66-2-1 0.33-0.66 0.66-1.32 1-2z" fill="#000100"/>
<path transform="translate(64,1022)" d="m0 0c0.99 0.33 1.98 0.66 3 1h-3v-1z" fill="#000100"/>
<path transform="translate(504,942)" d="m0 0 2 1c-0.66 0.66-1.32 1.32-2 2v-3z" fill="#7E7F7F"/>
<path transform="translate(233,622)" d="m0 0 2 1c-0.66 0.66-1.32 1.32-2 2v-3z" fill="#BDBEBF"/>
<path transform="translate(1233,479)" d="m0 0 2 1c-0.33 0.66-0.66 1.32-1 2-0.33-0.99-0.66-1.98-1-3z" fill="#FCFDFF"/>
<path transform="translate(626,472)" d="m0 0 2 1c-0.33 0.66-0.66 1.32-1 2-0.33-0.99-0.66-1.98-1-3z" fill="#000100"/>
<path transform="translate(939,468)" d="m0 0h2v2h-2v-2z" fill="#3F403F"/>
<path transform="translate(1224,465)" d="m0 0 1 4z" fill="#FCFDFF"/>
<path transform="translate(1225,454)" d="m0 0 1 4z" fill="#FCFDFF"/>
<path transform="translate(1224,450)" d="m0 0c0.66 0.66 1.32 1.32 2 2l-2 1v-3z" fill="#000100"/>
<path transform="translate(763,438)" d="m0 0h2c-0.33 0.99-0.66 1.98-1 3-0.33-0.99-0.66-1.98-1-3z" fill="#BDBEBF"/>
<path transform="translate(1335,382)" d="m0 0 2 1c-0.33 0.66-0.66 1.32-1 2-0.33-0.99-0.66-1.98-1-3z" fill="#000100"/>
<path transform="translate(483,311)" d="m0 0c0.99 1.49 0.99 1.49 2 3h-2v-3z" fill="#3F403F"/>
<path transform="translate(337,270)" d="m0 0h2c-0.33 0.99-0.66 1.98-1 3-0.33-0.99-0.66-1.98-1-3z" fill="#000100"/>
<path transform="translate(652,1518)" d="m0 0c3 1 3 1 3 1z" fill="#000100"/>
<path transform="translate(345,1368)" d="m0 0c0.99 0.495 0.99 0.495 2 1-0.99 0.495-0.99 0.495-2 1v-2z" fill="#000100"/>
<path transform="translate(343,1264)" d="m0 0c0.66 0.66 1.32 1.32 2 2h-2v-2z" fill="#545555"/>
<path transform="translate(349,1263)" d="m0 0c3 1 3 1 3 1z" fill="#000100"/>
<path transform="translate(1063,1228)" d="m0 0c0.99 0.495 0.99 0.495 2 1-0.99 0.495-0.99 0.495-2 1v-2z" fill="#000100"/>
<path transform="translate(1064,1225)" d="m0 0 2 2h-2v-2z" fill="#000100"/>
<path transform="translate(1292,1173)" d="m0 0c3 1 3 1 3 1z" fill="#000100"/>
<path transform="translate(449,1137)" d="m0 0c0.33 0.66 0.66 1.32 1 2-0.66-0.33-1.32-0.66-2-1 0.33-0.33 0.66-0.66 1-1z" fill="#000100"/>
<path transform="translate(506,939)" d="m0 0 1 2c-0.66-0.33-1.32-0.66-2-1 0.33-0.33 0.66-0.66 1-1z" fill="#000100"/>
<path transform="translate(425,892)" d="m0 0c3 1 3 1 3 1z" fill="#000100"/>
<path transform="translate(544,856)" d="m0 0 2 2h-2v-2z" fill="#000100"/>
<path transform="translate(1227,806)" d="m0 0c0.66 0.66 1.32 1.32 2 2h-2v-2z" fill="#545555"/>
<path transform="translate(1111,641)" d="m0 0c0.33 0.66 0.66 1.32 1 2-0.66-0.33-1.32-0.66-2-1 0.33-0.33 0.66-0.66 1-1z" fill="#FCFDFF"/>
<path transform="translate(1115,639)" d="m0 0c0.33 0.66 0.66 1.32 1 2-0.66-0.33-1.32-0.66-2-1 0.33-0.33 0.66-0.66 1-1z" fill="#000100"/>
<path transform="translate(1090,601)" d="m0 0c0.66 0.66 1.32 1.32 2 2h-2v-2z" fill="#000100"/>
<path transform="translate(1080,592)" d="m0 0c3 1 3 1 3 1z" fill="#000100"/>
<path transform="translate(1068,575)" d="m0 0c0.66 0.66 1.32 1.32 2 2h-2v-2z" fill="#000100"/>
<path transform="translate(704,520)" d="m0 0 2 1-2 1v-2z" fill="#000100"/>
<path transform="translate(766,448)" d="m0 0h2c-0.33 0.66-0.66 1.32-1 2-0.33-0.66-0.66-1.32-1-2z" fill="#000100"/>
<path transform="translate(1330,379)" d="m0 0h2c-0.33 0.66-0.66 1.32-1 2-0.33-0.66-0.66-1.32-1-2z" fill="#000100"/>
<path transform="translate(737,330)" d="m0 0c0.33 0.66 0.66 1.32 1 2-0.66-0.33-1.32-0.66-2-1 0.33-0.33 0.66-0.66 1-1z" fill="#000100"/>
<path transform="translate(442,280)" d="m0 0 2 1-2 1v-2z" fill="#FCFDFF"/>
<path transform="translate(667,1519)" d="m0 0 2 1z" fill="#000100"/>
<path transform="translate(865,1516)" d="m0 0 2 1z" fill="#000100"/>
<path transform="translate(1019,1486)" d="m0 0 2 1z" fill="#000100"/>
<path transform="translate(470,1273)" d="m0 0 2 1z" fill="#000100"/>
<path transform="translate(466,1273)" d="m0 0 2 1z" fill="#000100"/>
<path transform="translate(1070,1228)" d="m0 0 2 1z" fill="#000100"/>
<path transform="translate(1284,1177)" d="m0 0 2 1z" fill="#FCFDFF"/>
<path transform="translate(1290,1174)" d="m0 0 2 1z" fill="#000100"/>
<path transform="translate(1306,1170)" d="m0 0 2 1z" fill="#000100"/>
<path transform="translate(425,1067)" d="m0 0 2 1z" fill="#000100"/>
<path transform="translate(420,1066)" d="m0 0 2 1z" fill="#000100"/>
<path transform="translate(1359,954)" d="m0 0 2 1z" fill="#000100"/>
<path transform="translate(392,947)" d="m0 0 2 1z" fill="#000100"/>
<path transform="translate(41,899)" d="m0 0 2 1z" fill="#000100"/>
<path transform="translate(670,719)" d="m0 0 2 1z" fill="#7E7F7F"/>
<path transform="translate(244,626)" d="m0 0 2 1z" fill="#FCFDFF"/>
<path transform="translate(1e3 505)" d="m0 0 2 1z" fill="#000100"/>
<path transform="translate(945,449)" d="m0 0 2 1z" fill="#000100"/>
<path transform="translate(761,434)" d="m0 0 2 1z" fill="#000100"/>
<path transform="translate(759,325)" d="m0 0 2 1z" fill="#000100"/>
<path transform="translate(395,266)" d="m0 0 2 1z" fill="#FCFDFF"/>
</svg>
