<svg width="947.402mm" height="487.557mm" viewBox="0 0 947.402 487.557" xmlns="http://www.w3.org/2000/svg" version="1.1" preserveAspectRatio="xMidYMid meet"><g id="svgGroup" stroke-linecap="round" fill-rule="evenodd" font-size="9pt" stroke="#000" stroke-width="0.25mm" fill="none" style="stroke:#000;stroke-width:0.25mm;fill:none"><path d="M 161.279 171 L 150.639 171 L 150.639 165 L 138.639 165 L 138.639 171 L 126.639 171 L 126.639 165 L 114.639 165 L 114.639 171 L 102.639 171 L 102.639 165 L 90.639 165 L 90.639 171 L 78.639 171 L 78.639 165 L 66.639 165 L 66.639 171 L 56 171 L 53.501 171.062 L 51.008 171.25 L 48.528 171.561 L 46.067 171.997 L 43.63 172.554 L 41.224 173.233 L 38.855 174.031 L 36.529 174.947 L 34.252 175.978 L 32.029 177.121 L 29.866 178.374 L 27.768 179.733 L 25.741 181.196 L 23.789 182.758 L 21.918 184.416 L 20.132 186.165 L 18.436 188.001 L 16.834 189.92 L 15.329 191.916 L 13.926 193.985 L 12.629 196.121 L 11.44 198.32 L 10.362 200.576 L 9.398 202.882 L 8.551 205.234 L 7.822 207.625 L 7.214 210.05 L 6.728 212.502 L 6.364 214.975 L 6.125 217.463 L 6.011 219.96 L 6 221 L 6 236.279 L 0 236.279 L 0 248.279 L 6 248.279 L 6 260.279 L 0 260.279 L 0 272.279 L 6 272.279 L 6 284.279 L 0 284.279 L 0 296.279 L 6 296.279 L 6 308.279 L 0 308.279 L 0 320.279 L 6 320.279 L 6 332.279 L 0 332.279 L 0 344.279 L 6 344.279 L 6 356.279 L 0 356.279 L 0 368.279 L 6 368.279 L 6 380.279 L 0 380.279 L 0 392.279 L 6 392.279 L 6 404.279 L 0 404.279 L 0 416.279 L 6 416.279 L 6 431.557 L 6.062 434.056 L 6.25 436.549 L 6.561 439.029 L 6.997 441.491 L 7.554 443.927 L 8.233 446.333 L 9.031 448.702 L 9.947 451.028 L 10.978 453.306 L 12.121 455.529 L 13.374 457.692 L 14.733 459.789 L 16.196 461.817 L 17.758 463.768 L 19.416 465.639 L 21.165 467.425 L 23.001 469.121 L 24.92 470.724 L 26.916 472.228 L 28.985 473.631 L 31.121 474.928 L 33.32 476.118 L 35.576 477.195 L 37.882 478.159 L 40.234 479.007 L 42.625 479.735 L 45.05 480.343 L 47.502 480.83 L 49.975 481.193 L 52.463 481.432 L 54.96 481.546 L 56 481.557 L 64.32 481.557 L 64.32 487.557 L 76.32 487.557 L 76.32 481.557 L 88.32 481.557 L 88.32 487.557 L 100.32 487.557 L 100.32 481.557 L 108.639 481.557 L 116.959 481.557 L 116.959 487.557 L 128.959 487.557 L 128.959 481.557 L 140.959 481.557 L 140.959 487.557 L 152.959 487.557 L 152.959 481.557 L 161.279 481.557 L 163.778 481.495 L 166.27 481.307 L 168.751 480.996 L 171.212 480.561 L 173.649 480.003 L 176.055 479.324 L 178.424 478.526 L 180.75 477.61 L 183.027 476.58 L 185.25 475.436 L 187.413 474.184 L 189.511 472.824 L 191.538 471.361 L 193.49 469.799 L 195.361 468.142 L 197.146 466.393 L 198.843 464.556 L 200.445 462.638 L 201.949 460.641 L 203.352 458.572 L 204.65 456.436 L 205.839 454.237 L 206.917 451.982 L 207.881 449.675 L 208.728 447.323 L 209.457 444.932 L 210.065 442.508 L 210.551 440.056 L 210.914 437.582 L 211.153 435.094 L 211.268 432.597 L 211.279 431.557 L 211.279 416.279 L 217.279 416.279 L 217.279 404.279 L 211.279 404.279 L 211.279 392.279 L 217.279 392.279 L 217.279 380.279 L 211.279 380.279 L 211.279 368.279 L 217.279 368.279 L 217.279 356.279 L 211.279 356.279 L 211.279 344.279 L 217.279 344.279 L 217.279 332.279 L 211.279 332.279 L 211.279 320.279 L 217.279 320.279 L 217.279 308.279 L 211.279 308.279 L 211.279 296.279 L 217.279 296.279 L 217.279 284.279 L 211.279 284.279 L 211.279 272.279 L 217.279 272.279 L 217.279 260.279 L 211.279 260.279 L 211.279 248.279 L 217.279 248.279 L 217.279 236.279 L 211.279 236.279 L 211.279 221 L 211.216 218.501 L 211.029 216.008 L 210.717 213.528 L 210.282 211.067 L 209.724 208.63 L 209.045 206.224 L 208.247 203.855 L 207.332 201.529 L 206.301 199.252 L 205.158 197.029 L 203.905 194.866 L 202.545 192.768 L 201.083 190.741 L 199.521 188.789 L 197.863 186.918 L 196.114 185.132 L 194.278 183.436 L 192.359 181.834 L 190.363 180.329 L 188.294 178.926 L 186.157 177.629 L 183.958 176.44 L 181.703 175.362 L 179.397 174.398 L 177.045 173.551 L 174.654 172.822 L 172.229 172.214 L 169.777 171.728 L 167.304 171.364 L 164.816 171.125 L 162.318 171.011 L 161.279 171 Z" id="TOP_outsideCutPath" stroke="#FF0000" stroke-width="0.1" style="stroke:#FF0000;stroke-width:0.1" vector-effect="non-scaling-stroke"/><path d="M 81.352 314.004 L 81.352 341.821 L 77.745 341.821 L 77.745 314.004 L 67.921 314.004 L 67.921 310.8 L 91.176 310.8 L 91.176 314.004 L 81.352 314.004 Z M 122.326 331.012 A 23.771 23.771 0 0 0 122.771 326.268 A 27.869 27.869 0 0 0 122.734 324.819 Q 122.602 322.288 122 320.162 A 14.131 14.131 0 0 0 119.015 314.555 A 12.053 12.053 0 0 0 113.001 310.86 A 16.897 16.897 0 0 0 108.575 310.312 A 18.452 18.452 0 0 0 104.562 310.724 A 12.141 12.141 0 0 0 97.966 314.481 A 12.743 12.743 0 0 0 96.263 316.904 Q 94.232 320.639 94.232 326.226 A 28.588 28.588 0 0 0 94.301 328.243 Q 94.739 334.435 97.955 338.055 A 12.005 12.005 0 0 0 104.191 341.75 A 17.93 17.93 0 0 0 108.533 342.246 A 18.017 18.017 0 0 0 111.702 341.979 A 12.317 12.317 0 0 0 119.004 337.981 Q 121.476 335.182 122.326 331.012 Z M 136.945 329.621 L 133.295 329.621 L 133.295 341.821 L 129.688 341.821 L 129.688 310.8 L 137.73 310.8 A 21.939 21.939 0 0 1 141.974 311.173 Q 148.702 312.506 149.299 318.605 A 12.66 12.66 0 0 1 149.358 319.839 A 11 11 0 0 1 148.951 322.913 A 8.045 8.045 0 0 1 146.143 327.085 A 10.618 10.618 0 0 1 142.731 328.84 Q 140.264 329.621 136.945 329.621 Z M 98.051 326.268 A 23.701 23.701 0 0 0 98.3 329.826 Q 98.869 333.562 100.735 335.827 Q 103.419 339.084 108.533 339.084 A 13.011 13.011 0 0 0 111.645 338.735 A 8.422 8.422 0 0 0 116.32 335.838 A 10.411 10.411 0 0 0 118.072 332.551 Q 118.951 329.924 118.951 326.268 A 23.945 23.945 0 0 0 118.708 322.734 Q 118.435 320.908 117.855 319.435 A 10.044 10.044 0 0 0 116.331 316.773 A 8.434 8.434 0 0 0 111.471 313.837 A 13.149 13.149 0 0 0 108.575 313.537 Q 103.419 313.537 100.735 316.794 A 10.552 10.552 0 0 0 98.877 320.282 Q 98.386 321.789 98.187 323.616 A 24.506 24.506 0 0 0 98.051 326.268 Z M 133.295 313.919 L 133.295 326.523 L 136.542 326.523 A 23.673 23.673 0 0 0 138.902 326.413 Q 141.305 326.172 142.793 325.396 A 5.564 5.564 0 0 0 143.48 324.974 Q 145.529 323.493 145.619 320.305 A 10.506 10.506 0 0 0 145.623 320.009 A 7.433 7.433 0 0 0 145.416 318.199 A 4.806 4.806 0 0 0 143.607 315.425 A 6.271 6.271 0 0 0 141.868 314.537 Q 140.059 313.919 137.327 313.919 L 133.295 313.919 Z" id="TOP_labelLayer" stroke="#777777" fill="#777777" style="stroke:#777777;fill:#777777" vector-effect="non-scaling-stroke"/><path d="M 381.557 171 L 370.918 171 L 370.918 165 L 358.918 165 L 358.918 171 L 346.918 171 L 346.918 165 L 334.918 165 L 334.918 171 L 322.918 171 L 322.918 165 L 310.918 165 L 310.918 171 L 298.918 171 L 298.918 165 L 286.918 165 L 286.918 171 L 276.279 171 L 273.78 171.062 L 271.287 171.25 L 268.807 171.561 L 266.345 171.997 L 263.908 172.554 L 261.503 173.233 L 259.134 174.031 L 256.808 174.947 L 254.53 175.978 L 252.307 177.121 L 250.144 178.374 L 248.047 179.733 L 246.019 181.196 L 244.068 182.758 L 242.197 184.416 L 240.411 186.165 L 238.715 188.001 L 237.112 189.92 L 235.608 191.916 L 234.205 193.985 L 232.907 196.121 L 231.718 198.32 L 230.64 200.576 L 229.677 202.882 L 228.829 205.234 L 228.101 207.625 L 227.492 210.05 L 227.006 212.502 L 226.643 214.975 L 226.404 217.463 L 226.289 219.96 L 226.279 221 L 226.279 236.279 L 220.279 236.279 L 220.279 248.279 L 226.279 248.279 L 226.279 260.279 L 220.279 260.279 L 220.279 272.279 L 226.279 272.279 L 226.279 284.279 L 220.279 284.279 L 220.279 296.279 L 226.279 296.279 L 226.279 308.279 L 220.279 308.279 L 220.279 320.279 L 226.279 320.279 L 226.279 332.279 L 220.279 332.279 L 220.279 344.279 L 226.279 344.279 L 226.279 356.279 L 220.279 356.279 L 220.279 368.279 L 226.279 368.279 L 226.279 380.279 L 220.279 380.279 L 220.279 392.279 L 226.279 392.279 L 226.279 404.279 L 220.279 404.279 L 220.279 416.279 L 226.279 416.279 L 226.279 431.557 L 226.341 434.056 L 226.528 436.549 L 226.84 439.029 L 227.275 441.491 L 227.833 443.927 L 228.512 446.333 L 229.31 448.702 L 230.226 451.028 L 231.256 453.306 L 232.4 455.529 L 233.652 457.692 L 235.012 459.789 L 236.474 461.817 L 238.037 463.768 L 239.694 465.639 L 241.443 467.425 L 243.279 469.121 L 245.198 470.724 L 247.194 472.228 L 249.264 473.631 L 251.4 474.928 L 253.599 476.118 L 255.854 477.195 L 258.161 478.159 L 260.513 479.007 L 262.904 479.735 L 265.328 480.343 L 267.78 480.83 L 270.254 481.193 L 272.742 481.432 L 275.239 481.546 L 276.279 481.557 L 284.598 481.557 L 284.598 487.557 L 296.598 487.557 L 296.598 481.557 L 308.598 481.557 L 308.598 487.557 L 320.598 487.557 L 320.598 481.557 L 328.918 481.557 L 337.238 481.557 L 337.238 487.557 L 349.238 487.557 L 349.238 481.557 L 361.238 481.557 L 361.238 487.557 L 373.238 487.557 L 373.238 481.557 L 381.557 481.557 L 384.056 481.495 L 386.549 481.307 L 389.029 480.996 L 391.491 480.561 L 393.927 480.003 L 396.333 479.324 L 398.702 478.526 L 401.028 477.61 L 403.306 476.58 L 405.529 475.436 L 407.692 474.184 L 409.789 472.824 L 411.817 471.361 L 413.768 469.799 L 415.639 468.142 L 417.425 466.393 L 419.121 464.556 L 420.724 462.638 L 422.228 460.641 L 423.631 458.572 L 424.928 456.436 L 426.118 454.237 L 427.195 451.982 L 428.159 449.675 L 429.007 447.323 L 429.735 444.932 L 430.343 442.508 L 430.83 440.056 L 431.193 437.582 L 431.432 435.094 L 431.546 432.597 L 431.557 431.557 L 431.557 416.279 L 437.557 416.279 L 437.557 404.279 L 431.557 404.279 L 431.557 392.279 L 437.557 392.279 L 437.557 380.279 L 431.557 380.279 L 431.557 368.279 L 437.557 368.279 L 437.557 356.279 L 431.557 356.279 L 431.557 344.279 L 437.557 344.279 L 437.557 332.279 L 431.557 332.279 L 431.557 320.279 L 437.557 320.279 L 437.557 308.279 L 431.557 308.279 L 431.557 296.279 L 437.557 296.279 L 437.557 284.279 L 431.557 284.279 L 431.557 272.279 L 437.557 272.279 L 437.557 260.279 L 431.557 260.279 L 431.557 248.279 L 437.557 248.279 L 437.557 236.279 L 431.557 236.279 L 431.557 221 L 431.495 218.501 L 431.307 216.008 L 430.996 213.528 L 430.561 211.067 L 430.003 208.63 L 429.324 206.224 L 428.526 203.855 L 427.61 201.529 L 426.58 199.252 L 425.436 197.029 L 424.184 194.866 L 422.824 192.768 L 421.361 190.741 L 419.799 188.789 L 418.142 186.918 L 416.393 185.132 L 414.556 183.436 L 412.638 181.834 L 410.641 180.329 L 408.572 178.926 L 406.436 177.629 L 404.237 176.44 L 401.982 175.362 L 399.675 174.398 L 397.323 173.551 L 394.932 172.822 L 392.508 172.214 L 390.056 171.728 L 387.582 171.364 L 385.094 171.125 L 382.597 171.011 L 381.557 171 Z" id="BOTTOM_outsideCutPath" stroke="#FF0000" stroke-width="0.1" style="stroke:#FF0000;stroke-width:0.1" vector-effect="non-scaling-stroke"/><path d="M 402.154 341.821 L 399.247 341.821 L 388.723 314.322 L 388.553 314.322 A 64.481 64.481 0 0 1 388.734 316.946 Q 388.806 318.402 388.834 320.047 A 123.528 123.528 0 0 1 388.85 322.088 L 388.85 341.821 L 385.519 341.821 L 385.519 310.8 L 390.951 310.8 L 400.775 336.389 L 400.945 336.389 L 410.854 310.8 L 416.243 310.8 L 416.243 341.821 L 412.636 341.821 L 412.636 321.833 Q 412.636 318.396 412.933 314.364 L 412.763 314.364 L 402.154 341.821 Z M 313.142 314.004 L 313.142 341.821 L 309.535 341.821 L 309.535 314.004 L 299.711 314.004 L 299.711 310.8 L 322.966 310.8 L 322.966 314.004 L 313.142 314.004 Z M 337.183 314.004 L 337.183 341.821 L 333.575 341.821 L 333.575 314.004 L 323.751 314.004 L 323.751 310.8 L 347.007 310.8 L 347.007 314.004 L 337.183 314.004 Z M 241.593 341.821 L 241.593 310.8 L 250.356 310.8 A 32.912 32.912 0 0 1 253.395 310.93 Q 256.432 311.213 258.334 312.109 A 7.354 7.354 0 0 1 259.289 312.646 A 5.996 5.996 0 0 1 261.886 316.674 A 9.556 9.556 0 0 1 262.047 318.481 A 8.133 8.133 0 0 1 261.794 320.563 A 6.15 6.15 0 0 1 260.509 323.032 Q 258.971 324.825 256.021 325.356 L 256.021 325.568 Q 262.613 326.696 263.055 332.183 A 10.103 10.103 0 0 1 263.087 332.994 A 9.866 9.866 0 0 1 262.708 335.802 A 7.43 7.43 0 0 1 260.276 339.487 A 9.374 9.374 0 0 1 256.935 341.229 Q 254.959 341.821 252.414 341.821 L 241.593 341.821 Z M 296.231 331.012 A 23.771 23.771 0 0 0 296.676 326.268 A 27.869 27.869 0 0 0 296.639 324.819 Q 296.508 322.288 295.905 320.162 A 14.131 14.131 0 0 0 292.921 314.555 A 12.053 12.053 0 0 0 286.907 310.86 A 16.897 16.897 0 0 0 282.481 310.312 A 18.452 18.452 0 0 0 278.468 310.724 A 12.141 12.141 0 0 0 271.872 314.481 A 12.743 12.743 0 0 0 270.169 316.904 Q 268.137 320.639 268.137 326.226 A 28.588 28.588 0 0 0 268.206 328.243 Q 268.645 334.435 271.861 338.055 A 12.005 12.005 0 0 0 278.097 341.75 A 17.93 17.93 0 0 0 282.439 342.246 A 18.017 18.017 0 0 0 285.607 341.979 A 12.317 12.317 0 0 0 292.91 337.981 Q 295.382 335.182 296.231 331.012 Z M 378.156 331.012 A 23.771 23.771 0 0 0 378.601 326.268 A 27.869 27.869 0 0 0 378.564 324.819 Q 378.433 322.288 377.83 320.162 A 14.131 14.131 0 0 0 374.846 314.555 A 12.053 12.053 0 0 0 368.832 310.86 A 16.897 16.897 0 0 0 364.406 310.312 A 18.452 18.452 0 0 0 360.393 310.724 A 12.141 12.141 0 0 0 353.797 314.481 A 12.743 12.743 0 0 0 352.094 316.904 Q 350.062 320.639 350.062 326.226 A 28.588 28.588 0 0 0 350.131 328.243 Q 350.57 334.435 353.786 338.055 A 12.005 12.005 0 0 0 360.022 341.75 A 17.93 17.93 0 0 0 364.364 342.246 A 18.017 18.017 0 0 0 367.533 341.979 A 12.317 12.317 0 0 0 374.835 337.981 Q 377.307 335.182 378.156 331.012 Z M 271.957 326.268 A 23.701 23.701 0 0 0 272.206 329.826 Q 272.774 333.562 274.641 335.827 Q 277.325 339.084 282.439 339.084 A 13.011 13.011 0 0 0 285.55 338.735 A 8.422 8.422 0 0 0 290.226 335.838 A 10.411 10.411 0 0 0 291.978 332.551 Q 292.857 329.924 292.857 326.268 A 23.945 23.945 0 0 0 292.614 322.734 Q 292.34 320.908 291.76 319.435 A 10.044 10.044 0 0 0 290.236 316.773 A 8.434 8.434 0 0 0 285.377 313.837 A 13.149 13.149 0 0 0 282.481 313.537 Q 277.325 313.537 274.641 316.794 A 10.552 10.552 0 0 0 272.782 320.282 Q 272.292 321.789 272.093 323.616 A 24.506 24.506 0 0 0 271.957 326.268 Z M 353.882 326.268 A 23.701 23.701 0 0 0 354.131 329.826 Q 354.699 333.562 356.566 335.827 Q 359.25 339.084 364.364 339.084 A 13.011 13.011 0 0 0 367.476 338.735 A 8.422 8.422 0 0 0 372.151 335.838 A 10.411 10.411 0 0 0 373.903 332.551 Q 374.782 329.924 374.782 326.268 A 23.945 23.945 0 0 0 374.539 322.734 Q 374.265 320.908 373.685 319.435 A 10.044 10.044 0 0 0 372.162 316.773 A 8.434 8.434 0 0 0 367.302 313.837 A 13.149 13.149 0 0 0 364.406 313.537 Q 359.25 313.537 356.566 316.794 A 10.552 10.552 0 0 0 354.708 320.282 Q 354.217 321.789 354.018 323.616 A 24.506 24.506 0 0 0 353.882 326.268 Z M 251.375 327.138 L 245.2 327.138 L 245.2 338.745 L 251.672 338.745 A 15.527 15.527 0 0 0 253.738 338.616 Q 255.991 338.313 257.326 337.291 Q 259.225 335.838 259.225 332.74 A 6.768 6.768 0 0 0 259.036 331.085 A 4.341 4.341 0 0 0 257.284 328.496 A 6.254 6.254 0 0 0 255.627 327.695 Q 253.916 327.138 251.375 327.138 Z M 245.2 313.919 L 245.2 324.083 L 251.141 324.083 A 19.331 19.331 0 0 0 253.019 323.998 Q 254.893 323.814 256.054 323.232 A 4.349 4.349 0 0 0 256.637 322.884 A 3.734 3.734 0 0 0 258.012 320.956 Q 258.313 320.047 258.313 318.842 A 5.702 5.702 0 0 0 258.133 317.361 A 3.729 3.729 0 0 0 256.446 315.075 Q 254.808 314.061 251.472 313.936 A 25.942 25.942 0 0 0 250.505 313.919 L 245.2 313.919 Z" id="BOTTOM_labelLayer" stroke="#777777" fill="#777777" style="stroke:#777777;fill:#777777" vector-effect="non-scaling-stroke"/><path d="M 52.639 162 52.639 121.5 M 52.639 101.25 52.639 60.75 M 52.639 40.5 52.639 0 M 58.717 162 58.717 151.875 M 58.717 131.625 58.717 91.125 M 58.717 70.875 58.717 30.375 M 58.717 10.125 58.717 0 M 64.795 162 64.795 121.5 M 64.795 101.25 64.795 60.75 M 64.795 40.5 64.795 0 M 70.872 162 70.872 151.875 M 70.872 131.625 70.872 91.125 M 70.872 70.875 70.872 30.375 M 70.872 10.125 70.872 0 M 76.95 162 76.95 121.5 M 76.95 101.25 76.95 60.75 M 76.95 40.5 76.95 0 M 83.028 162 83.028 151.875 M 83.028 131.625 83.028 91.125 M 83.028 70.875 83.028 30.375 M 83.028 10.125 83.028 0 M 89.106 162 89.106 121.5 M 89.106 101.25 89.106 60.75 M 89.106 40.5 89.106 0 M 95.183 162 95.183 151.875 M 95.183 131.625 95.183 91.125 M 95.183 70.875 95.183 30.375 M 95.183 10.125 95.183 0 M 101.261 162 101.261 121.5 M 101.261 101.25 101.261 60.75 M 101.261 40.5 101.261 0 M 107.339 162 107.339 151.875 M 107.339 131.625 107.339 91.125 M 107.339 70.875 107.339 30.375 M 107.339 10.125 107.339 0 M 113.416 162 113.416 121.5 M 113.416 101.25 113.416 60.75 M 113.416 40.5 113.416 0 M 119.494 162 119.494 151.875 M 119.494 131.625 119.494 91.125 M 119.494 70.875 119.494 30.375 M 119.494 10.125 119.494 0 M 125.572 162 125.572 121.5 M 125.572 101.25 125.572 60.75 M 125.572 40.5 125.572 0 M 342.129 162 342.129 121.5 M 342.129 101.25 342.129 60.75 M 342.129 40.5 342.129 0 M 348.207 162 348.207 151.875 M 348.207 131.625 348.207 91.125 M 348.207 70.875 348.207 30.375 M 348.207 10.125 348.207 0 M 354.285 162 354.285 121.5 M 354.285 101.25 354.285 60.75 M 354.285 40.5 354.285 0 M 360.362 162 360.362 151.875 M 360.362 131.625 360.362 91.125 M 360.362 70.875 360.362 30.375 M 360.362 10.125 360.362 0 M 366.44 162 366.44 121.5 M 366.44 101.25 366.44 60.75 M 366.44 40.5 366.44 0 M 372.518 162 372.518 151.875 M 372.518 131.625 372.518 91.125 M 372.518 70.875 372.518 30.375 M 372.518 10.125 372.518 0 M 378.595 162 378.595 121.5 M 378.595 101.25 378.595 60.75 M 378.595 40.5 378.595 0 M 384.673 162 384.673 151.875 M 384.673 131.625 384.673 91.125 M 384.673 70.875 384.673 30.375 M 384.673 10.125 384.673 0 M 390.751 162 390.751 121.5 M 390.751 101.25 390.751 60.75 M 390.751 40.5 390.751 0 M 396.829 162 396.829 151.875 M 396.829 131.625 396.829 91.125 M 396.829 70.875 396.829 30.375 M 396.829 10.125 396.829 0 M 402.906 162 402.906 121.5 M 402.906 101.25 402.906 60.75 M 402.906 40.5 402.906 0 M 408.984 162 408.984 151.875 M 408.984 131.625 408.984 91.125 M 408.984 70.875 408.984 30.375 M 408.984 10.125 408.984 0 M 415.062 162 415.062 121.5 M 415.062 101.25 415.062 60.75 M 415.062 40.5 415.062 0 M 526.34 162 526.34 121.5 M 526.34 101.25 526.34 60.75 M 526.34 40.5 526.34 0 M 532.418 162 532.418 151.875 M 532.418 131.625 532.418 91.125 M 532.418 70.875 532.418 30.375 M 532.418 10.125 532.418 0 M 538.496 162 538.496 121.5 M 538.496 101.25 538.496 60.75 M 538.496 40.5 538.496 0 M 544.573 162 544.573 151.875 M 544.573 131.625 544.573 91.125 M 544.573 70.875 544.573 30.375 M 544.573 10.125 544.573 0 M 550.651 162 550.651 121.5 M 550.651 101.25 550.651 60.75 M 550.651 40.5 550.651 0 M 556.729 162 556.729 151.875 M 556.729 131.625 556.729 91.125 M 556.729 70.875 556.729 30.375 M 556.729 10.125 556.729 0 M 562.807 162 562.807 121.5 M 562.807 101.25 562.807 60.75 M 562.807 40.5 562.807 0 M 568.884 162 568.884 151.875 M 568.884 131.625 568.884 91.125 M 568.884 70.875 568.884 30.375 M 568.884 10.125 568.884 0 M 574.962 162 574.962 121.5 M 574.962 101.25 574.962 60.75 M 574.962 40.5 574.962 0 M 581.04 162 581.04 151.875 M 581.04 131.625 581.04 91.125 M 581.04 70.875 581.04 30.375 M 581.04 10.125 581.04 0 M 587.117 162 587.117 121.5 M 587.117 101.25 587.117 60.75 M 587.117 40.5 587.117 0 M 593.195 162 593.195 151.875 M 593.195 131.625 593.195 91.125 M 593.195 70.875 593.195 30.375 M 593.195 10.125 593.195 0 M 599.273 162 599.273 121.5 M 599.273 101.25 599.273 60.75 M 599.273 40.5 599.273 0 M 815.83 162 815.83 121.5 M 815.83 101.25 815.83 60.75 M 815.83 40.5 815.83 0 M 821.908 162 821.908 151.875 M 821.908 131.625 821.908 91.125 M 821.908 70.875 821.908 30.375 M 821.908 10.125 821.908 0 M 827.985 162 827.985 121.5 M 827.985 101.25 827.985 60.75 M 827.985 40.5 827.985 0 M 834.063 162 834.063 151.875 M 834.063 131.625 834.063 91.125 M 834.063 70.875 834.063 30.375 M 834.063 10.125 834.063 0 M 840.141 162 840.141 121.5 M 840.141 101.25 840.141 60.75 M 840.141 40.5 840.141 0 M 846.219 162 846.219 151.875 M 846.219 131.625 846.219 91.125 M 846.219 70.875 846.219 30.375 M 846.219 10.125 846.219 0 M 852.296 162 852.296 121.5 M 852.296 101.25 852.296 60.75 M 852.296 40.5 852.296 0 M 858.374 162 858.374 151.875 M 858.374 131.625 858.374 91.125 M 858.374 70.875 858.374 30.375 M 858.374 10.125 858.374 0 M 864.452 162 864.452 121.5 M 864.452 101.25 864.452 60.75 M 864.452 40.5 864.452 0 M 870.529 162 870.529 151.875 M 870.529 131.625 870.529 91.125 M 870.529 70.875 870.529 30.375 M 870.529 10.125 870.529 0 M 876.607 162 876.607 121.5 M 876.607 101.25 876.607 60.75 M 876.607 40.5 876.607 0 M 882.685 162 882.685 151.875 M 882.685 131.625 882.685 91.125 M 882.685 70.875 882.685 30.375 M 882.685 10.125 882.685 0 M 888.763 162 888.763 121.5 M 888.763 101.25 888.763 60.75 M 888.763 40.5 888.763 0" id="SIDE_insideCutPath" stroke="#0000FF" stroke-width="0.1" style="stroke:#0000FF;stroke-width:0.1" vector-effect="non-scaling-stroke"/><path d="M 0 0 L 0 162 L 8.32 162 L 8.32 156 L 20.32 156 L 20.32 162 L 32.32 162 L 32.32 156 L 44.32 156 L 44.32 162 L 52.639 162 L 131.572 162 L 146.85 162 L 146.85 156 L 158.85 156 L 158.85 162 L 170.85 162 L 170.85 156 L 182.85 156 L 182.85 162 L 194.85 162 L 194.85 156 L 206.85 156 L 206.85 162 L 218.85 162 L 218.85 156 L 230.85 156 L 230.85 162 L 242.85 162 L 242.85 156 L 254.85 156 L 254.85 162 L 266.85 162 L 266.85 156 L 278.85 156 L 278.85 162 L 290.85 162 L 290.85 156 L 302.85 156 L 302.85 162 L 314.85 162 L 314.85 156 L 326.85 156 L 326.85 162 L 342.129 162 L 421.062 162 L 431.701 162 L 431.701 156 L 443.701 156 L 443.701 162 L 455.701 162 L 455.701 156 L 467.701 156 L 467.701 162 L 479.701 162 L 479.701 156 L 491.701 156 L 491.701 162 L 503.701 162 L 503.701 156 L 515.701 156 L 515.701 162 L 526.34 162 L 605.273 162 L 620.551 162 L 620.551 156 L 632.551 156 L 632.551 162 L 644.551 162 L 644.551 156 L 656.551 156 L 656.551 162 L 668.551 162 L 668.551 156 L 680.551 156 L 680.551 162 L 692.551 162 L 692.551 156 L 704.551 156 L 704.551 162 L 716.551 162 L 716.551 156 L 728.551 156 L 728.551 162 L 740.551 162 L 740.551 156 L 752.551 156 L 752.551 162 L 764.551 162 L 764.551 156 L 776.551 156 L 776.551 162 L 788.551 162 L 788.551 156 L 800.551 156 L 800.551 162 L 815.83 162 L 894.763 162 L 903.082 162 L 903.082 156 L 915.082 156 L 915.082 162 L 927.082 162 L 927.082 156 L 939.082 156 L 939.082 162 L 947.402 162 L 947.402 0 L 939.082 0 L 939.082 6 L 927.082 6 L 927.082 0 L 915.082 0 L 915.082 6 L 903.082 6 L 903.082 0 L 894.763 0 L 815.83 0 L 800.551 0 L 800.551 6 L 788.551 6 L 788.551 0 L 776.551 0 L 776.551 6 L 764.551 6 L 764.551 0 L 752.551 0 L 752.551 6 L 740.551 6 L 740.551 0 L 728.551 0 L 728.551 6 L 716.551 6 L 716.551 0 L 704.551 0 L 704.551 6 L 692.551 6 L 692.551 0 L 680.551 0 L 680.551 6 L 668.551 6 L 668.551 0 L 656.551 0 L 656.551 6 L 644.551 6 L 644.551 0 L 632.551 0 L 632.551 6 L 620.551 6 L 620.551 0 L 605.273 0 L 526.34 0 L 515.701 0 L 515.701 6 L 503.701 6 L 503.701 0 L 491.701 0 L 491.701 6 L 479.701 6 L 479.701 0 L 467.701 0 L 467.701 6 L 455.701 6 L 455.701 0 L 443.701 0 L 443.701 6 L 431.701 6 L 431.701 0 L 421.062 0 L 342.129 0 L 326.85 0 L 326.85 6 L 314.85 6 L 314.85 0 L 302.85 0 L 302.85 6 L 290.85 6 L 290.85 0 L 278.85 0 L 278.85 6 L 266.85 6 L 266.85 0 L 254.85 0 L 254.85 6 L 242.85 6 L 242.85 0 L 230.85 0 L 230.85 6 L 218.85 6 L 218.85 0 L 206.85 0 L 206.85 6 L 194.85 6 L 194.85 0 L 182.85 0 L 182.85 6 L 170.85 6 L 170.85 0 L 158.85 0 L 158.85 6 L 146.85 6 L 146.85 0 L 131.572 0 L 52.639 0 L 44.32 0 L 44.32 6 L 32.32 6 L 32.32 0 L 20.32 0 L 20.32 6 L 8.32 6 L 8.32 0 L 0 0 Z" id="SIDE_outsideCutPath" stroke="#FF0000" stroke-width="0.1" style="stroke:#FF0000;stroke-width:0.1" vector-effect="non-scaling-stroke"/><path d="M 506.117 90.168 L 506.117 92.573 L 493.223 92.573 L 493.223 69.443 L 506.117 69.443 L 506.117 71.832 L 495.913 71.832 L 495.913 79.284 L 505.5 79.284 L 505.5 81.657 L 495.913 81.657 L 495.913 90.168 L 506.117 90.168 Z M 441.285 91.829 L 441.285 89.235 A 15.988 15.988 0 0 0 443.513 89.981 A 18.737 18.737 0 0 0 444.386 90.184 A 16.314 16.314 0 0 0 447.708 90.532 Q 450.398 90.532 451.758 89.511 Q 453.119 88.491 453.119 86.672 A 4.915 4.915 0 0 0 453.052 85.839 Q 452.94 85.185 452.636 84.702 A 3.265 3.265 0 0 0 452.114 84.076 Q 451.676 83.661 451.023 83.286 Q 450.078 82.744 448.311 82.081 A 46.039 46.039 0 0 0 447.582 81.815 Q 444.411 80.68 443.019 79.133 A 5.358 5.358 0 0 1 442.97 79.078 A 5.463 5.463 0 0 1 441.738 76.534 A 7.835 7.835 0 0 1 441.586 74.949 A 5.721 5.721 0 0 1 441.943 72.888 A 5.081 5.081 0 0 1 443.595 70.693 Q 445.436 69.243 448.367 69.122 A 13.162 13.162 0 0 1 448.911 69.111 Q 452.359 69.111 455.254 70.377 L 454.416 72.718 Q 451.553 71.516 448.847 71.516 Q 447.339 71.516 446.297 71.973 A 3.824 3.824 0 0 0 445.509 72.433 Q 444.307 73.351 444.307 74.98 Q 444.307 75.921 444.578 76.596 A 2.789 2.789 0 0 0 444.75 76.95 A 3.159 3.159 0 0 0 445.254 77.597 Q 445.522 77.866 445.877 78.117 A 6.448 6.448 0 0 0 446.245 78.358 Q 447.123 78.893 448.78 79.522 A 37.734 37.734 0 0 0 449.464 79.774 Q 452.522 80.864 453.977 82.088 A 5.372 5.372 0 0 1 454.471 82.558 A 5.097 5.097 0 0 1 455.742 85.212 A 7.137 7.137 0 0 1 455.84 86.419 A 6.751 6.751 0 0 1 455.528 88.519 A 5.428 5.428 0 0 1 453.625 91.18 A 7.644 7.644 0 0 1 451.015 92.462 Q 449.934 92.769 448.65 92.855 A 15.461 15.461 0 0 1 447.613 92.889 A 25.699 25.699 0 0 1 445.283 92.791 Q 442.825 92.566 441.285 91.829 Z M 476.011 92.573 L 469.603 92.573 L 469.603 69.443 L 476.691 69.443 A 15.618 15.618 0 0 1 480.098 69.793 Q 483.108 70.465 485.076 72.433 A 9.813 9.813 0 0 1 487.637 77.063 Q 488.032 78.622 488.063 80.471 A 18.866 18.866 0 0 1 488.066 80.786 Q 488.066 85.127 486.28 87.918 A 9.136 9.136 0 0 1 484.957 89.543 A 10.031 10.031 0 0 1 480.75 91.948 Q 478.662 92.573 476.011 92.573 Z M 476.201 71.769 L 472.293 71.769 L 472.293 90.247 L 475.568 90.247 A 15.607 15.607 0 0 0 478.277 90.027 Q 479.762 89.765 480.931 89.19 A 7.194 7.194 0 0 0 482.798 87.882 Q 485.218 85.517 485.218 80.881 A 14.364 14.364 0 0 0 484.999 78.286 Q 484.513 75.644 482.948 74.063 Q 480.678 71.769 476.201 71.769 Z M 463.26 92.573 L 460.57 92.573 L 460.57 69.443 L 463.26 69.443 L 463.26 92.573 Z" id="SIDE_labelLayer" stroke="#777777" fill="#777777" style="stroke:#777777;fill:#777777" vector-effect="non-scaling-stroke"/></g></svg>